<mxfile host="app.diagrams.net" modified="2024-02-12T21:49:17.676Z" agent="Mozilla/5.0 (Windows NT 10.0; Win64; x64) AppleWebKit/537.36 (KHTML, like Gecko) Chrome/121.0.0.0 Safari/537.36" etag="YhXFUQdMCe7mErmFldBc" version="23.0.1" type="github">
  <diagram name="第 1 页" id="nuNd8_V7MoBtT223j0he">
    <mxGraphModel dx="1628" dy="985" grid="1" gridSize="10" guides="1" tooltips="1" connect="1" arrows="1" fold="1" page="1" pageScale="1" pageWidth="827" pageHeight="1169" math="0" shadow="0">
      <root>
        <mxCell id="0" />
        <mxCell id="1" parent="0" />
        <mxCell id="kGa_pBdqIZK06uq2p0jP-1" value="" style="shape=image;verticalLabelPosition=bottom;labelBackgroundColor=default;verticalAlign=top;aspect=fixed;imageAspect=0;image=data:image/png,iVBORw0KGgoAAAANSUhEUgAAAWAAAAKoCAIAAADGULJfAAAgAElEQVR4nOydd0AT5xvH37vLYBM2CILIEBFciIp1oaLi3nWL4vyprau2WrdV664LraLWvQd1WxX3xIETlA2yN4QkJJf7/RE4DkggQQJEns9fPLzruSd333vX3WEURSEAAAB54LXtAAAAdRcQCAAAFAICAQCAQkAgAABQCAgEAAAKAYEAAEAhIBAAACgEBAIAAIWAQAAAoBAQCAAAFAICAQCAQkAgAABQCAgEAAAKYdVAGwMGDEhNTaXNU6dO2dnZ0aafn19YWBht7tmzp2XLlrQ5b968x48f0+batWu7detGm6tXr75y5QptLliwYNiwYbS5a9euI0eO0Ka/v/+UKVNo88SJE9u2baPNwYMH//rrr7R548aN5cuX02bXrl3//PNP2nzx4sXs2bNps3nz5nv37qXNiIiIsWPH0qaNjc3Zs2dpMzMzs0+fPrSpq6t7+/ZtxKB9+/ZM8969e1wulzZ9fX2zsrJo88KFC1ZWVrQ5ZsyYyMhI2jxw4ICrqyttzpo1KyQkhDY3bdrUsWNH2ly2bNnNmzdpc/HixQMGDKDNv/766+TJk7Q5ffp0Pz8/2jx06NDu3btpc8SIEfPmzaPNS5curVmzhjZ9fHxWr15Nm48ePZo/fz5tenh47Nq1izY/fvw4adIk2mzcuPHx48dpMzk5edCgQbTJ4/GuX79OmyKRqEuXLojB48ePcbzkpti9e3c+n0+bV65cMTExoc3hw4fHx8fT5pEjR5ycnGhz2rRpoaGhtLlt27Z27drR5qJFi4KDg2lzxYoVvXv3ps0NGzacP3+eNn/66afRo0fTZmBgYGBgIG2OGzdu5syZtHn+/PkNGzbQZt++fZcuXUqbwcHBixYtok0vL6+tW7eib6AmBCIxMTExMZE2JRIJMzU5OTkuLo42RSIRMzUtLY2ZWlBQwEzNzMxkpubl5TFTs7Ozmak5OTnM1NzcXGZqZmYmM5XP5zNT09LSmKlCoZCZamFhwUwtLCxkpjLPSIQQSZLMVD09PVQaZipCqMzz+AkJCRkZGbRZJphJSUkVBDM1NbWCYKanpzNTmVcOQigrK4uZmpuby0wtE0ymhKFywWT6jxASCATM1IYNGzJTywRTW1ubmVommPn5+cxUiqLKBLMMCQkJzHOGJElmaplgFhYWMlNTUlKYqUKhkJla5rwtE8wy522ZYObk5DBTs7Ozmal5eXkVBLOgoICZ6uDgQP/9+PHjpKSkoUOHIlXA4H0QAFAfGDhw4OXLl8uIYKXAHAQAAAoBgQAAQCHqFYj9+/f7+vomJSWptRUAANSEeicpw8LCrl+/XmYyDACAmqdNmzZSqVTVUjWxigEAQK3DXA1VHpiDAABAISAQAAAoRL37IN69e/f58+fevXvr6uqqrxUAANQEbJQCgHrB+/fvMzIyyuw9rxQQCACoF8BOSgAAqhkQCAAAFKJegTh16tT48eOZz3oDAKBBqFcgQkJCjhw5UuYpbAAAah4nJydPT09VS8FOSgCoF2zatKkKpWAOAgAAhYBAAACgEPUOMYYOHerg4GBmZqbWVgAAUBOwUQoA6gXx8fF5eXnMlxgrAwwxAKBeMGvWLHd3d1VLgUAAAKAQEAgAABSiXoG4dOnSvHnzyry6HwAATUG9AnH//v2tW7eW+fIHAAA1j4WFhb29vaqlYCclANQLmF+HVB6YgwAAQCEgEAAAKES9Q4zevXsbGhoyv5gMAIAGATspAaBekJOTU1hYqOpzDzDEAIB6wfjx4y0tLVUtBQIBAIBCQCAAAFCIegUiODh43bp1sFEKADQU9QrE1atXFy9eDFutAaDW0dbW1tPTU7UU7KQEgHrByZMnq1AK5iAAAFBInRQIKT8jLb/iL4RVTxYAACpEvQLRqVOnn376icfjKV9EmnF9fhtrcwtz10mnv0rVmAUAgEpRr0AMGDBg27ZtKm21prKiP8blUZQwOSwiXf6lXT1ZAKBesWTJkh49eqhaqi5utS6IfXI7tLBJly7OhurNAgD1h6p93bsuCgQAANVO1QRCvUOMrKysmJgYiUSi1lYAAFAT6hWItWvX2tvbx8bGqrUVAADURJ1c5gQAoLpZsmRJUFCQqqVgJyUA1As8PT2rUAp6EAAAKES9AqGnp2dqakoQhFpbAQBATcAyJwAACoEhBgDUCzZv3jxmzBhVS4FAAEC94P79+1V44hsEAgCUJu/D8w855f4rzQh9ESGsBXdqAPUKhEQiEQgEtTLNIU0K3jZ/1u//hHzL6+6qpZJqqqX+Udfixn+9ZWj3jj4zTqWWevyPDN/1o3cnnwmHIr7LDcOUOlmwYAFCKCIiQq2tyEN4a4YdgRDG9lz9XqK+SvhfX109fv2TWO2uVAaZ/uLoiimDu3fw9PzBZ/isjZe+8NXVVHVQZ+JGURRFCaJv71u7fMXmfyMUt0MmnpvowMaNOv/xLK9sUsJ5f2curttqYXCWWv38NgYMGIDjuKqlvleBkETs6WtOYJzG/hfSSXVVIg5d3pqN6Q09XuHFWC2uVEjeiy19rNkYxubZNWvuamPIwjCc5zH/Wop6mvtm6krcKCov7NIG/442WhhCiLCZel2oyJeYg4MscMJ6+NFYuRrCf77KywBnO069rDZXv5mbN2/u379f1VLfq0BQFCXOio34mveNv1eFlSh3oleXK4rIujnTmY1xHEYGvs2lKIois1/vGWbPxgjrMafrpkTUibhJok/OaGvBwTCdxr38BzZhVyAQZOqZMdYEYTXi2FeFvoher26vi7Fd5t2v0103lak7W63JtPCXUQVmLi3s9XM/3Tx/5Wl0nq6D9/ARXRvp0HmkWZGvP2foNfZoYoblhd88dfFJrMjYzXfkUE+L4gOR5sS8DUsWFs16YKlIu7WDEWOmpTD545sErlNrq7Rr+0+8kLYZO62vIxZ1be+hp4XuwyYPczdUohIyLfxlZJYUSWOSCygkzY4OefqUU5SXbebs4WCkhCvSzIhXX9Kl+o1aulpymIHIjw39kCTSs2vezEqrxOuXVy7eepOQTxg7tPMd6NOUroeMOrTu4BfKfuquPf7u+gghhBu2nLZ369OnQw+d3XF45ZAFDoQyoa2sHeWij1Bh2qenD5+9CYtOyZVwjBu19O7Xu40VtxrjVkJe1L1LVx6GJwtZJo09eg7o5WZSsiGv5JD1skIvnbr8KlFs6Nxt2IjOdsUxJcxNsAJer98DNvw2kLvH+3BQRPkWZEje7/7zbCK3/brlPzZQOGfHafnzirEH+u7dv+7InB+mNZSXT5r1+nTg1TTX4f59ncsGvu6iVvlRpQeRuc+Xi5uMPXpvYx9bDiZzDsN57X4PzqTzCC6ON8M5PQO+PNrUz45bnIltM+QAPXoU3pphW3Ke4EajzwqYrZDRWzpz9IbsODrOloUhhGm1XX339AQ7FoYQRjT0v5yrTCWZ+3y5CsKJm42/SCnlChm9vbsuhpuNOl1q4CqJ2NxZG2M5/nS3+G4mijg+tSWPwAgtnjFPi8AwtkWnX68myu5lksiNHTkYq+nCp6JS0RT+N92WwLR67k4ilQttJe0oF31J1F/eOhgzHhhu4Db5ZLSk+uImC17yf0u7WXNLmsIIo9ZTj3+hg5C5z5eLW/gdu722pzUbo6vq+Mczxg1eJBQVub2pk+IehPDBXGcWbjT4cGXdMVnHiOu17pO8YQiZemyYKY4Qxnaee0/RUKbuoV6BkEqlJKlkDzFzny8XY1nZWHFM2v9v393wuIjgTf2tCYzttuhZ8e8uuDjeDGc5tPU0Z1t1/eXok8i492dmNNfCCNvpN4tOIknC/SO7AwICAnYu6t2AkC8QLDtHB/uh+55enO7E4jq7NbHpt+3RtXnN2IT9rDtCJSoRfrz8d0BAQMDOZQPtCIzrMWV7QDG7D96OLs5WmSsphwcb4Thv4D/JJSGSvF/tycHYLZe9LprA4z9e3EobN/T8+UxYHklR/MjLv3cxxXGzQQfjSIqi+GdHGeG40eizZTu2qX/34mJE49l3RcqFtpJ2lIs+mXjxj3lrAoPuv/oYk5QS9/bKnwPt2Bhu5ReUV31xoyjxhy3ePBzneUzZfftDQlJs6JUtY5rpYZiu58oQEeNs4phbGGvZ9ll+/nVswoeghV6GOM4bfCS93KlXoUCInv3qysIMBh0qX64sRQrRdWu0nHOeTNzbRx9DCBHWU66VU7w6i3oFQhVktxfcuOva58XTxGTMju46GKvJgkdFP7vg4ngzHCHcwnf726Irgvy6szsXY3usfFdmSlz05BcXlnyBQLhR332xJPl1RzcOwgy6bfsioTID+3Bxo9HnBEpUUoyyY2lFteQG+TUgMD2fXfQ1KH6x2I2NaXfeXHRPJpMODuThXM/VjKOThK//gYtxO274IqFkh8BqMv9R6Q4ERQkujjfFceMx5wTKhLaydoqrVDr6xc0k7emlg7HdFr9gpn9j3LIv+lkTuPngQwkMYQ3b1FkXI6z9r8jqzNzny0UY23b4P3SvIu/0SGOc5fjzvbKhqlAgyK87unEwdvt14UqspAivT7UmcJOx5+UemCj66sa5M3/7+3FqrcwMBQYGzp07V9VSdWyjFLvVnJ2/eBZ//ge37viDM4uMefeeuTkFNxuy+eBM96JRHG7i2qFj2zb2hiq8mhY37T95lC2OCAJHOK/31AmOBMJxHFEUJa3JN9zq95o4vDHBf3DiVJTsPWCiJ8fOhEkMe0wYbS/rYxfcv34/l2jq28+lZJRPNGrnYUOIP4a+FSMkFpMIYWwOu9wPyWKzESUuFBcfUIWhrbQdGtWij/MsLXQxqlAgrL64ih5f/i+ZMu09fqh1yUETTqNHduBKU589+liyG4HlOXPtWMfiCR6OpaUJLuXn56nkiiQ6OkGKdO0cbJR44pDl6GCHS/PiY9LktcFp5Ltgy851U73MauWq+/fff7dt26ZqqTomEEhbW5sxhsUtzIwxSpqTmcV4kR6mb2XNK/Gb673q1tPHZ35urvx8K8bV0aNzc3R1FA2M1Q63g98od5bo2cljHyUIoYK7R89HSS36+Q2xlB0fmRwdly8Vv1nVio2VwO26PVIi5eflkwjX19PBkDQ/t9wHQMi8HD6F6Rvo0+d1BaGttJ0SKok+/9O5leO7t7Az1eOycBzDtAcdlnuxfAM5sXFpJGHr6KTF/C9u3MjOBCczUlIY25VwnHl+YxiGkKqb9qi8PD6FaevpKHOlEPoGehii+Hz+d/MEZN1ZxZCLSCxBCONwOFjleTURlvv4sV4bFzw+dfTlovUuN479m4AazZjYp+Q7IhiGEMtxyOIZHXmlQ4BxnNpxEWI1tDElpKnRUfnIm6lzkqjwaAFFuDo6KPqFmaGlKm1HKSThu4d3nX0927L9sAkLW1jrszFEhp1ate+lkuWVg8UiMISkJFn6IqRIUkJhLJyo5lNFi8tBVFaBQJm8UqGoECGkra1dvT7UIuoViKVLl27bti00NNTe3r4q5cURn6NJ3NjB2bKu9XRkYBhCiPqWneSE/agJPVY/uHr22KM5XsevpBKuv/l1pm+NhJmNpTaGUMPus+Z25sgrj7f0bK4deCMk+G62/9ASXSFjbtz6IGE5delmr6BnXDq0lbajDIUvArf9l8Zq98fN+4tdi04sYdCbDYHlBOKb4qZrY21KkDGfPvFR85IvGpBx7z9lUkT7Js7Ve0qzGlhb4FRCfGwSiRTFkkYSH5coxXSsGprLzSlJefvwE+Xi1cKy1vqsKqPeC08oFObl5UmrOLCXpl4+dCkRWfcd2kWr8ty1AG7IM8Cowqjwz1XfhY9bDZnQ15yKvXRwzYnb2Zy248a3Ypzh+h26ttEho8/uPBMv/23luHm/4d15KC1oy6439ONC0uSgP3Y9Fel6TfTzkH+5lw1tpe0ogzQpKU2K6dg72xUfQcGn02ef5pTTgW+LG7edTydjlH1j78GwQvqfWXd3Hnop0W4/cKBd9b6diLBr6W5OkB+ePcuvNK80+eXrOJLl2rqlvPO18OFvXdp069babeCuz7XxRcixY8euXr1a1VJ1bIghjX9w8kL7AR72BgWfb+75fdGJZLN+exf31le6Asmn48t23M+UIkSlh6RKqYKQ/bOn/0cgxG429s/ZHXWrtRK8QZfOzTj3QreOHcda8GMbCzw/OTpWr8eC4c1UqYXnO3Go3cndx/+Op/R6jh/jxDzB8UZjF/rtfBhwdnLnrCczxnRzs9LHxXmZyXExomYTZ/hY4Qi3Gr184YF7vz9a2adn4vxpPZ2100JObN16Pk6vw6ots1xKKqswtJW3owRsV3cXzvGnV9b89Jd0cGNxxL1TewKvpxBa5fr83xg3o4ELfmp7ZVnwb74DEub7dW2slf7m4s7NR8NZzX9ZPdVRaX2QfNgzec7pOBIhVPj1PYmk6VcX+3ZbjxBu3v/Pw3PbFEkr94deXY33n7j3782skcONKqpQmnT16gsRy82nd2N5TkizM3NIipJm3Dl6PmL6b01q+jVrw4cPr0qxal9NYaLqRimEsdis4vMJ41i1nxL4hvlojODieDOcaDw7WOFGE+H1qfKnm7m996ZTRcucRMPp/wkpikwO6MHBLSb+K6AoKvtAPy7GG3WGr0QlDHKfbOxvr4PT1wBjw4/ytYifL3JjYwg3H3kqkyqHIOzE7M7WpS4zDNfrsimMXncjk26t7u+gW+wFxuK5/bj5YclTAcqEVol2Ko9+9qM1PazprVhc667zTwev68hmOc99UGZt8RvjJvl6bZlvY136eHA9hz7LriaUrERm7vPlInbHjZEl/xI9mOvMwi0nXS5aNBU9nCd/OFJ2vTP/5vRGBGbgszOqwpVO8dvVnlxMu9PGMAXZJJG7exvjCLGbL3lV4WNqdQn1vnLul19+2bRpU0REhIODQ2V5swL7WE251Wbd4z1eiZ9SxLoNXD3bNjWr8oC4BinMCHv+7ENCrlTL0KKxW+tmDfWq/+Ygyfz84vn72CwxW49nYm7r4t7Essy8uiQz/OmTdwl8lqmDh5dHQ2ZfSYXQVt5OZfDjQx6+iMwlzF3a/+BuUdHv961xk2RFvHj2Lj4XGdi28PJsbKi2WzIZvtXHc/5900lBIYF9jeXnkSYdH9l6/HnOhPNv9g9Q0NEgozd3bbLgsd7wY1GnR6rwQetaRa3yk5OT8/XrV4lEmad15Wg+UD1AaL8VwbNlbXQwtvO0K/Kf1iQTToxqSBCWQw7FKdwElf/l9FQ3bYzrOu9evvo8rW7UO0lpYGDQoEEDeKs1oOFotV28b0UXvYjAqZMPhBeWTS0I3Tph1qlk2zE7doyV95iWNPbAaFebBq4/BsY1Hhtwak1n5abCqplz586tX79e1VJ1c/kQAOoY3Jbzj+2f5JR5adHvp1NKv1EqbOfMZXdR55Undw1T8LQn18K92/A5m049CXt1eJJbLS3JHT58ePHixaqWqjuvvZfEPb8RmmbUzLtDY815FlYzgNBWE5KYq6cjWo7sUUYHCt6dC8rz/rGDcZ2+3Vbt6951RyAAAFAjVRMI9Wrehg0bnJyc4uPj1doKAABqQr0bpdLS0iIiIgoLy03rAABQs/Tr169Ro0aqlqpjOykBAFAPU6ZMqUKpOj2tAgBA7QICAQCAQtS7ipGYmJiSktKsWTMORxP2TAMAUBpY5gSAesHt27cTEhImTJigUikQCACoF9TFfRAAAGg0IBAAAChEvQKxe/fuTp06JSYmqrUVAADUhHo3SkVFRT18+FAgUOqVwAAAqI+OHTtW4XXbsJMSAOoFv/zySxVKwRwEAAAKAYEAAEAh6t0HER4eHh0d3aVLl+/pW0MAUH+AjVIAUC94+fJlamqqr6+vSqXqpEBI+RkZFM+soregV08WAKg3fCc7KaUZ1+e3sTa3MHeddPqr/E/2VU8WAAAqpc4JhPBm4N43OVJK8OX4/svpcq/t6skCAEClqFcgjhw5MmzYsJSUFOWLcD27dzTGMYTpt+7SXv5rgqsnCwAAlaLejVJv376Vfa7DwsJCySKE44xzL1veDi1s0qWLgi+5V08WAKhXuLm55eXlqVqq7nybEwCAOgf0vgEAUAgIBAAAClHv+PzHH39s1qyZubm5WlsBAEBN1MmNUgAAVDeRkZE5OTmtW7dWqRQIBADUC76TnZQAANQdQCAAAFCIegXi4sWLM2fOTE9PV2srAACoCfUKxKNHjwICAnJyctTaCgDUEHkfnn8ofzJLM0JfRAhrwR2VsLa2btKkiaqlvtshhjQpeNv8Wb//E5Jd25VUUy31j7oWN/7rLUO7d/SZcSq11NN/ZPiuH707+Uw4FCGpLc+UIiAg4OPHjyoXo9TJggULEEIRERFqbUUewlsz7AiEMLbn6vcS9VXC//rq6vHrn8Rqd6UyyPQXR1dMGdy9g6fnDz7DZ2289IWvrqaqg7oSN0H0rYDf/AZ4d2jbrpPvmF9230tQ5BKZeG6iAxs36vzHs7yySQnn/Z25uG6rhcFZavKz9vheBUISsaevOYFxGvtfSCfVVYk4dHlrNqY39HiFF2O1uFIheS+29LFmYxibZ9esuauNIQvDcJ7H/Gsp6mnum6kbcROFH/V3N8AxXMfCqXlLlwa6BIaxrQf+LU+2JDEHB1nghPXwo7FytYr/fJWXAc52nHpZTT9xraFegQgODv7zzz+zsmpFWMVZsRFf877x96qwEuVO9OpyRRFZN2c6szGOw8jAt7kURVFk9us9w+zZGGE95nTdlIi6ETcy7tSE1m0nBz5Pl1AURYljz/s7szHcbOSpzLI5U8+MsSYIqxHHvir0RfR6dXtdjO0y736d7rqpTN3ZKEWmhb+MKjBzaWGvn/vp5vkrT6PzdB28h4/o2kiHziPNinz9OUOvsUcTMywv/Oapi09iRcZuviOHeloU7xmX5sS8DUsWFh0UxjJzbu1gxJhpKUz++CaB69TaKu3a/hMvpG3GTuvriEVd23voaaH7sMnD3A2VqIRMC38ZmSVF0ph//Mftjevyx7U/unGK8rLNnD0cjJRwRZoZ8epLulS/UUtXSw4zEPmxoR+SRHp2zZtZaZV4/fLKxVtvEvIJY4d2vgN9mtL1kFHbfNznPrCcevnVnl6GxfmzgiY2H3oorcOGD8ELHAhlQltZO8pFH6HCtE9PHz57ExadkivhGDdq6d2vdxsrbjXGrYS8qHuXrjwMTxayTBp79BzQy82k5O2CJYeslxV66dTlV4liQ+duw0Z0ttNi1CCVSnG85BeJ/aub87yHltOvfw7owS3JJXm7qn3bFZ/arHtx71dXxS8wzLsxvUXfvZk9d7+7PK2hvLk9adbr04FX01yH+/d1Lhv4GiAjI0MoFFpbW6tWrLYViiZzny8XNxl79N7GPrYcTOYchvPa/R5cIuiCi+PNcE7PgC+PNvWz4xZnYtsMORBR3PMT3pphW/Ij4kajzwqYrZDRWzpz9IbsODrOloUhhGm1XX339AQ7FoYQRjT0v5yrTCWZ+3y5SD642fiLlFKukNHbu+tiuNmo06X6V5KIzZ21MZbjT3eFRf8RRRyf2pJHYIQWz5inRWAY26LTr1cTZfcySeTGjhyM1XThU1GpaAr/m25LYFo9dyeRyoW2knaUi74k6i9vHYwZDww3cJt8MlpSfXGTBS/5v6XdrLklTWGEUeupx7/QQcjc58vFLfyO3V7b05qN0VV1/ONZBTd4/vGhehhuPiGoVHvCB3OdWbjR4MOVdcdkHSOu17pP8oYhZOqxYaY4Qhjbee49oZwM6mbAgAE4jqtaqm4JBMaysrHimLT/37674XERwZv6WxMY223Rs+LfXXBxvBnOcmjrac626vrL0SeRce/PzGiuhRG2028W/aiShPtHdgcEBATsXNS7ASFfIFh2jg72Q/c9vTjdicV1dmti02/bo2vzmrEJ+1l3hEpUIvx4+e+AgICAncsG2hEY12PK9oBidh+8HV2crTJXUg4PNsJx3sB/kkvOPMn71Z4cjN1y2euikTD/8eJW2rih589nwvJIiuJHXv69iymOmw06GEdSFMU/O8oIx41Gny173qf+3YuLEY1n3xUpF9pK2lEu+mTixT/mrQkMuv/qY0xSStzbK38OtGNjuJVfUF71xY2ixB+2ePNwnOcxZfftDwlJsaFXtoxppodhup4rQ0SMs4ljbmGsZdtn+fnXsQkfghZ6GeI4b/CRdLmnH0VR4ldLmrMxjte6MOYFLnr2qysLMxh0SGG5kgpkCtF1a7QcKSET9/bRxxBChPWUa+UUrwb4HgQCIdy469rnxdPEZMyO7joYq8mCR0U/u+DieDMcIdzCd/vboiuC/LqzOxdje6x8V2ZuSfTkFxeWfIFAuFHffbEk+XVHNw7CDLpt+yKhMgP7cHGj0ecESlRSjLJjaUW15Ab5NSAwPZ9d9DUofrHYjY1pd95cdE8mkw4O5OFcz9WMo5OEr/+Bi3E7bvgioWSHwGoy/1HpDgRFCS6ON8Vx4zHnBMqEtrJ2iqtUOvrFzSTt6aWDsd0Wv2Cmf2Pcsi/6WRO4+eBDCQxhDdvUWRcjrP2vyOrM3OfLRRjbdvg/dK8i7/RIY5zl+PO9sqEqPpTjPzYgcF6vgChJqX/v6MbB2O3XhSuxkiK8PtWawE3Gnpd7YKLoqxvnzvzt78eptTIzVDWBUO8+iNu3b69evTorK0vZAuxWc3b+4qlXZOHWHX9wZpEx794zN6fgZkM2H5zpXjSKw01cO3Rs28beUIU30+Km/SePssURQeAI5/WeOsGRQDiOI4qipDX5glv9XhOHNyb4D06cipI9QSN6cuxMmMSwx4TR9rI+dsH96/dziaa+/VxKRvlEo3YeNoT4Y+hbMUJiMYkQxuawy/2QLDYbUeJCcfEBVRjaStuhUS36OM/SQhejCgXC6our6PHl/5Ip097jh1qXHDThNHpkB6409dmjjyW7EVieM9eOdSye4OFYWhF02tsAACAASURBVJrgUn5+njxXhG+3+/18Jlm/y5KN/vbMeQZJdHSCFOnaOdgo8fkElqODHS7Ni49Jk9cGp5Hvgi071031MtOg3UfqdfX69evLli3LzMxUuoS2tjZjDItbmBljlDQnM4vxCBqmb2XNK/Gb673q1tPHZ35urvyrLTCujh6dm6Oro2hgrHa4HfxGubNEz04e+yhBCBXcPXo+SmrRz2+Ipez4yOTouHyp+M2qVmysBG7X7ZESKT8vn0S4vp4OhqT5uflln9Ej83L4FKZvoE+f1xWEttJ2Sqgk+vxP51aO797CzlSPy8JxDNMedFjuxfIN5MTGpZGEraMTc7oR4caN7ExwMiMlhbFdiTEDiRDCMAwheXPyhZ//mTBw4a08p4n7j8x1LzVjjKi8PD6FaevpKHOlEPoGehii+Hx+HZn5Z6Knp8fj8VQtVcdf6CoSSxDCOBwOVnleTYTlPn6s18YFj08dfblovcuNY/8moEYzJvYp+RkxDCGW45DFMzrySocA4zi14yLEamhjSkhTo6PykTdT5yRR4dECinB1dFD0CzNDS1XajlJIwncP7zr7erZl+2ETFraw1mdjiAw7tWrfSyXLKweLRWAISUmy9EVIkaSEwlg4oeKpUhh5dFLf6WeSbEfuuxwwxLqcDmhxOYjKKhAoU5dUKCpECNXND00eO3asCqXqtkCIIz5Hk7ixg7Nl3eyUYRhCiPqWhWLCftSEHqsfXD177NEcr+NXUgnX3/w607dGwszGUhtDqGH3WXM7c+SVx1t6NtcOvBESfDfbf2iJrpAxN259kLCcunSzV9AzLh3aSttRhsIXgdv+S2O1++Pm/cWuRSeWMOjNhsByAvFNcdO1sTYlyJhPn/ioOb2ui8i4958yKaJ9E5VeYi6JOu7vO/l4fMPR+64dGOco59BZDawtcCohPjaJRIpiWVJdfFyiFNOxamguN6ck5e3DT5SLVwvLWuuzqkzdvPBkSFMvH7qUiKz7Du2iVXnuWgA35BlgVGFU+Oeq78LHrYZM6GtOxV46uObE7WxO23HjWzHOcP0OXdvokNFnd56Jl/+eD9y83/DuPJQWtGXXG/pxIWly0B+7nop0vSb6eci/3MuGttJ2lEGalJQmxXTsne2Kj6Dg0+mzT3PK6cC3xY3bzqeTMcq+sfdgWCH9z6y7Ow+9lGi3HzjQTulPLUqiT/j7+h+Ptxt74Lp8dUAIEXYt3c0J8sOzZ/mVVihNfvk6jmS5tm4p73wtfPhblzbdurV2G7jrc9WDXNOotwfRuXNnkiRVGPlI4x+cvNB+gIe9QcHnm3t+X3Qi2azf3sW99ZVuUfLp+LId9zOlCFHpIalSqiBk/+zp/xEIsZuN/XN2R91qrQRv0KVzM8690K1jx7EW/NjGAs9Pjo7V67FgeDNVauH5Thxqd3L38b/jKb2e48c4MU9wvNHYhX47Hwacndw568mMMd3crPRxcV5mclyMqNnEGT5WOMKtRi9feODe749W9umZOH9aT2fttJATW7eej9PrsGrLLJeSyioMbeXtKAHb1d2Fc/zplTU//SUd3Fgcce/UnsDrKYRWuT7/N8bNaOCCn9peWRb8m++AhPl+XRtrpb+5uHPz0XBW819WT3VUVh/Iz9v8Jh/5LGJZacUFTukdyEjidPj1/B+9iuZhuT/06mq8/8S9f29mjRxuVFGN0qSrV1+IWG4+vRvLc0KanZlDUpQ0487R8xHTf2uiId+MrfbVlKoiW5hisVnF5xPGsWo/JfAN89EYwcXxZjjReHawwo0mwutT5U83c3vvTaeKljmJhtP/E1IUmRzQg4NbTPxXQFFU9oF+XIw36gxfiUoY5D7Z2N9eB6evAcaGH+VrET9f5MbGEG5efpcvRVGCsBOzO1uXuswwXK/LppLVejLp1ur+DrrFXmAsntuPmx+WPBWgTGiVaKfy6Gc/WtPDmt6KxbXuOv908LqObJbz3Adl1ha/MW6Sr9eW+TbWpY8H13Pos+xqQslKZOY+Xy5id9wYWfIv0YO5zizcctJl2aKp+NWS5mx5zSDE7X8wl+Fr/s3pjQjMwGdnVIUrneK3qz25mHanjWEKskkid/c2xhFiN1/yqsLH1NQDSZISicpPvdWdrdZZgX2sptxqs+7xHq/ETyli3Qaunm2bmlV5QFyDFGaEPX/2ISFXqmVo0ditdbOGaviguCTz84vn72OzxGw9nom5rYt7E8sy8+qSzPCnT94l8FmmDh5eHg2ZfSUVQlt5O5XBjw95+CIylzB3af+Du0VFv9+3xk2SFfHi2bv4XGRg28LLs7Gh2m7JZPhWH8/5900nBYUE9jWWn0eadHxk6/HnORPOv9k/QEFHg4ze3LXJgsd6w49FnR6p8nrCt1K1d1LWsR5Eac0HqgcI7bcieLasjQ7Gdp52Rf7TmmTCiVENCcJyyKE4hZug8r+cnuqmjXFd593LV5+niqmLG6UA4LtAq+3ifSu66EUETp18ILywbGpB6NYJs04l247ZsWOsvMe0pLEHRrvaNHD9MTCu8diAU2s6KzcVVidQr0A8e/Zs7969VfhkKADULbgt5x/bP8kp89Ki30+nlH6jVNjOmcvuos4rT+4a1kD+9cS1cO82fM6mU0/CXh2e5FY3l+QUoY7ODI0qL4wRxz67/O/lR5Hf1+P0dQIIbTUhjr5y7L/y74Tgvz17/FFGnXz1BoOqDTHg694AUC+QSCRSqZTDUW3ev27vpAQAoJpgsapyscMkJQAAClGvQLRq1WrUqFH6+srvhAQAoA5RdzZKAQBQ54AhBgDUC8aNG2dubq5qKRAIAKgX5ObmZmRkqFoKBAIAAIWoVyA+fvwYFBRUUFCg1lYAAFAT6hWIgwcPDho0KCkpSa2tAACgJmCjFADUCwIDAwUCpV6tyQQEAgDqBWZmZlUoBZOUAAAoRL0C4eTk1K1bNx2dWvhUKQAA3w7spAQAQCEwxACAesHs2bPd3d1VLQUCAQD1gri4uI8fP6paCgQCAACFqFcg4uPjnz17JhKJVCsm5WeklfsarTqyAABQIeoViO3bt7dv3z4hIUH5ItKM6/PbWJtbmLtOOv1V/nehqycLAACVUueGGMKbgXvf5EgpwZfj+y+ny722qycLANQrNm3a9PTpU1VL1TmB4Hp272iMYwjTb92lvbFc96onCwDUK5ycnDw9PVUtVee2WhOOM869bHk7tLBJly4KvuRePVkAAKgU9V48lpaWzZo143K5KpXSsfPqb1cTWQAAqBjYSQkAgEJgeA4A9YKlS5f6+PioWgoEAgDqBW/fvr1z546qpUAgAABQiHoFIisrKyYmRiKRqLUVAADUhHoFYu3atfb29rGxsWptBQAANQFDDACoFyxZsiQoKEjVUrCJCADqBVXYRomgBwEAQAWoVyD09PRMTU0JglBrKwAAqAnYSQkAgEJgiAEA9YLNmzePGTNG1VIgEABQL7h///7JkydVLQUCAQCAQtQrEBKJRCAQwDQHAGgo6hWIRYsW6ejoREVFqbUVAADUBGyUAoB6waxZswYMGKBqKRAIAKgXVOFlEAgmKQEAqAAQCAAAFKLenZQURUmlUthqDQAainp7EBiGgToAQF1g//798+bNU7UUPIsBAPWCgQMHXr58mSRV+1wtzEEAAKAQEAgAABSi3n0QS5cu/eOPPwYOHGhvby/7z4QJE1q2bElnOHXqFPODokOGDOnUqRNtXrly5datW7Tp4+PTp08f2rx///6FCxdo08vLa8SIEbT5+vXrw4cP06abm5u/vz9tfvnyJSAggDbt7OzmzJlDm8nJyevXr6dNExOTJUuW0Cafz2eaHA6HmRkhNG/ePObAbf369RwOhzaXL1+em5tLm0uWLDExMaHNjRs3JiYm0ubPP//cqFEj2tyzZ094eDht+vv7u7m50eaxY8dCQkJoc8SIEV5eXrQZFBR09+5d2vT19e3Zsydt3rlz59KlS7TZqVOnIUOG0Obz589PnDhBmy1btpwwYQJtfvr0ae/evbTp6Og4c+ZM2kxISNi8eTNtWlhY/Pbbb7SZnZ29cuVK2tTR0VmzZg1tkiS5YMECxGDz5s04XnJX+/333wsKCmhzxYoVhoaGtLlu3brU1FTaXLBggbW1NW3u3LkzMjKSNqdNm+bi4kKb//zzT2hoKG2OHj2a+Uamc+fOPXz4kDYHDBjg7e1Nmzdv3rx27Rptent7M3coPX78+MyZM7TZpk0b5kOW7969O3DgAG26uLhMmzaNNmNiYrZt20ab1tbWzPikp6czo2dgYMCMraGhoVSq+nesKXUSFhbG/DkRQidPnmRmmDRpEjN127ZtzFTmmYQQWrx4MTN169atzNTJkyczU48fP85M7d+/PzOVqTsIobZt2zJT3717x0xt1KgRM5V5ziGEtLW1yxx1mQjn5eUxUy0sLJipERERzFR3d3dm6qNHj5ipPXr0YKZeuHCBmVrmYd49e/YwU+fOnctMXblyJTP1zz//ZKbOnDmTmco8ZRFCw4YNY6ZeuXKFmdq5c2dmKlOzEEJNmjRhpsbFxTFTeTweM1UkEpUJZmFhITMDj8djpsbHxzNTnZ2dmakvX75kpjJvRQihq1evMlOHDh3KTD148CAz9X//+x8zdf369cxU5mWJim8YNLt372amjhkzhpl6/vx5ZqqPjw8zlalKCKHmzZszU798+cJMtbS0ZKYmJyfjOE6piNonKVNTU5kab25urqOjQ5sZGRl5eXm0aWJioq+vT5vZ2dnZ2dm0yePxmCdEbm5uZmYmberr6zNvxXw+Py0tjTZ1dHTMzc1pUygUJicn0yaXy7WysqJNsVj89etX2mSz2cw7j1QqZZ7WOI7b2toyDzk2NpYZVTs7OwzDaDM+Pp45UWRjY8NilfTjEhMTCwsLadPKyor5ZdOUlBSBQECbZYKZnp6en59Pm6ampnp6erSZlZWVk5NDm0ZGRsybbZlgGhgYGBsb02Z+fn56ejpt6urqmpmZ0aZAIEhJSaFNLS0tS0tL2iwsLGT2icoEkyTJ+Ph42iQIomHDhohBTEwM02T2p1C5YDZs2JC5avb161exWEybDRo0YHblkpOThUIhbVpYWGhra9NmWloan8+nzTLBzMzMZHYDjY2NDQwMaDMnJycrK4s2DQ0NjYyMaDMvLy8jI4M2ZW9do82CggLmHUhbW5t5RxGJRElJSbTJ4XAaNGhAmxKJJCEhgTZZLJaNjQ1tUhQVFxdnZ6faB2thFQMAAIXAJCUAAAoBgQA0jMzMzFmzZjHnpwH1AQIBaBg5OTm7du0qM10HqAkQCEDDkK3VlVkdA9QERBnQMGTT6iAQNQNEGdAwZD0I5soxoD5AIAANA4YYNQlEGdAwYIhRk8BGKUDDEAqFHz9+tLS0ZG4iBNQECAQAAAqBfhoAAAoBgQAAQCEgEAAAKAQEAgAAhYBAABoGRVEikUjVl68CVQMEAtAwXrx4oaWltWnTptp2pF4AAgFoGLDVuiYBgQA0DNhJWZNAlAENA3oQNQkIBKBhwMNaNQlEGdAwYIhRk0CUAQ3D0NCwa9euzBe6A+oDHtYCAEAh0IMAAEAhIBAAACgEBAIAAIWAQAAAoBAQCAAAFAICAWgYERERa9asCQ0NrW1H6gUgEICG8enTpyVLlrx8+bK2HakXqHcfRMOGDQUCgfrqB+ohhYWFeXl5urq6Wlpate2L5rFp0yY/Pz/l87PU5wpCKD09XSgUqrUJoH7C5/P5fH5te6F5qHrDVq9A0EyZMqVmGgK+e6Kjo2/dutW1a1cnJ6fa9kVjiI+Pv379ehUK1oRAzJkzZ+vWrTXQEFAfOHfu3K1btyZPnjxmzJja9kVjiI+Pt7W1rUJBmKQENAx4H0RNUkNDDACoLjp27Hjp0qXWrVvXtiP1AhAIQMOwsrLq169fbXtRX4AhBgAACgGBAABAISAQAAAoBAQCAACFgEAAAKAQEAhAwzh27JixsfGNGzdq25F6AQgEoGEIBIKsrCyJRFLbjtQLQCAADQO+i1GTQJQBDQO2WtckIBCAhgGf3qtJIMqAhiEbYkAPomYAgQA0DB6P16RJEz09vdp2pF4AD2sBGsbo0aNHjx5d217UF6AHAQCAQkAgAABQCAgEAAAKAYEAAEAhIBAAACikjq5iiFKjItMEFEKYjrmDvRm3THJ+YnhcloTCCF5DF2v9WvFQnUgywx7efvQ+Li1PqmNq69bB+4dm5qVCUBweTNfKuZFxHf0N1cW7d+9CQkL69+9vampa277UAyh1Ivv20Zw5c1QrRsbt7qUv2weD8frvTyTLpAsujDPBEUK48ZjzgmpwUxR3Z9uywNfiaqjqG9sk05/sntrRmltqExCmbev905H3+XQu8aslzdkIIcTpsjW2bHC+e9auXYsQevbsWW07oknExcXJTqaAgACVCtbFIQb55cTRe/myLwJSObcOnYgm1daWJObqyiEt3XvMO/ImS32tKNcmGXf+f94+/9v78Kuo1OcQKUFc8A6/Lv3XhxTUkId1Ggoe1qpB6mCUJW+PHn9OXyKU8MmRQ2/V9mhv3q2d6y58ypGqq37l25R82uHnv+9dPoUwwsRj/Op/Lt179OD6sXV+HsYEhigy4+6qWX+9g2ec4WGtGqXujV9Fjw6d/CCmEMY2MzfITMkgxe+PH3y4uFVXBV9qJdNCL5+/9ipeoGPr0XtQnxbmpQ9Jkvbuv6t3Xkel5olZeuaNmnfy7elhyS0qGR7yNi5XdqEWpn1+8VTHoEGz5rY6WZGvP6eJKdygUQtH8vmxw7fitZp0HzHsB2sOQqgw+fXNa/feRKfki1k6xtZN2vn06eigX0ZoRcmvb14NfhOdLiQMbVx/8O3bsZFuhW3q5Vz+c+P9bClCuGHHVTeuLfaQ5e/QsVffThbePTa8FlIFIfv3Pli8w1th6Cp3rYJoqJCldoGHtWoU9Qx5iqjCHETev5OsCYQQpu298eTcJiyEEMKtxl/IZuSh5yCMev88t6M5u/hegrFM2829GCcpzicKPzLJ3RAvPaDXazJq33sBRVFUVmCfMic+q8mCRyK6ek7HX7eOaczBEEIIMxx8OIMSffpnvKtBmQo51j3XPipxj8x6smWosz4zE8a18VkZnEpW0Gbu6ZEmOEIIEY1n3i4zr0Kmnp3Xf8T0xZsO/huSSFHy5yAqd62SaCiZpfZZsWIFQujNmze17YgmUeU5iLomEOnHhpngCCFMr9fuBOGrJS3YGEII5w08mFwyG1d8BctOYELX0snFjlckE7hh5w3vxBRFUZKwzV30MIQQRuhZObu3dGtsIpv8w7RbL3shqlwgcB1dnaJmMP2+gcmid+s66BZV2MClRQsXG0NZoxjXa90nmSxJwnb1NsURQgjDtS2cmzlb6REYQgjhlkMPJ5CK2hQ9XuAi00Lj0Wf5lQWpvECIK3Wt0mgolaUusGzZMoRQaGhobTuiSXwnAkEm7OmtjyGEMN6AA8kkJfm4ph0HQwhhOl23RtI9gxKBwI07L7ubQlIUmflkjbex7B5s7X8pj6LIrzu6cTGEMP3euxNkRfPfbPDmEWx9M/vua0PEFJmXFPVmvTcHIYSIhn4nwiKj4jKEpfQH57kPnfP7LxP7TjucJHq/tW9jcz02y7z/3i8iiqIoMunYCAscIYQZDD/JpyiKyg3yk/V/2E5+p6NFFEWJv/47tQkbQwhjN18SoqhN/pmRPAwhhFhNFz6p9FIsJxDiSl2rPBrKZKkTvHz5cu/evRkZGbXtiCbxfQiEJHxDRy0MIYSbDDueQVEUJYnc2lUbQwhh7FbL3hSfovQVzHL99Rl9OdF3YZbjz/dFFJm020dWGa/Z4Plbjt95nyKkJPw8voTZZOY+Xy5CCBH2s+4Iy1aP6XXfHlUqO0VR4vw8AUlRlCj1450ji3tYEgghxO29N52iKOEV/wYEQgjT8t4eV9zjkcQFHw48euHmwzexuYra5B8drI0hhBDbffGLSq9ERcucFbimRDSUCxigkXwXy5ySd0ePPxNRCOFmvqP6GCOEENFoxMguehhClPjdiYOPRaULYHrNPdw4xRaneRt3XQwhRH6NjSlEuFnvYd2NcISk2R8ubJ43upt7A2Orlv2mrfj7vygllwtZ7j6+tkSpf+V/vnV43cxBHVwsjayadRu39laybKGSohBC0uTwiHQSIYRbujYzLw4t0bDrOP8xg3x+aGGrcE8XrquniyGEkDQ3O6eKy60VuqZENKohYMB3Rx0SCNGTQyffiymEEJV5wd/e2NjY2NjY1O3XewKEEEKSqDMHb+SVKoFxtLQYB0DoGehgCCFKKhIVIkQ0mrz/7KrBTXks2ewERRYkvw8+vnFmrxZtp19IrHxlEyPMrSwZ+iCJODy6Vcs+/1t74NKT8JQCKcY1sbbQLRrr4DhCVEFBASVzjFt6r1NlsBwd7QiEEJImf/qQWtY1/uW53Xz9l++9+j5NwTJnpa4pE41vDhjw/VF3BCL/1qEzUbLznxLzs7OKyRFIZHsiyOSgfy6UuniovNRUfokpycnmUwghTNvAUAshhHAL79/Pv4//8uDUX4snD+rkaqVLYAghKv/D/sV/PSus1CUtbW1GfDLOLJ5/KkJAYRxbnzl/nbwTmpCZeHmak0xBcBxHCDM0lG0AlWZnZqh0PbGcu3exZyGEqMKnp0+El5IBafL5g0fvXT+walr/LrPOyS1euWvKReNbAwZ8d9SZfRCZlw8HJZEIIdy4aScPGw4zTRj34lF4tlSaffOfk7FjfrIv/j8lenH9eurEMbLePP/R/Zd8CiHEcnJrxkU57y+d+u9tfEIS3n7+sp/XjPgZIVQQvmu4109Xs6Rk7JcIMfLiIFS834aiSu1eRAghDCeIEoEQhT56kSVFCOP2WHZyq78xQggJ3ySmMYQAN3V3a8i6EymRZj5/9KZwQHsOQghJ3q316ROYamHTqMeCK38OQHLb5LSbNLHtnsWPCyjBk7UTFrqcXjegERchhHJe75q26N8MKUKIaDBwbC95sVPCNSWi4fpZqYAB9Qu1TIkUo/QkJfn1b18D2TS+669Py07jix4tkG2IwNgeK96KGcsMGGHtu+52HF+Q/HzvuCay6UxOm1XvxBQluPU/e0KWpc/6O7H5JCXO/HD2fy21MYQQy3HOfRFFUVT+0cE6som5AYEJ/Iy4xFxSwaMeosdFThCWfTY/TRXyEx7tndRCT3atc3rsSiIpihI+nO9StDDbdu758FyJMPHhxj5WBEII43iskK3MyWuToij+s1VehkWHhetat+rWf1C/rs3MOUVqgpv12f1FNl9YdpJSCdeUiIZyAQM0Eg1fxZB82dRJCytRgLKI36/2lF0oLOe5D4TFVzBh7eyohyOEYXjxTRnjNpl5LVNWacyRETas4v/jLDZRnAk36bkzTHatiR7Nl11bCMNwnLDw+1eg6Fkw/t05zsV7sopaxDiGhrLrp+lCmayRKZemN9GiG8WLNx1hHOfpl9NJhW1SssLBK7pZscvPXmCESYffbtI7QcqtYijhmhLRUCpgtc/69eubNWuWkJBQ245oEpotEOI3y1qxMYQQptVx4xd5JyIZs6OH7I5IWE/6l97q2HnT06tLe9pqFz35yTZvP+vkF8aNTvDxxJxujfQYWwMxjlnrsdseZ9CLg5JPewfbFc8oYlp99qUrflg0+/H6vnb01a9l6/P7pTf7+utjCGHs1stDi4RNEndlWT/GVkoM123UY8HZiBK/5LRZcqTpIUeW+fVs1cjMgMtma/Osm3YcOmfnnTjm7VvOMmclrikbDSWy1Dpz5sxBCMXExNS2I5pElQUCo8qPvasPbW1toVA4Z86crVu3qq+VwuS3D55+ztW28+jkaatTLpnMi30T8jY6JV/KNbJp6uHhUu71Evy45/efx/C5Zo6t27W0Ll8DE2Fy6KOn4ZmYWVOvH9zMFY7Jpfmxr56FRqcL2caNmnt6NOYRZTKo0qaSKOVa5dFQJktt8vPPP2/fvj02NtbW1ra2fdEY4uPjZeEKCAiYMWOGCiXVI1hFVPF9EACgmFmzZsnO+Np2RJP4LjZKAYASUPA+iBoEogxoGPA+iJoEBALQMLS0tPT19Qmi7KwOoA5AIAANY8uWLbm5uebm5rXtSL0ABAIAAIWAQAAAoBAQCAAAFAICAQCAQkAgAABQCAgEoGG8ffv2xo0bJFlT3zmq34BAABrG+vXre/fuLRKJKs8KfDMgEICGAVutaxKIMqBhwFbrmgQEAtAwoAdRk0CUAQ0DehA1CQgEoGHAx3trkjrzVmsAUI6RI0e2aNECBKJmAIEANIzhw4fXtgv1iJoQiL/++ovDgS8qAECtER8fX8WS6ngBHg3MJAFAnWL8+PEqXcLqHchR6nxlNgAAqiIWi1XKr94hhpaWllAoRAhNnDhRrQ0BAFAB8fHxt27dQgh16tRJpYI1MQeh7u9iAABQMfR3MVQF1ooADeO3334bMGBAbXtRX4BlTkDDePny5dOnT2vbi/oC9CAADUMqlcLqWI0BAgFoGFKpFLZR1hgQaEDDoCgKBKLGgEADGgYMMWoSEAhAw4AeRE0CqxiAhvHff//BG2trDBAIQMPQ0tKqbRfqEdBVAwBAISAQAAAoBAQCAACFgEAAAKAQEAhAw/j8+XNYWFhte1FfgFUMQMMYMWJEbm5uVFRUbTtSL4AeBKBhwE7KmgQEAtAw4GGtmgQCDWgYsNW6JoFAAxoGDDFqEhAIQMOAIUZNAqsYgIYxcuRIEIgaAwQC0DBWrlxZ2y7UI0CJAQBQCAgEAAAKAYEAAEAhMAcBaAw5OTkhISEfPnwoKCjQ1tZu2rRpmzZtjI2Na9uv7xkQCEADePLkyfr16//999/yn4Pu2bPnr7/+2q1bt1px7LsHhhhAnebr16+dO3fu0KFDUFCQ3I/F37x5s3v37p6enhERETXv3ncPCARQd/n6YG8UxQAAIABJREFU9WvXrl0fPHiAEGKz2ePHj79w4UJsbGxOTk5CQsKlS5emTp0qe0VlSEiIt7c3aES1U0eGGMKUyKh0oZz7QwmYjqWjvQmnpjxiIs2JD/+axzZ2dbRUZzOFGdERyQUUwlhGtk0a6MnLIsmM+ZzEpzCC19DFWr+qDeUnhsdlY0Z2zla6VfdWLkWRMmnkaKHD/L8k8tL248meS6d0QpKIoG0nM7xm+nUwqvjuJFMH2TU/atSoDRs22NjY0KkGBgbW1tb9+vVbtWrV0qVL9+3bl5CQ4O3tHRwc7OjoWM2HVZ+h1IlM3efMmVNJPtGz35pVJlXs9uvCJGr1ViH8o4N1MJbDT6qUESc9CFi2L0SkfAlJ2Lr2bIQQwjjt1n6Se6jZZ8eY4wgh3Gj02ao7I7gwzgQnbKZeF6pSh1LIIuU872Gp4xZ/2OJtZNx7d5Qsz8Nfmmk39g9KJSuoSCAQODk5yX75adOmSaXSihv+9ddfZZltbGyysrK+9Ti+O+Li4mTxCQgIUKlg3ehBEGatB03w8yz+2IE09cXF6x/4pm0G+roZFD+WQzi48zTmER3Rnbk/9N4t9r++eLLqhSnx66ALXxYuciHKJGTfPHczXVqzznw7ZPT+X/543HDavYn2CCGEdLzmLxlwZMKClSO77OxhqKDQP//88+XLF4TQlClTdu/eXenTWX/++adUKt24cWNCQsLu3bsXLVpUrcdQj1GTYslQtgdRBuGdWfYEYrdZ/aGWugxlUL0HIQiaYI4TDaf/p8JNWtaDIKzsbLjy+xCZJ0eYEAYmxmxMtR5EWWdqtgeRfcnflmU08GASo8Mgfr2sFUe7/Zr3Yrm1kCTp4OCAEGrYsGFhYaGSbUulUldXV4SQhYWFUFj9x6bRVLkHoYmTlNL85Ij3b96Gf80p830laVbky2fPw1IlCCEpP/nz2zfvY7IKS9JFmTEfQt9FponKF/qYXIgQKsyK+xgaGpaYr9yHmwqzv35+//rlm48xGYwqpZkRISGRmRJEidM/v3j6/GNy6fYUeS8DN+056Acd8eugC1/KpGdeO3sr26Rnfy9teeUUVFuJMwgJM6Lev/0QlVqgoGdC5nwNe/vm3eckhTEh+SmR79+FJ/Pl1UBGHtx88qtpvwmDLRmnGst9/Nj21IuALdfz5NV47dq1yMhIhNCcOXPYbLaCdsuCYdgvv/yCEEpJSTl9+rSSpYBKUJNiyajuHoQ47uaaHz0stXAMIYQwjmnzwcsuRdN3K8GFcSY4p8dfT87+4tNYn8AQQhjHssNPZ6NEGU+2jWllysYQQhiL12xUwOv8UoU6/3nryAwvK66sYi1rL/89L+iRbLkehCjq0sof29kasIo6vhih2/AH/79DcimKovhnRjHHQuyOGyMlyngv60Gwmy++sqOnbvk+RPrRIUaE5fiTB4YblO5BVFitPGeKehD+B87+3tfZkIUhhDBC39579rFPAkaD+R9PLuznasyWVYtxzVoMXnYxknlnJlPub/XrYK1VVINTv+VBWweV6kGIXy1pwcbNx1/Ip0ojidrSmYvzBh1KkTMTIZtQwHE8Ozu7fGoFFBYW6ujoIISmTp2qUsHvnir3IDRIICSxJ8Y5cDHc0KXvjOWb/tqyas7QliYsjG074lCULJ/szLe0tdY2bj5kzh+bNy/39zInMJzXtvcPZvpOvjNXbt6y+n/dbbkYxm297JWYUcjEyoKr32Tgwm3/HP57jX8HSzaGm/ps/yDLUkYgsv+b3YSD4YZNB8xasWn79i2r5/3oYc7GMLbzvPtCipIkPL14/PduPBw3811x4vTZ4PB8pbwvFoglL2L29NYrqxCphwbzWA0m/pt6cgRTICqrVp4zggvjTHCMraPD0WvcffKSDVs3/D6hnQULw7gtlzwvak7wZnN3UwLDDVz6zly++a+NS6f6OOhiGNt6wJ6PxdrzZHlbAxxjW7Yfv3jD1g1LJnWy1tLV08UZAiF+vawlGzMYdCij3G8sSzIcfCi9/O/v4+ODEGratKlqpw1FURT1ww8/IITatGlThbLfMfVAIDLOjW1A4LzOa0Py6P8JPuzobYrjlqNPZ1BU0bWOMG2Ppc+K7lhkUmA/Qwwhwn7ixeJ7leDuz04sxO6w/gvFKMRuMu0yfTcThK7vYojjZj+eTKeoMgJBft3dUxcjrEeeSCy5+fEfLXBlIbbboudFqlN2DkIJ72mBeCVM/Nu3tEKQKQcHGrKs/a/k808xBUKJahXMQSBMq8WCu5nFhfKCZzuzELvFUoqiKEoStaO7PoYbdlz1LLc4B5kRvNBDF8N5ff6OJSmKjNnV0wDDzfoEhBX3gSTRR4ZbEwjRAkEmbPfmYgrmkmReNfC/Uj7Jw8MDIdSrV6/ySZUyatQohJC9vX0Vyn7HfP9zEFnXjl1OQlZDf/3Zo2SHgJbr5J8HN8BSr579jx7MYuw2oyZ6FC3w46YerRqxEMthsL+vedGxarVo7kwgKjMtraR2TLf73GV0DqTV/H9zB5mj9Btnb+aU80Sn62+HDu7Zu3yYVUnwdFq2aaaNSXOzc+WP1JX2HiGEEGHRf3BnPcY8hDTt8vlgvlXf4V11v6HaUmDsdn6zOhkVm3rtu7c3wsmUBIQQksYHnX2Yj9uOXj6/Lb3ZAjfuumTpMCss586pf79KpclXLj7Iw+1+XDCpSfHeFKLRyGVTWzKmDMTv33+RIJ3GznZl12MQQmxHRzuCTPv0Xo5vGIYQqtonvCUSCUII3ihTXdSNZc7KKfz89lM+JRVdmt3aZR4zQZyVIZVKIj7FIOSOEEII07drbFVyQrLZLIRwSxvrkiPlcDkEhqRSxqQay7mdlznznNJp1dKFdejR548REuRRyhOc5+I91MUbSQtSwl59CP8SEfHl04c3z+8G8xEyJCVV9F6C3BlTBbhF/8Gd51/7r2i1U5py6dzdAptxI7roIKmq1Sr4hTFeo8YWjCPGdHW0MMQXI4SQ+NOHCAnSauXVrtRuJ6TfwcuddehWxIdwsRh7/7kQsV1bteIyMrCcPFuZE6G0f8nJ6VLcytxcng+EpYUpjqjUxPJJNjY2ISEhVfs6jqwUc0sV8C1oikBQebl8CmE6RpYWFqV9trCwcSEaWdH/xLR1dMotmhO4nHsYA0zf0LDUPQfX1dXCECXgC8rPzZPJwZvn/7b9QkiiQEohhOFaJk4edjwihv/t3hc3b95/SBf9qzeDLnxZuMg55d9z9wV2E4d31EKo4FuqZR4xh8uVs7eAQgghqqCggMK09fTLLiDo6uuyMKpQJKQokl9AIY6ObumtrRiPp4ehoh2xUoFAKKUwrpa8hhDS0uJiGCUoKJ/Spk2bixcvJiQkREdH29vbKz6IsmRmZn78+FFWg/KlgArQFIHA9A31METYj9l7Z2mzii/2qkDlZGdJkV2JRpCpqRlShBmZmhAIleoWFL5ZP2TgkqeF1p0nLh3apZVbUzc3d0cz8ZHB5hO+fpP3pTrUuFnfIV0MrtwIuvBl/vjg8w+E9lOGd+CWKaGuoGA8Q32MSstI5yOkxfi/ND0tU0zhBkZGOC41MsSpuMyMXCnSKQkblZOTT6Hi8Z22FhfHqEJRIZKHSCSiKExLzqJtz549lyxZghDavn371q1blXd8165dsoGJbJoT+HY0ZajGcWnlpo9LPty6EV3qQuI/2TXnp9/+OBkq50akApIvjx8lMvoK0q/B9z5JCOs27RuXufAKX584+iKPaDLr5PXAlbPHDfJu42jGRZIvn6MlFKJKHjcsddOsgvcyhZC8vnTh6YWLjwodBgxvV+45FKWrVXEHKtuttZs2EoXcvp3J/Lc09fadNxJMp2lzFw7HrW0LPVwSejc4i5FDEvYkJLXEFY6lhQkuzUxLlTfwIpNT0qUIM7Mqn+Tp6dmpUyeEUGBgYBpzqqhC8vLyduzYgRByd3fv1auXkqWAitEUgUCGffyG2RLCh3/O2Pw8u+h/0rQ7K2b/un3nzpsJ3LJ3V9WgCu5uXHg0ouhWJwz7Z96fwXyO+7iJHRXUKxYISs76nJBti/a9EyNKLC6UKQTGYbMxip9dvE2rCt7jpn2HeBtIXh6dt+9BoePA4W3kPKemXLVlnakU3GzghP6WKO3ckjknIos3VgnDDv+88loO1mDg+P4mCBn1nTSsIZZxcfmcI2FCWQ7+mx0Ld4eKS+phu7g6EIgfHREnZ7pRHBEZR+I856ZyXVi4cCFCKD8/v1+/fjk55WeKyyIQCAYNGiRTE9l2KaB6UM+qShHVug+CTL2+wMMQRxi3gUffMZP8fuzV3JyNYYR5j82vZBt85OwhFr9f5cFGHO+/4hhrksX7gUsKYdomJnosXpPuP06cONzbyRDHcONOq5/kMQsULXOKXqxoo4thhLH7gMnzfl0w269va0sttoWbqwWB6Qz85//t3WdAU1cbB/Dn3JvFCHuoqCAioOJiuAe4Rx246p5V66iLWq171D3qq6221Wrde8+6R90MRUBxgai4WLJDcnPeD2EEyJWAgIE8v0+a3HvPySH5546T+6hm9ihCF3kJCRFaOjfyGbH5qUKb3udc5syagPxhm68ZAwBCt5n3sh7LfZlTi83m74zGqdbp57+vwjIWA7MG+/XhMbWNCWFMqrfsOXTkEN/m1YwZwkjr/XAia8409/7kBDdDQlizGi19Bw/p2dzBmBGZmhmozYOQ3ZleS0DMeu3M/+sp+YN57kJi1HnTO41vAaVS2a1bN9VbtGHDhp+fMZWampp9wxhvb2+5XPMMbn2mB/MgKKWUJobsnzvIu5admUQoFJvZubUetvj4s+zpf0UPCLbyqL2X1g5vXt3CQGJSwaXVkEVHHiXnWSF7opTi9bmlg1o4WxsJBSKpTY3GvlP/vPE2/sgQW4a1G3ZM9U7mPlyc39nZQswSxmLAwRRtep8/IGjMDl8zBoT15gRlP5QnIArebP7OaBMQlFIu1n/b9N5NnW2lYpGhRZU6bUcsOvAwkarjYu787dfdw97SUGRg4di438Jje39wEqjNpJTdnOYqYCuNOJF3JiUX8au3mBh3/OMN7286ZTJZdka4urru27dPocj7flAqlceOHatfv352OqSkpPBtUJ+Vr4AoVSX40yVE5cELPcWs3ciTuRNCEbHWx4C17rsn5nO/+c6VEQBQvXr1yZMnb9++/fjx4zt37vTz86tZM+cIBdPhMzAgigwDokRx0dt8rVir3rvUb/8gD17gIRLWnHYjjX/FTDKZbPbs2ebm2VO6NJBKpX5+fpgOn1H+Z1Kisomp2G/W+Popp3//+3H2mcqk8+u3BJt3nzWlseRzqwIAgEgkWrRoUVRU1Jo1axo0aCAQ5FyYZ1m2Tp06S5YsiYqKWrVqlepnWqh4lZV5EKjMEnn8uHrsgU6/LTs2cntPawDu0Z9L9ya3Wb60X0Wtv56MjY2nTJkyZcqU9PT08PDwtLQ0sVjs4uKCoVDSMCBEjSdtP9STqdZA2/sOoMIybrVgyyrZpkcBAB1B8cT/bY2Jf84Z7VSUqV0SiaRevXrF3kPEBwOCqeDRuYdHwcuhL2DcaNxvjVT/FNQcvPrvr9sbpD08B4EQ4oUBgRDihQGBEOKFAYEQ4lV+TlKmx0a9TaRGtvY2RbzypWkDSqUy++ZEX9wAP0Xc4/+u3Hv6JiaFNbNzbeTdvJb1VykhpoVSGpHs5pLeRSUbVako1XjJIyP+zZtPQhsH0/RX0alGlapYfNlP9pAGJTRzS6X0ZlJy7zd1NiTCOrP8i/hDnbwb4GLvbR7f7cfjyTzPF5P0l+dXDPS0zXVLFSK2azZmk3/hbuhc8kppRNQl/jfb08Rq4KG8v+SglFKqiNw90NHMY8bVeO7NxvZGkibLwnSjjIou0vuZlIrHL+IqVHNr06LAEn5abYALX9295ahNCZXqGGh8vlgo424s6dKo0/Rd/h+Upk7Nuw/67vsxw3xbOJkqom/8OaZt+5mX4gpfRquklMqIqJNFHJvWscfSgPTaHh4abiqTdHPht2PPVJu/Y1FLM8a2fXt3pf/uXfc13/EPfYESSiyVsvBbDI3id/qaEIHTpKuFqK1ZSGmBy73NGSCsddNJO4PVdhfkby8v7mAnIERgP+JY7Gd/zFSKSmFEssnf/vfbSA9LlgCAwGnStXxNcu+OjqwuMmu9Nqtaq+yGn7NA2GDuffyht2ZlvDZnlowP4aGv0kwd6zqKX14+cOi/SM7Ws2vfTrXM1HZ0FB+fPIxKM69ex0ESeXHXwVsx5o16D2xpFBXyOs24am0XGxEoPj55+DJJbFezVkWIvHLw8H8vFRW8evTr6GwMAIqPD04d+ffBG7lF3c7f9mhgnXlsK3v3OHMDZvHhoZF3zt9PAWFlSxocFF61touNKOd5q+TnDyISxJVq1qqY68hb+ellyLMYztShrpMlCwCg+HD/7OnrIS9jqYVzsy7dWzqq35E64/7K7xdcTSAVOqw+c3BSffWnBBW8Z+7bFdO03dpHe9Zsm9ltSnVthyZzgD7XrsbRa1fdEEARG3rx9KXA5x/TGWnFmk07dm7mkLlixvvPj4hN9vmSlJe3zp698Sg6iVg4NerYrbWLad4/XKqpY11H84w3t44fvRIWI6javFe/No5q53zignavXrzyj2MP49mKVSuKo96K63jWyXM+Rvn+sN+EbdH15x4a65L55xPVaeBmoDj13/X3ynp25WWvWDeUUGKpFHIPQnZ1kpNAUH38nn3jG2S9tYi4Wu9NYTnfIbI702sJhHV+PnNiqocpAwCsw7gLCefGVGEZ8377k7OWIAYdfru1c4SbcVbtK2P3n6/FPt49xsOczXpI4vrD2cw7maRnb0B266eaaqlJTHvvSVJ/nqafHV2ZZe1Gncn968/4U6McWMasw+/PFZQqos8v6OZswmafWSAG1bqvvZdTuyLuwABbBli7/nvfat5F4F7/1taAEIMOf2g/NFq0q3H00miC/+8DapsyaidCiLhy+1+uxnKU0gJHhFJKqTzyyDRvO7VzKURYqfW8Szm/4ZTdmV5LIHD1O3Vppa+zUdZyjHmLpfdyftP5YXMXQyKu4N7r5+137y5tKgRhw1/ynllIujDeScBWG3NG/SSN7Iafs4C1++40/iZXo3Lxc2/u5a/eIiKoUtPZ1My108ipfmN7ulsJCBCTtuufZy3z7o8OEsasRffW1tLqbUdO9Rs9Zt291PBlTYQgbLbyuYJS7t0f7SWErdCwubOhSXWfgT/8OL6bqzEBxsS5tr1IYOrcZvDEaZP7eViyhJj13p1IKaWKnA2knfmxab3qlkJChJbV69bz6Ln2oVz9ecpFrmklApHPutdqH21Z4DwPCRHXn30nndKEK9MbGBPCGNk36zVqyowZk4e0cZIyROg86VLmpyl+d29zhgjd5z3g3SWW35lRWwACF7+ChybrA1Rwu5pHL3Jbr0osIQJLt84jJv88e6bfaF+PCkJCBE6TrlJKCxwRSrl3x0a7SAgQoU39biP9Zkz73re+lYAAW7Hv7szyQty7PzpIiNChtouUMbRv6jti0k+T+jYwZ4CxHnQ4+x3w9tbxMw/eySilNGlvXzOSP4gVT3/1MWYMW6x8nCs3FM9XNheCuMMfH7R6q+mdchEQKUcGWzNA2Irf/PYw86f96WFr25oxRNTq18xl0s+MsmMJI7BoseBG9n3MEvf2NSOsw7iL6ZTS9DPf2bEAxKD2yL3hqu+mlKNDbRgAxsRzyoko1UdSdmd6LQGI2vwWzeXdAOWif28rIUL3+cFyjQ2cGlmJzV6YUkoVEX92NmfYqiOOx1GaduMnNyFj4jHxWKRaieurU2sLGasBB5MopTT90vhqLAjrzLrHf8isCFvcUAis/biChyaSo1SrdjWOnvz+kpaWYqHjkP0vc3qTdn2KswBE7Teq/lvAiMQdH2nPEsasyYzzb7M+tulh6ztaMUTcYuUzRXbTAMSg1rBtIZn3pZIHz3cXQs4fV53s1jRXATHo9Ffu4p2y29NrCRmz7lvf5d7z4t5taCcCYZNlT/FKhibl4SqG4klgcIKSseq27I+xbpmHpeKaQwe1MgAu6pnq/1xEUPAHDgybz948q6lZ5ooZoQHBySBx86gnBuBeBAR/4IjEc/rO3791Vt1vQJaQkEqJ2GPalhXfVFHtLStjYuKVjFmVKuZMng0AZAT4h2QwNh6NnAUaGgCBq6sjo3z77ElC5jWG+DO/LPn3k2n7mXM6m0PskbVbwqhDt9HdTCJuXskSlFGpuil8Cg+NVABAWkTkWyWRONeuyX8KiPvwPpYCIzUteGheyAG0alfj6Anq/Xw1Jjn+wV99qmb1hkt++/xNEiUS08zbtHx2RLjIHb/ujaIWHZfv+qVthaz5CuKaI8Z3tSXykKAH8uymibjBj9v+GFI7s1yXMik5hRKJlU3+l6+MCQyK5ARO7u4W6m/RjLv7Dj9RmPj07Gqb552r5DgAIIW8fzcqiA6dpPwUGPhMwTp8+0Nf9dNMEqmxmIAi8/pValBguIKx6Pn9MOfsmTPK2MCgSE7g6u5uCgDJQYHhCmLSaezYulmzZmQPAh6mgYHPsOHZF+S4F4EPYqigab16orwbAMUT/wexVNK+kYdYUwPAVnKtYUFuvwh/ogBbEcj8187bGSWoP2fhMAcWki4euxCnVMTsHNN2Z75XKKwklwGAMik5VUmJsZkp/w+euVd3A15xRFzdpeChUQBo1a7G0QMA2aurO/7acfpmWNTH+MSk5MSEmJhP6RwFYf2arlDgiCg//nv6TipTqf+EgdVyvR6BlbUZQyPTUrmspom089ix7tmTmZRxwcEvOUHN2m75X39GYEBIBjGt55ErQxWPL1yN5EQtfHzy3mBKGRP7iQIxNjHBiChWuhMQsvv+IenE1qdjk1y1Wt69fJVMGYcKAACQ8TDwYTJIu37TXu0NkhEUGJpBzOo0cBYAZIQEhKSApFX79lZZHyXujX/QK07g3rpNhexPV1JAYLiCtXf3rMgApKtvACAxIDBcIXBt2MhcUwMAIHR1cWS5+0+eJEML04itc9bdV1QdvnCypxhAEf4gNJmyVi4NnS3zv1OF9d3sGADGyMiAITQ1MYm3+CT3ZP9hfzlImnq3LHhobFnt2tU4esm3FnfpNu96DEcBAAgjMrasWKOJY8KdoDcW9T1doMARkYc9DJeBoVfLJrnrhkJaZMRbJWNuYSnIalri3amT2jd/RoD/wwxiUc/TOV+PFU8DHsRSQTNPj1z3nEq+fz9cwdo38Mi7/wCKiMhXHGNRuYqJDu0Tlwc6ExDc68DgaI6tW6WqepeUb8/+GygnlnU9AACUMUFBkZywYbNmJmorPg94EEMFzTzcJQDKj4FBLzmBS+PGOW+hNH//UI6t7NnYIfsLLuOBf3AaGNX1rCPKswEAWdC94HTG1qNRDYGGBgAA2MquNczIvZfPnmXEv1+89HyiaYflczqaAwBwCXGJSpC0nHvh0AD+6cfGtWrZs6ef+V+7nf5tGw13XVN+PL584z0ZMes25Fv7gofGSaBVu5pGT/Fw7aRfrscZug2YOXNUp4a1qle1MRZAxs0f67QKEtVtqKrF8fkRyYiPS6CMiZV1ntlMny6dvp5IRZ4N6gpB+S4oKJITuDRS+7OA4ql/UAwVtfT0yD+tPCkwSJUEFdQ/74pXEa8zKOPg5JT3bat4GvQwngqb1817SRR9IZ3J27TAwDAOaNKnT2qzB1PvrN9wKYWp3LWvDwBARlBQmJyt0sDLTm1fNiko6ImCrVrfvQIDkBEYGCYnpnXV9kwzHvo/SKIGdb3qZe/bcm/8g6IUAlcPD+O8GwDulf/9aKWkfiNPsaYGAABA6OLiyCqjoyLv/7Zo1ythg4kLh2XWr2ZNzU0YmhH59Ln6nD4u4vCinxasOxKcWQBG5N69s6OAe7ln2V+P8xezSQneMGLCztdKgwY/zB5QkSl4aAy1a1fD6CnjblwPlrEuY//aOqOfdz1HG2MBAMSf3bz/uYJ1dHe31GJEiKGhIVHGv4pKUJ/2KXvw28rD76lh0+5dKjKqpnP/WQAS/QPCFWw1Dw+rfG9CmSrA63jk/rwrExI+UWJoaZV3N0EZfeVamEJQq4V3JZ15Q5cTujKeGaEBwUlK4F4c3nAwUvUmV7w8MmXUuhCFtNnEye2NAYB7HvgghhrW9aqr9rbJeBjwMBUM6rjXEQEongQEx1GBm9qeqfJjQEAEJ3Bx98j53kwPCAjl2Ar1PR3YPBsASAsMesSx9rWzTqTlfR4AgK3q6iSF5PB/Zv8eILcfvHBy9negoFYTLytG/uDvhVn1ppRJYbsn9Bo+f9XSrQHpWb0SN5no18ES4i9O/6bfiguR2YX3uFj/f35o127KqWhq4b3o75+9xFoOjRbtaho9RiAUMKCMe/bkY+bRjuLt1WUDx+14zRGJi1stbUZE2KBxA0NIu7xuwZm3mRv59GDT8D6LbqcKHAf/ONiByWxaUNvdXW13SRZ070E6kdbzdMv3pc9FB9x/zQlcPT2Mcz1OOU5JiVCY9+aAylfHj91JF9Tt3rtkZn3rtRK6rKKi9WVO7u3G9hLCVqpV04IRmDo17dS1Y2NHE5YQQcUuG7LmAsXv8DUhQq9cM2e4l2u9RUTouTBEQSmN/aebMRE4T7mec6Ev5ehQG4apOPJkzmwc2e3ptQTEsPOmD/k2QBVhvzQUAhHZeXUfNGnLfVne51UUIQs9hQAAjMU3m17muuCW7r+woTEBwppWa9y+S4cmNcyFBAhr23ZVYK67snNRh0bVMiQAQIRWzo3bftOtY8u6lQwYAkCEVbqsup11GVKrodGiXU2jRxXP1voYEyBC69o+3Xp08alnZ8CwptaWIsLYDj+ept2IJF6cVFNMgAgtXFp26dquUQ1LIQFgTDxnXI7LaVpQfaL6NG1F+NLGQhA2X/k8/3XJ5AP9LTRVIpDmjZgfAAAgAElEQVTfm1VHSKS99+S+v7384SIvEWPaYWOkrsxL1z1lfR5E+unv7FjGrO+ex8cnN7QQEFB9cLxGb3uY/WaQXZtcQ5B35kzK0SHW2Z//9MsTqrHEtNeunDl28sA59YRE0n5jzoxFLnpDOwnJKleVawOU0sQLU1SfWxA4+92Q5XteJflAP3MGiIHn/KB8PxSQRx6d1rqqYda8RGJQxXvirlANP0jkYm7/+UNHFzNBzsRHkXWdzhP/uq1eQ0KbodGiXY2jRymVhW0Z6JI939Sgamu/vcFXp9cSEEn7jaq5BlqMSHr43omtKmc1TRhjxzbjN92L59SaJtIe2+LU2k3Y1cuUsI4/XM4/9VF2Z0bt7ADPNWDvNrYTE1Hr9dHqSRB/YmQVVug88bLG33wiSmmZDwhF2C9eQhA2W/FMQSkX9/ja8QOHTt+J/Ep/8eTI2yf3Hzx5/XFM0SfdyD+EXTt5cN/BU/89jv38D4i4pDcPb54/euDgyUt3wj/ki5tCDo327aqRvQu+cHjfgeNXw2I0r6PViMhjHl0/fejgsYt3n2nfdOHIrk3OVdmPUioLWuBlwFYedPA97j58RhkPiISdPU0I6zD+Is6kzwuHRl3SwQFWjNr+oOLx/9qYCR2HH+b5SQvKVLZnUmY8DAhJBYO6nvXxjkB54NDkYuzTxdtMEXznXjoAgOLxhh8W3nOatu1X3wo68UYuh3RhXJUfg+6/5ATO6hcaEADg0ORj0WVgV5vYa+fvyiDp1qJhc8N91u1d0Nz0a3er/NKJy0KGbeYcPJ5m26CWTvRGp+DQ5GHadfHRo/cVDqBIFDSec3KId7PqODQlSBcGlzGv5fNNra/dC52EQ5MPa+fV2Q4AALw62X3lvugBXTjEQAjpKAwIhBAvDAiEEC8MCIQQLwwIhBAvXbiKUTyw9F6pKK3Se1xq3MdEMLOxkHzmOwxL75W8EpraqYKl9wqCpffySQj8e3xbZzMhASCMoV3Db+cefaZpnjmW3iuEsj3Vuhhg6b0SVkql95LvLOrSetTvF558ogYW1qbC9Oi7+xb1aT1y35s8Q4Gl90pJCSWWCpbe44el9/KThyxpYkiIqJrvqivRckppctje8R6mDAhcp91UaxhL7xUWlt7D0nvZA1RmS+8pQvbv909lHMZs3OrXyhQAwKjmt2s23L/SbNmTG9ejuCZOLACW3itdJZRYKlh6L2szWHpPi9J7ssBN4wf4Dvr1nvprUlUyEzZd/ixzbwFL7xVBGb8fhAqW3lOjl6X3NI1D2MqWxiTnJjFYeq9IykVAYOk9Nfpeek/V7ocL0zykhLHs/EdmDGLpvaIpD1cxsPSeOj0vvQcAySFbR/r0WBXEek7ZsXmUIwuApfdKnw6dpMTSe2r0vPReatjOyYN++Pt+hlOf9bv/GueReUcYLL1X6nQnILD0nhp9Lr0ne35wWv/Rv/unOXRfsX3z1GaWOWtg6b1SpzMBgaX31F613pbeU8b9t+zbvvMvxtl1XX58s19z61wfdyy9V/p0Jm+x9F4W/S29l+K/slf3OZfSPX48cuPwtDzpAFh676soobOmKtpfxZDdnl5LAEAE9v13RahOlcsjD4+ubUCISctVoaqqVyELPYXExHdHvPqK1yY7CYjUd3s8pVT+YJ67kIi81+ZUu+Jer28tJkKPBQ9zztGrKjdVGXMuPe8GKE3a960ZI6g1/bZMUwOZUg4NtGCEHp3a2TKsw6hTas8kHx9ekQG2Su8tj1RXULjE0F3fNzBhiLj+rDvq1z26WDJAJNV9l5+PyC6Ao4i5t3VCExsBAcbSZ9X9NK2HRot2NY5e7ObOBoSx7bntdebJf3n0laWd7AQEiLHvjkRtRoR7u6mLlBBx7bEnozM3knD/r/41xIQIq39/JiG7aVGrNeqlr9IvjK3KMub99mfN0ki7ObOehIhqjj3FV+Ii/fIPjixjPeRoWu7Hucj1bYyI0CPnIgvKo6xf5sTSe/peeo/7sKu3FQOEEQhFeRg1XKCaL4Kl94qsrAcElt5TLau/pfcS9/ez0Hx4wJj3O6B6FVh6r8jKeEBg6T0svadVR7H0XhGV8YDA+nK8cGjUYem9IirbMymxvhwvHJpcsPReadOFccX6crxwaPLA0nulTCcmSmF9OV44NHlg6b3SpQuDi/XleOHQ5IOl90qVLhxiIIR0FAYEQogXBgRCiBcGBEKIFwYEQogXBgRCiBcGBEKIFwYEQogXBgRCiBcGBEKIFwYEQogXBgRCiBcGBEKIFwYEQogXBgRCiBcGBEKIFwYEQogXBgRCiBcGBEKIFwYEQogXBgRCiBcGBEKIFwYEQogXBgRCiBcGBEKIFwYEQohXaZTeCw8PDw8PL4WGEEIavXr1qmgrlkZAnDlz5syZM6XQEEKoeOEhBkKIV8nuQWzevFmhUJRoE6jIduzYcePGjWXLlpmZmX3tvqBS0qRJk0ItTyilJdQVpMsePXpUt25dhUIxcuTIzZs3f+3uIB2FAaGnunTpcvr0adW/g4KC6tev/3X7g3QTnoPQR+fOnctOBwCYOnXqV+wM0mUYEHqH4zg/Pz8AMDIy6tatGwBcvnz52LFjX7tfSBdhQOidzZs3h4SEAMC0adP+/vtvU1NT1b/lcvnX7hrSOez8+fO/dh9Q6UlMTOzZs2dKSoqdnd3evXtNTU0FAsH58+fj4uLMzMwKe4oblXu4B6FfFi9e/OHDBwBYunSpoaEhAEycONHJyQkAFi1aFBMT85X7h3QMBoQeiYiI+N///gcAXl5egwYNUj0oEolWrFgBAAkJCbg7ifLAy5x6pG/fvgcOHACA69evN2/eXP0pHx+fK1euCASC4ODgmjVrfqUOIp2DexD64r///lOlQ+/evfOkAwCsWbOGYRiFQqG6wIGQCu5B6AVKacOGDf39/cVi8aNHj6pVq5Z/mREjRmzduhUAzp4926FDh1LvI9JFuAehF3bu3Onv7w8AkyZN0pgOALB48WJjY2MAmDp1Ksdxpdo/pKvwMmf5l5qa6uvrm5iYaG1tffDgQbFYrHExqVRKKb106dLHjx9tbW29vLxKuZ9IB+EeRPm3atWq169fA8DChQtNTEw+s6Sfn1/VqlUBYN68eQkJCaXUP6TDMCDKuejoaNVVTDc3t1GjRn1+YYlEsmzZMgCIiYn55ZdfSqN/SLfhScpybtiwYdu2bQOAf//9t3379tqs0qRJk9u3b4tEotDQUNUcKqS3cA+iPAsICNi+fTsAdOrUSct0AIBff/2VEJKRkTFt2rSS7B0qAzAgyjM/Pz9KqUAgWL16tfZrNW7cuH///gBw9OjRK1eulFjvUBmAAVFuHTly5OrVqwAwZsyYwk6OXLZsmYGBAQBMmTJFqVSWSP9QWYCXOcunjIyMHj16xMfHm5mZHTlyRPW7LO2Zmpqmp6dfu3bt3bt39vb2DRo0KKF+Ih2HexDl0/r1658/fw4As2fPtrS0LMIWZsyYUbFiRQCYNWtWcnJyMfcPlRG4B1EOxcTE9O7dWyaTOTk5bdu2jWXZImxEJBJZWFgcO3YsOTmZENKmTZti7yfSfbgHUQ7Nnz//06dPALBixQqRSFTk7QwbNszd3R0A1qxZ8/Lly2LrHyo7cB5EeZN9P3tvb+/Lly9/4dauXbvWqlUrAOjXr9+ePXuKo4OoLME9iPLGz89PoVAwDLNmzZov31rLli179uwJAHv37r1169aXbxCVLRgQ5cq///6rKoM6ZMiQ4rr0sHLlStVxypQpU3B/U9/gScryg+M4X1/fjx8/GhkZHTt2TCqVFstmzc3Nk5KSbt68+ebNmxo1atStW7dYNovKBNyDKD82bdoUGhoKANOnT1ddoSwus2fPtra2BoCff/45LS2tGLeMdBzuQZQTnz596tmzZ2pqauXKlffs2SMUCotx42KxWCqVnjp1KjExUSwWq05bIn2AexDlxOLFiz9+/AgAS5cuVc2SLl6jRo1yc3MDgOXLl0dHRxf79pFuwsuc5UFERETNmjVlMpmXl9edO3cIISXRyvnz51U/CR06dOg///xTEk0gXYN7EOXBTz/9JJPJIOuX2iXUSrt27bp06QIA27dvDwgIKKFWkE7BPYgy7/r16y1btgSAPn367N+/v0Tbevz4cZ06dRQKRYsWLa5du1aibSFdgHsQZRuldOrUqQAgFouXL19e0s25urqOHTsWAK5fv37w4MGSbg59dRgQZVv2/ewnT57Mdz/74jV//nxzc3NQO65B5Rhe5izDUlNTe/TokZSUZGNjc+DAAb772RcvAwMDiURy9uzZhIQEqVTarFmzUmgUfS24B1GGrVy58s2bN6DF/eyL17hx45ydnUGtVjgqr/AkZVkVHR1do0aN1NRUNze3+/fvF+2mD0V24sSJbt26AcDo0aP//PPP0mwalSYMiLJqyJAhO3bsAIAtW7a0a9eu9DvQrl27x48fA0BwcHCdOnVKvwOoFGBAlEkBAQFeXl468rdr27bt+fPnv3YvUInAcxBlkk798vrChQsnT5782r1AJULwtTuACi0hIaFfv379+vX7wu3s3r37xo0bRkZGqtp8X4Jh8JumfMJDDP01bty4jRs3mpubx8XFfe2+IB2Fwa+/VBc+OI772h1BugsDQn+pjgswINBnYEDoL9yDQAXCgNBfqoDA0pvoMzAg9BceYqACYUDoLzzEQAXCgNBf2T/fwEvdiA8GhP7KDgjciUB8MCD0V/b0RwwIxAcDQn9l70HghQzEBwNCf+EhBioQBoT+wkMMVCAMCP2FexCoQBgQ+gvPQaACYUDoLzzEQAXCgNBfeIiBCoQBob/wEAMVCANCf+EhBioQBoT+wkMMVCAMCP2FhxioQBgQ+gv3IFCBMCD0F56DQAXCgNBfuAeBCoQBob/wHAQqEAaE/sJDDFQgDAj9hYcYqEAYEPoLDzFQgTAg9BceYqACYUDoLzzEQAXCgNBfeIiBCoQBob/wEAMVCANCf+EhBioQBoT+woBABcKA0F/Zhxh4DgLxwYDQX7gHgQqEAaG/MCBQgTAg9Bde5kQFwoDQX3iZExUIA0J/4SEGKhAGhP7CQwxUIEIpLfLKq1atmjt3bjH2BpUmpVIpk8kAQCgUCgSCr90dVBrWrVv33Xffab/8F70t5HJ5Wlral2wB6QK5XC6Xy792L1BpKOwfuni+N0aMGCGVSotlUwihYvfq1avDhw8XYcXiCYi1a9diQCCks4ocEHiSEiHECwMCIcQLAwIhxAsDAiHECwMCIcQLAwIhxAsDAiHECwMCIcQLAwIhxAsDAiHECwMCIcQLAwIhxAsDAiHECwMCIcQLAwIhxAsDAiHECwMCIcQLAwIhxAsDAiHECwMCIcQLqyEUF+7TiztXboa9+phEjazs6zRv1bCaKfu1O/U1FTwgGfFv3sTLKBBD66oVpHo9WLqLfoElS5aoNpKYmPgl2ynjuNi7m8Z5VzVgSM6wEkbq3GXm4efpX7tzX0D+9vrGxTseygu9opYDIg+cXVcIACBqvf4NV4wdR/lERUWp/g4bNmwo1Ip4iPGFlK+OTmjdZsyGK1FpSrUaZVSZ9OTU0r4tem8IlX29zhUZ9+rCsv4etbx/2BoQX8iyfOVzQPQWBsQX4R6vHzb8zwdJSiCspfug+X8fvXj18ol/FgyoZ8YAUEX0qZ9/2Pik7JXGTfx3zfy9wfGF73h5HRC9hecgvsSnk8tXXk1QAjCmLRb9e/pnDyMAAGjp/U235tbNO60Ly6CJ1//afG/yisY5K3FxIedOXQuJfJ8msq7u2aaTd00LtcPvlDehj9+mUWJQsWZtO9GH+6eOnnvwRmZcrWGnHu1qmuXN84wPwRfOXH4QEZsuNK/q1rxTR69K4synlAmRD5/HyClrUrW2g+Lu3l2XX0tc2/b1bWgryOxG2PkT5wIiEsCkslvLzh08K0kyV4x9HhTyOpkCANCMmGdB/obGFWvWtjOEz69X5AHJ/5ounr16/8WHFI41tKxSs0n7Do2qGKovwcWFXjpzJej5hyQFa2xTrV6rjm3rWOd5J2uzDNLClxzY6Ps5iMQD/a0YAABB9YlX0nI/x73ZObZT79EzVmw+6v8260H5yxMzOzgaqx2bE9aszoD1d+KzlpDd+NFFAACCmn77d431MGezFiXCim2X3U5SayH+9to+Lia5jvMNq/dYfStzW2lHBlsyACDynvW/gY4iAgDAmPXeHU8plT3fN87LSqDWDaMavqtvqtaM39xZDLkIas+4I6MFrVfoAdFwDkIWvn24m6n6awIgBo49/uef9crlT3eNrGuWawnCmNQe+s9jWXZT2iyjZ4p8DgIDouhkt6a5CgAAGOvBR1IKXJyLPTuhloSo3q6Gtk6ujlZi1XuYMW+55J5qA1kBwUitLMWEMbSt7lzZNPMTSQxbrn6qUG1M8XRjZ2sGAIAQiZWjS3UbQ4YAABFUGXTgHUdzAoIxMjbK3PEgJt22vOdo3NkJrqqWicjCwcnORKhKD+vOG58qPhMQBaxX6AHJFxDykGXNjAkAEMbAunrNWk4VjFUBSQxarX6moJQqHq/xlqqWMLR2rOnmWtVM1Qli1HjxA9XpVG2W0TsYEF9ByoF+ZgQAQOg2816BbzzZ7RluQgIAjFnj6efeyCml6RGHxtQxJABADJsuC1XQnIAAYMyazrwQLadU8e74dzUEBACIUY/tCZRSShOPD7djAYAInQbveZ5OKZW9PDjcSUAAiMhjQbA8JyAAgDF18504fcqgjmN2vOPkIYsbiQkAMNbtVwclUsrF/regpTkDAGyV704nUy7hTfi9pd4iAADWYcTekMfhER/SaYHrFXZA8gWEPGRNx6oWBixr883Gx+mUUqp4/Y+vFQMAjFn/g2mUcm9+ayMmAETaYcNLVVQm3l3Y3IQRGFrYt18ZLKfaLaN/MCC+gpSdvgaqz0ODufcLet+lXxxnr/pI158blLOnm3xxfHVB1meKqgUEW3nUmbTsdcc7sAAAIu+1LzlKafrpkZVYACBiH9UDlFKqiLzw9x/bDpy66h+RwKkFBJG2+y0i+yqi4vHSxkIAAIHLjzey+pF+aYIjCwBslTHn0imlNG5TJzEAgMBp8jWZ1usVakB4L3OmJySkcJRSeWz41d0z29iyAADib7YkUMq93dBOFVJmdftMX3fg2uNYGZUnxSepNabNMvqnyAGBp22KjjEyNiSQRoEmJiQUcDGQe+1/P5oDAKZKC5+aouzHjRq3bmSy8XmcUvEsMAjAM2fj9s7Owsx/s+bmpgwAB1QhV1AA5bvwZzEcADAVa9axzTpxydq3GTFGQ9OC+h06V8k+uyl//OgZBwBAzJmP1y5cUD36SWTBwAuOe/8o5K2ynYOGa1varFehEAPCJ+nJ5T07Dv575dbd+0/eJiuyL5RSSgEY6469WptfPBOnTAg+sHzigeVEILVza9KmS5/howe3qioG0G4ZpDUMiKITVK/uwEKsErg3j8Jila0q5vpcJZ+Y2mNTaquefb/t0crZjCanpAEAAGNibqY+Z5A1NZUSiAPKpSSpr04MjIyyz7KxbK5phjQ1JZUCABCRRJzrhJ4GRGRVwSZndWVKchoFAJDfXtGj3Yo8C9O4mBglaAoIbdarXIgB0TRvUvFk68BO4w68SM+MBSI0q2iW8e5jKgVgGBYA2Gqjth6IGTth1YnHCQoKQBVJr++f23b//I7fNkzYefrXbyowWi2DtIUBUXQClzYtHX4JeKqgspv7974YPcVJ7XMYfXDLtssn4i6e2PT7pUPvtnezslQdnitj3n/k1MY948PHBCUAEJGFVa6tM4T3o09MTaWqjSXExRX0TU3ERoZqn0bGxNSYQAologZDfxlcN8/fn7H0qqz546PNeoUZkB75m4g9MPungy/SKRFVbTtu6siu3s0bur5d6tl0SYgcgGFU/WJsW886HDIp4ubJoyfPX7723+2gZzHpSqr8dH/jzPWDOy72FGi3DNIOhukXEDUeOdzLkADQlGuLhs4++yYj84lPAetHzzoRrwQAtkr3AW0BGGuPBg4CAODeXTx+IzlrC8rYsyf+S6IARFSvKf/UgDwYS7falVkAUMbduxmc1ajiwWKfai71G7fuMed0nNrSgly7H8Labi5CAkCVGRVajZ+iMrap4etXMSlKiZWjfda1EdXiNGs2pFbrFWJA8pM9uHEvXglADDos2PfrpG9b17Mz5t6/i1PmdCcp9PSW9cvnT5+6OtCuz5Rlfx+/Gf7uQ/CqdqpJWBHhTzO0WwZp70vOfOj5SUpKKU25vaCxqSplCSu192rv26tH6zo2oszPF2Pb/e8XqlPp8qD5HhICAETs1Gfd9TfpXHLE+SWd7QQEABjb3juiOap2klLUfuP7rBN38gfz3IUAAMLmK58rKKU0/T8/l6xLIj8efZqkSHtzbVkHW9WJS69F6lcxGJuhx9SnJCierfUxJgDAmHqM3Rn4Pi0t6vzMpqYMABCTDhsiOUopTd7ha0gAgLHw/edtemxUdKJ26xVmQPKepJTdzDo/W6nr/+7GyFJe3/hrRF1j1Yrijn/FUJpy/nvVmV7WrvPyyy9TOCqPCzs0vr6EAIDAxe+GTLtl9A9exfhquPeX57euKMx/PEAEVs1nXnifc3o+8eb8pllzIQlhmKyZPMTAZeTB15kzhbQLCMq9Pz7GRZK1AbVtiZzHnorJNQ8iT0BQmvzfLPes8xuEMFnHMkTaaP6dzCVlN/ycBdkLCCqNPJWu1XqFGpC8VzFSrkx2FuZ+SURsaiohACCsNydITqkiYltvO0H2MgIhm7WrkzMbQ5tl9A4GxFfFxfhvnzO0fQMHa6lYKDQws6vVos/UDVde5/uySgjaOrGDi1n2p4cILer2XXoxOvtDo21AUEoVUafmdqkhzZ4wSBgj+zZ+B59lNsofEJQq3pxb2MPVNGeaJiOt0XXhhbc5YSZ/9KevfdYJUGLYbWu8dusVZkDyX+ZMuLm8i3127Ens288+GbixkzEBIKJGi0MppZSmhO6a6GNvpD4bVWTjMWT97bicXmizjH4pckAQStV+cldIS5cunTlzpiogpFJpkbejb1LfBAcEP3ubKrJ19mxUp4Kk4DV4KZNfBt6+HxErE1o41PXycNR4dYBv1aigO4HPPqQLzR3qN/FyzHf3ipSou9fuRqaIrZ08GtWvZKj1el8m/d2DG7fD44hNzSZN3WxEmhfiPkUGBQRHfEilEvMqru7urtb5L19qs4zeePXqVdWqVQFgw4YNY8eO1X5FDAiEyr8iBwRexUAI8cKAQAjxwoBACPHCgEAI8cKAQAjxwoBACPHCgEAI8cKAQAjxwoBACPHCgEAI8cKAQAjxwoBACPHCgEAI8cKAQAjxwoBACPHCgEAI8cKAQAjxwoBACPH6ohIiiYmJqn8EBAQYGRkVR38QQsXv/fv3qn8kJSV9fsk8viggAgMDVf/w8fH5ku0ghEpHUFBQoZbHQwyEEK8v2oMQCDJX37ZtG97VGiGd9erVq0mTJkG+OtAF+qKAaN68+enTpwHA19cXAwIhnZUdEM2aNSvUiniIgRDihQGBEOKFAYEQ4oUBgRDihQGBEOKFAYEQ4oUBgRDihQGBEOKFAYEQ4oUBgRDihQGBEOKFAYEQ4oUBgRDihQGBEOKFAYEQ4oUBgRDihQGBEOKFAYEQ4oUBgRDihQGBEOKFAYEQ4vVFd7UuHakfXr5PAWNbe2vDEtpE5tPV7K2L3kteGR9D/7vq/zQ6NoVIK9XwbNGygV2RX0epKYYxLwiX9O5VoriSnblI05OR//554H2DaUOagOLJiQ3Hk5qMGuBlWlJdQZ9Bv8CSJUtUG0lMTPyS7XxW2pHBlgxTceSptC/fRNYDive3Nv2yNVCe++kv7moessizS/q7WwmJ2nATobmb75zDT4v+YkpE7gEpjjEvgPzxurbmQref78o1PfloXVsL8w6/v6CUUpp0eZKLQY3Rp2K4kuqMHoiKilK9ATds2FCoFXX/EIMYWdk7OFSxMiQFL1vQJlT/lV2Y2Kjl93/eieVyP10Mnc2RHPC/Xi26ztoTlFbZe/is1Zt27tnx5+o537WxV4Qd/aVP47ZzL8cqi7XBL5B3QIpjzD9H+fHizwNnXozX/Cz38p9pC65XGjN/RDUAADBuOX1Wx4R/pi66llwivUGf9SWxVCp7EMUv7fBAC4at8v359JJqgftwbKSjkDAm9UfveZz7W1gWeXyKlxkDbMWe217qyHdiyQ+ImuSwHaPqmTAAABr3IBJOfWcvMO++NVptcGS3Z9QWGjZdFqoohQ6WS2VgD0KZEPkgIOjJBwUAKJKinzx68uZTRp5F4l/cDwh6FsuBMvntk8cRselZ6wUEv/ykzNnKs1gOAJSpHyPCQh6/SeJyNpGREPU49FFUgiJf0wHBLz8BKBMiHgRFflICKOKeB/kHhb/PyH4aALjYZ0H+2Y2pbSHueVBAwMMo9crIytSPkY9CH734kJJ3VyDDf+3s7RGcVZc1Rzb0c5Hkek5k33XlgTVdbejbY/OWXkzRdmi0aVfj8OXgkt9HPH4YHPLkzSe10dE0IHnGXG3hlHfPw0IeRX5MzfuE6hV8VAAAZCS8Cg99FBkny9vzjIhTC3t5NR66+Yltl051hJpeHPd866o9r627DvOtqPbWFHkOHeTJ3fn9139xJ6K0fUksFWoPIu3IYEtG5LPqys5xzSpJCAAQRurUbuI/97PXTdnbR0rE7X/ZPtHTXECACCzarQtPznU8nHZksCUj7vj7vUM/dXAyYQkAIRI77x+PRcljb68b7G4jIgBAhFbuI7aGpqs3rToHkXKgv5nafrOw+crnCrVzEHL/WXWFROi1KCTXd1X65R+qC4jpN5vfUkopVby5sHxgQztDRvUqJBU8vl18LkqutrQjCwLnKdf4vpFld2bUFgBjNeBAopZDo027Gm7O7DcAAA/eSURBVIePUiqPOrd0UDNHs6yTIURg4ugzbuuDZEo1D4iGcxDJj/bP6FbHSkRUTRtU9Oi76HRkdtOqV9B2vf+JOV1dVQ0RgWmN9j8eei7L7j4X/VsbsaSy94QtgXHxW74Ra9iDkAfNqS9kKgw7lpxnxBTPVjQTMea+2z/oyF5XGVPkPYhSDgjWpnIlsbFz1x9Xb97y+7whnlYsYW27/BGu+jim7O0jJYyxVGrm1vunJUtmjBz/Z5g8LX9AsJUcqhiY1e4+Yf7y5bOHeFqyhLFo2qW5tbRGx7HzViyfM7JZRSEhhs2Wh6k1rQoIRdSNg9t/aiUljFWHuTt2773wKDnXSUpF6C8NRUToPu+B2js37dz39ixj0XtXDKWUi9o/zFlCGKlzh1Gzl61aPnd8t9pmLBE7Dd0XxVFKqSJkoacQmArDj/Of4pNdneQkALbahMvp2g2NFu1qHj6aeGlKLTFhTFy/GTtn2Zo1K+b94FvPgiVEWHv6LZnmAckbEOn3V7exYgkjde44Zs7yVUt/HuFtb0CIsGqfrc8Uan9cO6dqhgb2PsOnL1q2aErvehYsIUbNluccFySHXL78XPXRT9AYEPKgufWFxNR3R1y+EZMHzq4nJGY9d8QW+E5D+ZWVgAAidB514l3Wt0Dy3fmNjQlTcfDheEoz3+HAmHfd/JrLvV7ugAAicZ95K0n1PPd6YwdjAiCo/t2JrK+XpNOjqrJE7LMuzyYy/5vnkDvXVQzF89WtDIiw3pzsU/o0+dRIO5apMPhwAqU07vAQO5Yxbb7wTs5LTnmwqo05w1YeeSKRUpp2YrgtA0KvRZ85YubebWgnAiLp8ne8dkOjRbsah4+L/qOjMWEr9d31JmdIky5PdBaAsMHczBTMdw4i15grXqxva0IY02YLbmc3zb0/N6muAWGsem5/y+W8AnG9H6/GZy0Tf3KkPQtCr1/CNAyAxoDgXq71ERFhw8VhGkYu5egQa4a1G3WGd1ARvzJwDgIAAIhR6ynzOttmtWrkNWlyFwt4f+bQpZTsRUSenbtU/Gy/iNCz/0gvY9V/GFsPd3sBCF2/HdPROnM1wwb1nVmqjPtY+B6yDn2+bWGkCDtyICjzSD3pwv7Tb8Gua//2pgAJZ3Ydj4YKvaZPbZhTzdyw7vcTu1nT6BMHLqUCKFOSUykQI6kx/zUAxtjYiCFUmZaafTT/+aHRot3MzeQZPkkLv82bfv9jfu9KOY8ZN2xUW0RoclKiFhdSlK+PHbqexFQdMP/HRtlNMzbt5s/xtYbYc/tOxWQ3LWwybEJzs6z/mrVs1UBClDFv3xXciIo89GE4B4YOTlU1lKgX16hhz3Ifw8O03RoqDqU8UUpQo1FTW/UPv7RB/RrsvoDw0EiuZ20AACDmVaqYfT63iNSheqWc95BIKAIgFSpXyV6LkYhFBEBZlAuJjF2vAW1nXjh59ID/fK/GIkj4d/+Z94zDhIGtjQAywoMfJVNlxmm/Rm4z1NeSxXyiSu7Jo9fQvaqBkQGB9PS0NMrbiDI5OVlJCWtkbJTV6c8MDfSsoUW7zqqxyT18jHmttt/WagvK1A9Pgh89ef78+ZNHD4NuX76YDqDktBkf+aPQpwqQNGjSKPecKZNmTesIdl99EvoEwCazaYfq6q9AaGwsISBX5Dph/Dmp0W9jlUwlGxtN70q2gq0VA8p30dpuDRWHUg4IYmJmmuvDT4yMDAhAelpq1qeJiCUGBVx+JxLDfFfoCcswxbM7xNh069/R4vjBY/vv/tK4efKZ/f/GMM7DBzQRAwBNSkymQAxMLExzvw4wdbepLnC2YgCEzjWqsRAT+eSpDFx4JiLKHz16wQFrX726QfYL4B8a7drNXCvv8CnfX1v70/Q1B+9GpyopACEicyf3qiYMpIJWaEpqKiUGxtI8Vx0YExNjhlBZWva1EiIUiXI1TQgAANU2ppXpaemUErFErPHvL5FICKEyLbuNikcpBwT9lJCgBPuc97jy48c4CmBuZV2YT3fJzN/JZt55QNeKB3acOHh7qcvLA+fj2boTBniIAACI1MSYAOs0dOu1ma4a9oMBAMCxrY/zvDuPLx6/mvxNJ2NNS8gCTp6P4hjrZj7u2RONPzM0WrariSJ4Ra+uM2+mV2oxfE6vFvVqudaqU8fZVr6ta4WRZ7XbAjE1kRL6MTY2BUD9ii334UMsRxkTCzPeVQuJkRhICNAMmeZLvDKZjFIiNtD4JCohpXwOQvH05n/Rat8o3Ksr158qBNW8GlUqzZ4UFDDG7QZ2q0Ij/z1+4fjhy4lCz779aquSVOTawE3KKB6eOx3Bqa+QcmvD1Ckzlx4MlQGAyGPo8KZGyld7Fv4aoOn7ThH+1/wtTzhhjf4j2hvlPMo/NFq2q0FGwO4ddxJZ5wl7/928YOLQnm0budoaMorwJxEKSpVKZfZuG/9YCN3ca0tA5n/xUq6Zj8r3Fy49VDBGNevU4F+3kAxsK5gzyriPHzUdlHDv3scqgdhULLbmkBZKOSBo6pWVP+18lvkVkRq2ecqq62ni+oOGNNL0k52SIhSKgKZ8SpDzLiFpMbBXdXh2bM66S4mSpv2+rZH1rW3acVjvqmza9WVjV99NyHxM+eH8nPHT1v7v94tvJQIAANb1+6WT3Q1T7izq0XfFjQ+5PtKfHmwa1m36hQTWYdDSn5qpfSV/fmi0alcTSgGAk8lyPnMJ99bM+vuRAkCekRUrnxsQxqb7kG9s4eOh2VP3vcj6bk8N2/LDonOJjF2vIR2L7zdUwlo1nQSQEvH0FZf/Sfmz5y85xsq5ZrE1h7RQ2ucgxNLEEyO96m7v0LQK9+L6uesvks1b/vL71Hql2Q9B1aqVWBp0cFzDqD+bf/fHxn4alhE16t+31rrFQcFg0ql/b7Wz6qYdFv8xOfDbNRdmtKy9v61PPWv5q4BLV0JiaYWOy9eOrp65oFHT+fs3v+s6asupGd61trfr3rmxawXDjJhn/ueOnwl8myGo3HnF/nW+uc5JFjA02rWb72XU792n3m+LAv/8tvnrnm1dTWXvHt3492IocXKxiXucGBsnBxDnH5BhdurbYGz6rvz90sMhm7cNdP9vY5tmTsaJj6+dvxWZKvWY8teSzsV2hAHAVm7exJG9ER4QkAQuebareBLwII4adWzesPjaQwUr5T0Ixqr378eXd7OMOLd377lwQYNBCw79d+rnhkYFr1mMBG7jlv/coYY08cnNS0cuPdS8HyGo379vAyFhzNoM6FFBfZQY6w4rL9/YO3dgE7N3Nw7t2HXsXlzFVsOXHLtxZIKbWG19x35/3bi+za9zDfrk7JaV837ymzZ76Z/HHipcuk7acMn/2GTPPGcnChoaLdvNQ+w15/ChRf0bWURf+Od/v/554FZctYHrrwRem+9jRlLuXFT9/qmgAWGq9Pzj+pWt03rUIo/O791x8GqUSZPhiw/eurKqo02xvoFE7j26OLJJty/dyHtopnx98UqoQtqqeyfL4mwQFehLZl8UYSZl5dFnS+MXQbok/cOjm2eP7Nt36PQ1/6cfNL16vR2a/OQPFniIWLuRp3LPtVY8X9NKwtoO2I/zKIumyBOlysANY8o6sbVrkw6uTb52N8oGgduoH7qs/+7YP8eXduyffWVLEbJ95y2u5tSJ3Sy+au/0kO7fDwLpFaZi/1nj66Wc+n1LePaZyoQz67Y8tOw5a7IX/7EUKhkYEEjHiDx+XD2uWuBvy47HAgCAImTj0v1p7eYv6WOL79ZSV3qHGKImU3cd6yuwd9d4HwC9hkOTm3GrBVt/Vfz9NAigLWSEB8a5Tf1r9kjHwkwQQ8Wk9AKCsa3f4Zv6pdZcWYJDk5eR15i1Xqp/imoPWfnX1+2NPsOdNoQQLwwIhBAvDAiEEC8MCIQQrzIwUQora5W+kq2sxaXGfYiXic1tLAx5rkxgZS2d8SXzN7Gy1mdhZa280iNOLurXuKqJQHXba2mVRv0WnoyQ5V0MK2sVu7JyT8oiwMpaJa50KmtxUXtGePvO3fcA6vX9YebcmRN6uynv75vn6z1090v1n3djZS2d8iWxhJW1eGBlrfxSzn9vzxJJ3ckXsncFuLfHRzkLCVt1zNmU7OWwslZJKAN7EFhZCwD0t7KW7O7xc6+Vhj4TZvhYZr3pmAqdp3/XUMBFX78ckvl6sbKWrvmSWMLKWoCVtdT+uJ+rrKWIuPzP72vWn3iaa2C5l2u9RSCoMfmaajGsrFVCykrhHKyspaKflbXyUTz91ceYMGY9d6ru84CVtUpKWQkIrKyV2Wl9r6xFKaWyRxs62zBE6DrlimqHAStrlZgycA4CALCyVhasrJXxYs/o7lPPxBh7zdi8oJXqxnpYWUv3YGWtvLCyVm4lUVkr+f6GoT2nHHkpafDD7qPzm2XlDlbW0j1YWSsfrKyVS3FX1lJEHZ/ed/jau4nW3vP27ZvdKqdiElbW0kFYWUsDrKylplgra6UEbxzcffLRl0LXwZsP/Tm0Zq5LwFhZSwdhZS1NsLJWjuKrrCUL+6N/54lHX5m2mHPiytY86QCAlbV0EVbW0ggra2UrrspaqbcWDZp68q1x0znHTy7w0VhPAytr6R6srIWVtUqjspby1Y5Fv91PA4Fp0pWZ3a/mfpKx6rJkp19DEVbW0kFfcnG1KIVzRu2+sHpIU0dzA4lJBZdWQxYeeZQzaS5lbx8pYR3GXUzPu16eiVK5aszI789tIARxhz8+5KwUv7mzGIR1ZuXZROaz3Pvzczs6W4hZwlgNPpKm+decqilTjLnvjvyT9xJD9s8d5F3LzkwiFIrN7Oq0HbH01It80ya5+KDtfl1qWqj9nJOIrOt2m7Tx+rtcF/q1GBpt2tU4fFT+8swvA5rVsDYSCkRSW+cmPf023Xwbt+9bS4atPPJUkqYB0TCTkou9989PvZrUsJGKRYYWVeq2G7n4cFhS3leQu/RP9oOU0uTdvaS8xzGs3XenVSvKbvg5C1i7kSdTaG5cxJpWYmLyzea3OJOyKMrKRCl9LB+FlbUKAStrlQysrKW7sLJWIWBlLR2j+/eDQHoFK2vpFgwIpGOwspYuwcpaOgCHJjesrKU7sLKWDsChyQsra+kK3GlDCPHCgEAI8cKAQAjxwoBACPHCgEAI8cKAQAjxwoBACPHCgEAI8cKAQAjxwoBACPHCgEAI8cKAQAjxwoBACPHCgEAI8cKAQAjxwoBACPHCgEAI8cKAQAjxwoBACPEqnntSnj59WiqVFsumEELF7tWrV0VbsXgCol8/TfUtEUJlHB5iIIR4EUppkVd+/fp1ZGRkMfYGIVSinJycKlSooP3yXxQQCKHyDQ8xEEK8MCAQQrwwIBBCvDAgEEK8MCAQQrwwIBBCvDAgEEK8MCAQQrwwIBBCvDAgEEK8MCAQQrwwIBBCvDAgEEK8MCAQQrwwIBBCvP4PwCq/WJ7RkcIAAAAASUVORK5CYII=;" vertex="1" parent="1">
          <mxGeometry x="150" y="60" width="192" height="370.91" as="geometry" />
        </mxCell>
        <mxCell id="kGa_pBdqIZK06uq2p0jP-2" value="" style="shape=image;verticalLabelPosition=bottom;labelBackgroundColor=default;verticalAlign=top;aspect=fixed;imageAspect=0;image=data:image/png,iVBORw0KGgoAAAANSUhEUgAAA+sAAAGSCAIAAAAU0Mc+AAAgAElEQVR4nOzdZ1gUVxsG4HdmC72LVBsiiIoFxEZRYu9dY2L0s8aoibFr7CUajBJji1FjjEZj770rdinSrAhWmlSpCzsz349Fmiigi8uuz/0jV9g5c847C+4+e3bmDCMIAgEAAAAAgJpgVV0AAAAAAACUAxI8AAAAAIA6QYIHAAAAAFAnSPAAAAAAAOoECR4AAAAAQJ0gwQMAAAAAqBMkeAAAAAAAdYIEDwAAAACgTpDgAQAAAADUCRI8AAAAAIA6QYIHAAAAAFAnSPAAAAAAAOoECR4AAAAAQJ0gwQMAAAAAqBMkeAAAAAAAdYIEDwAAAACgTpDgAQAAAADUCRI8AAAAAIA6QYIHAAAAAFAnSPAAAAAAAOoECR4AAAAAQJ0gwQMAAAAAqBMkeAAAAAAAdYIEDwAAAACgTpDgAQAAAADUCRI8AAAAAIA6QYIHAAAAAFAnSPAAAAAAAOpErOoCAAAA8uzevTszM1PVVQBAgS5dulStWlXVVUBxjCAIqq4BAACAiMjKyio2NlbVVQBAAT8/Pw8PD1VXAcVhDh4AACodlsVJngCqxPO8qkuA90GCBwCAysXHx2fatGmqrgLgsxYVFWVnZ6fqKuCdKjbBR0dHP378uEKHAABlMTIyatiwoaqrAAAAgFJUbILftWvXpEmTKnQIAFAWDw8PPz8/VVcBAAAApcCJhgAAaoqPOTrNu4aBRCQ167dV1cUAAMCn84nOg4+MjPw0AwHABxg1atS5c+dUXQWUkzx0/ZyVV7V6zPujS406XqquBgAAPp1PkeBNTU1r1ar1CQYCgA+Df6FqiYuJeUU1+0+YNtpTqupaAADgU8JaNAAAlUbOjRVDfVIHTHMI+OtoBFvvq5mzetQS8Ul39vz59/GA52lSC+d2g8cMdreScvc3j5284XQil3R0Zs+IBgNWrB3mUGLDd/XKlNw25/bK4UsSBq0ZmLXlz4OB0bkmddsOHT/c0zrvvUIed2v35u2ng56/llg07PC/sYObVxUREdG7hgYAgIqA8+ABACoNPi7k3NH1476cf01uopOSIddnuCf//a95yyGrrr42srIUR+yc+IVb33XhMsawRpPm9Sy0WB2bhi1aNKnxzoYl9sq/sy0fH3ru2I6fOrefciJex8L49ZW137VvP+NSBhGR/MHG/k09hq2+nmZsXSXbf/2oNp5jD8fzRO8ZGgAAKoRQkXx9fYnI1NS0QkcBgI80cuRIIvLw8FB1IZ+9rINDzFlJo9n+srwHEnZ9aSGp9b/90Zzi5xS/qY20jLtueMEJQvbxkTaSulOvy0prWLzX97TNOjrckhXVGnE4nhMEQeBiNvcwFtf47my2ICTtHlRVbNVnS5RcEARByA6a76at2+a3x/L3DV1elpaWROTj41P+XQFAmfKvYPTz81N1LVACnEUDAFCpsFWbuTfIOwUl8/KRs4kmzWrJruzbo3iEN69tkX721KWMUV8VPk3lvQ0lRXt9X9s+RMRW/aJ3e3OWiIit0rBhdeZycjJHshunLiVb9RjzZU3FeTNajWeciZmqb6wrOzDv3UMbVOATBQDw+UKCBwCoVBgjUxNG8b98anTMay7Zb9UPtwuf8mhiIE97zVOVgkfe39CsSK/vb0tEjIGxSf4WiUisuLt6TmxcIlnYWBe8a2gZGZfanQFO1QQAqABI8AAAlQvD5AV4YnX0dEVix/Engpa4vf1qXehE8/c3zC7S63vbZt8hovzxCxPp6+tQeloaR6SYhKeMB35XXlV1q/e+oQEAoCJgegQAoNIycGvuzDw4uvd2Zt4D/KuDP7b1HrQqQP6BDcvZtoCWi1tDUdTFMw/fNEo6vqB/9+Hrw3U+qDsAAPgImDEBAKi0RE4jZ37z94DfBvTkZo1tV0P+8MhvizYEV5+x2ElMxJW1obwcnb67lFrfTP56XT+fAV8xPw1x1Xt5bvWivTley79tpePg8AHdAQDAR8ALLABA5cVa9Fp3Zn+1mUu2zf561WsyrOHa5efDv0xpqfvBDd/fNvs9pZj3WHtql+XUnzd83y82S7da056/Hlk+vq6IqBxDAwCAMjCCIFRc77/99tukSZNMTU0TExMrbhQA+EijRo3atGmTh4eHn5+fqmuBz5qVlVVsbKyPj8+0adNUXQvAZy0qKsrOzo6I/Pz8PDw8VF0OFIfz4AEAAAAA1AkSPACUw5kzZ9q3b3/t2jVVFwIAAPD5QoIHgDJJSUkZPnx4hw4dzp496+npOWHChIyMDFUXBQAA8DmqlFeyZkcHnT9/8+HLpGyJsW3dll+0aWJd6IooPvVJWERCjsDo27rWtSz6QIO6lloqKxtAcx08eHDs2LExMTGKH3meX7Vq1eHDhzdu3NiuXTvV1gZARMSnP7t94WLAg5fJuVJjawc3b++m1fWLTVJxiREhUSkciQyq13esKi25nzfvKLrWTvWsK+xqXD4lKvRxYq7A6No41bNSDJMZdenA0etP0iXG1vYunq2b1aRnb7UBAFAQKpKvry8RmZqalnUHLu6y72DXKpLCtxNhtGw8xm0LT3/TJuvwMAuWiCTNl7z1wD3l1p8VdXLZpN+vypTbK0ClM3LkSCLy8PB4e1NcXNyAAQMU/xhZlp04cWJ0dPSoUaPy7w80fPjw5OTkT18zqBee56dPn96vX7/w8PD3NLO0tCQiHx+f8vSdcX/frJ5OxuIi7xySqm4jNgS+LtwuN3B2IwkRsebfHMh4R19clK+XlCFi9LpuiuPKU0UpuOTgf+f+fj7vrUwescxdyhAxhr3+SRQEQRDSrs5tblzwiUPiMj/ofvE2AJ9QZGSk4o/Rz89P1bVACSrTWTT8ywPffdF58r8BCbkCETGMIiIIspdX1v3vi/7r7n3Ku4PwSZd9ejVq2GXGfyEp/CccF6Ay2b59e7169Xbv3k1E9erVu3btmq+vr5WV1YYNG86dO6dYpmDz5s316tU7dOiQqouFSi07O3v58uV79+5t1KjRpEmTUlNTldMvH3/2p3atBiw5dC9FXuSdIzf+9l9j2nZbmn+jKaLkgMBHciJG0sDNTfsd/aXduBHGsyKRlnOrVmZKeofkkwK2TGjr3GzYkUTTvK+JX1+/Ec6zIrF2Yw8PIyKi5CO/rb6dwhOjZd2kTWtX+4be3la3i7UBAChQoZ8PyjMHzz3d3MucJSKGNWs+duOliOTsrIT7Z1cPbWTEEhGxpj3/jhaEEubguehbh/fs3r177/l7aUorPTd4nouEiFirEceylNYrQOX09hz88+fPu3btqniVkEgkc+bMkcmKfxuVkZExceJEls2LOQMGDIiPj/+0hYM62bhxo7GxseKvpWrVqps3b+a44rPc5ZyDl99f18mcJSJiJLbtpm659CgxS/Y6ym/jmKaK+WxGp/nPobmKxtmnv60mIiKx09Trn/KrVdnNGfXFRMSaDzn4rqn/7JOjbUREJLIZcexdbQA+KczBV3KVZg5eHrDe91gCTyS2G7nt+NqRXrWNtbTNHNuO33x4eRdTlkhIuXTwZIm7Cmkv74eFhYWFP06Q5T8oe3puzZTBXdu4u3t3GTRh+eH76YXGur9/2fx58xasOPJYnhTw79zhPb7w8GzXZ8zSA/cUrTL9t/28wS+OJyLKuLPr53kL/8LKG/C5EAThzz//rF+//rFjx4jI1dXV399/4cKFUmnx04Z1dXV9fX2vXr1ar149Itq9e3e9evW2b9+ugqJBHYwcOfLhw4ejR49mGCY+Pn748OEtW7a8devWB3fIv9w2Y+7pVzwxIpveGy6eWDbUy95UW2pQ02Pk2sNr+1mJiISsgH+3BeQQEXFPAoJjOSLWsKEjt3vesO7e7u5f9Plu+cknBe8cfOKVTQvnzZs3f/F/wbKCB4N2Lf3+q67erVp6tuvz7c97w4t/f8Anh+3/9cdv+nTwcvfq2H/skr1heS34uIvrFy749fBDjogYrZhzPkv2hMuJj7+8YeG8efPmL90TLk+/9c+ieTN/Px3HETGsbsIlnwWrTz7jirQpSyXye/t95s+bN/+XvXcznpxcNrqHt1eHUX9/0i+vAeATqtDPB2Wfg88Nme8iISKSNJkbnFt0W8adQ/8cuHw3Lm8qvPTz4Lmky/M9q4iKnBKp3+Dbfc/keTsc+MaMJRJZ9Rj3tYNOoWasWfvV9+WCEL++Y9ELYiXuy5T1nABUQvlz8BEREW3atFH82Wtra//yyy9yubzU3WUy2ezZsyUSiWLHbt26PX/+/BOUDWoqICCgVatW+S+ww4YNi42NVWwqzxx87p25TSQMEYmsBv4XU3w2P+vYCGsRETFa7dfFcIIgvN7Rz5ghIlbf1FSr4IWfkdT4eueLvL2zjgyzZIlI7DBZcQUUl+T3c3ubItdmEWvk9tPFlPwqovb90LxKkXPwiTFoPOlkAicIGfu+LnoqjqT+zFu5QsaBb8xZIpI4z/LPuDTBvuiaEoxWu7XRXOE2uWWoRP7Ip5WEiCSNhk3rWU3xvNT67ky6APBhMAdfyVWWtWhk4eERciJijZ1dHIoVpduox5BG5egr5dSMoYuvJHAksWkzfFQHi6gDa//1TwzbOHp8M7cDw6vlv5pyMYfX7bZ2Hz63p2POtc2rD97P4BMvrNt8e7SPU3W3Dl5P/K48SOEZ7epubepb1LdTznECVGJBQUGOjo4cxxGRh4fHX3/95eDgUJYdpVLpokWL+vXrN2LEiICAgKNHj546dcrd3b1evXosyzJvUN5JyuX+8YN31PgfK0MNH/Cjs7PzxYsXd+zYMX369Li4uL///nvfvn3z588fP358Of5e5aF7D4XlCsRI6g2b0s+y+DfKYltbS5aiOYFPS0kVyDInNCAkXSAiPuO1tMWQn7rZp13avPFMVHbu010LV3/f+5fmUpJHBIYk8kSMnrNrfSkR/3zH6IFzz0ZzJLVpPWRk5xqJ5//aeOZJqv/yib79bi1oIqa0y7N6DV4dnCUwOrXa/29Ye9uEM3/+cfZZWvDqKSsGei+2yjVv2cr+0rWINJ7RqtbU29m2Vbv6YvnDwJAUnog1bOhSNzfTsH47N9l5/+c5AmtYp1UreyPLbu7mfOE24jJUkhUYeJcjYviHu1aF5ujXbu5sU2fQBG+9cjyjAKBOKvTzQZnn4LmYte2kRETi2j9cLOX8xFLm4LmYTd0MGSJG6jLHP1sQBEFIOT2mtpiIkbZQTNLnzcETI3WdG6hokn1lsqOYiBjd3tvSBQHnwcPnpW/fvvmvCfr6+mvWrOF5/gP6kcvlv/zyi7b2u64SBHgfJycnExMTKtscPPd0pbeUISJxvek3SnjbkF3+sY6YiEjadk00J3AvVnlrMUTEmnyxPERxqnlu+JIW2gwRSTxXRHGCICRv7WXAEJGk+ZL7ckFIPzOmpoiIWNNOax8pvhzOvjXTWUJEErfFd+WC/K6Puy5DRCLbAdufKubxUw6Mql/byaVl+6kHEzhBEF7/p5j6lzRdFJ73fVbCX131GCKSeimGfXMojE7nDW/WvynaptRKBNmN6fUUs1+smdfcC3Glf3UG8H6Yg6/kKskcPCsSsQwRkSCT5Qgf1VWO/1X/dIFI4tCxeyPFuTBGnt3bmG94HJMbcv06Ud38piI77071FU206jrWEtEDucBlZWYTYdYCPiPXr18/cOBA4R8bNGjwYV2JRKLp06d7eXnlnyPBsqyjo6Mi0xd+6Sn7jx+8o7J+/LCnAj7AvXv3yv7xL/fRw0hOIGK0HBvUf3tpdz4m4M4zjohEFvYOpizlBASE5wpEYocRi753VqytLrZv7V5ddOOhnJITXvFUUx4SEJYlEImqNnKpKaLM89sPPuOIRJa9x/8v70wXLefmTYzZ0Fd87PMXcnnuzp23MgVitFzHzB1YXfEtgFGvDWG9CurICfUPSReIROaNXGuLiIhIdsc/LFsgEtk2crFiiSg7KDBMLhBJ7F1cTNkS2mSeLqUScky5ExTJERFr3H7RlrltqorK/ewDgFqpJAmeDKysjFiK5/nEZ09eE5kX3iYP27/prlWXbi2rl+WGFtnx8ckCEckj/uxT57+848tJSRCIhNzoZ4WbMkampm9e5bS18s58FwQsHgmfl5YtW3bo0OHkybwrxbt27frnn3926tTpw3rbt2/fuHHjFP/v4OCwadMmT09P5RSqOpXhg0SpP1aGGsr1Y0xMzMyZM+Xygkstr1692rdv39jY2DL9UtLTMwUiYrT09N5+J+Mi9uy7mSMQscbubZtpkTw4IDiZJxJZtu7gmp/3hexsxZyRto4uQ3xsUPAzjoiROrs2kRAXcScskSciPunAmPrn3oyRnZQsEDGsSERJN27dkxORuH6XHo4lR2b+VUDgU06xgqXiYi/iXgSGRHNEjI6zayMtIso/qcaooUtdcQltuKjSKqHcIP/wXIGINesy8qtaiO8Amq+yJHhp0+aNtbeezhRkt06fSRz1lVnBpszL66d+vzbqe8PaX655tO2b0noSi8WKNcT0rR2cquVfkOrUiIhE1asXb/vmf9/cnQbgc2Rra0tElpaWcXFxz54969y585AhQ1auXKk4paGM4uLixo0bt2/fPiISiUSTJ09esGCBZpxRk38yt6oL0RAymWzlypWLFy9WxHcLC4ulS5cOHTo0f2XSsmDNzU1YesUL6VERLzmqXTi18knHl629niUQiWz7DOlsRJSoWAqeWAsb6/yW3MvA4GieiNWv7VhDRNlBgeFygUhS28XFlCUuPT1DICLWqEaDBnZ6Bb98JyISO3jaU/yVV5xAxOjWcar9jjfTbH9FspbYu7rkXdOad8I6iR2auBgQEaUGKpapF9d3ddWhEtqUWomYiwwMieeIGN0W7byxdjzA56CyJHjWsvfXHeecPZDIJx2aP3l3q00DaoqJiPhkvyUzt0bJSWCy9GrVK0NP0tq1q4nooZw17bDw4Ap3KRFRWuixIw9Z2xo1HZzKXFHBezW+RIfPhL29/a5du0aMGBEREbF169bTp0+vW7eud+/eZdl327ZtP/74Y1JSEhE5Oztv3ry5adOmFVwvqB9BEI4cOTJp0qTHjx8TkUQimThx4qxZswwNDcvblbShezPT3x7G87m3Nq04O2JNR9M38T/73uZR47Y+5YhYo9aTpnTQJ5Ld8Q/NFohISE1MfPM9a86dLdtv5QrEGHl29NIleWhgaApPxBo0dHESE/EWFuYsc49Ys44LD/3eWjFxz8vllDdNRNxjHW0iIkYkyn8rTQ89fjhCVMOujoOjnbk2yR8FhiTzRKyBs2veaeo54QEhaTwRa9rIpY6YiGTBAaHZApG4emNXK7akNuLSKqHUHYEP5EQkrtusuXF5n0kAUEeVZj141vLLRbPbmLIk5D7a+rVr424jJ8+cOnagZ8P2S26lCcSIbAbMGtukDB1JXbt1qC4mkkdsm7vsSjxPlHrLd8ygwf26tPEYsjGyrPUweSvjCVkpqdnE5eR88JEBqBEvL6+QkJDJkyeLRKLY2Ng+ffoo7tP0nl1evHjRtWvXIUOGJCUlSSSSefPmBQQEIL7D2+7du9exY8eePXsq4nv37t3Dw8N9fHw+IL4TEel3HDHIXsKQkPvwzy/bDftl57kbNy4e2jinfzP3MQee5wqMqGrHJWvHOYiIuOcBwdEcEZE88r+ff7+dQiR7emTatyuDcwRGVL3/t/0sWXodFPRQTkSi+i4u2kTE2rZt00DCkPzJrl9W307miTIj9ox1rVKltluXbzeF5JDI1qWRtYiIT720c19UDvGpoX9/16/P4D6dPFsMXP9ATkRZ4WGP5UQksq1tp/hKmE8KCorkiBhJfRcXKRFxLxS1MTrOrg2lJbYptZKc8MDQDIFIVLWxa22cQgPweRAqUnnuySoIAhd/YZ63hfitL6oZURWPuRcS3qzXW9p68PInW3pbiRgiYlgtEytLIwlDRIyk9qgjij7erEUjcV8W8eZ6/YytPbWIiLQ6rlfcVDL53z5Gij50q1iZu85S3rMCUOm8fU/Wmzdv1q9fX/Ev0MzM7N9//317L57n169fnx+/mjZtGhIS8gmrBnWSlZWlr6+v+FNxcnI6efJkic3KdU9WLun8dFfDEieiGKlt52XXkvMapu0cYMwQiSycnMxFxIj1zC2NtViGiBgth5EHYzlBELLPj6slIiKR3fcXsvP6jz04orbiDUSsZ25jaahYjZ018VrinyEIgpAbvLSVgeKNQsfM2lxP8fbFGrWYf12xDnvS3z30FNv1bJyadF16S5Z9fKSNiAqtOJ+2+0sTloqsVfNWm1Iq4V6uaavFEDE6HdfHFl8XH+ADYS2aSq7SzMETEbHmbeafCb68cdqXberbmOhKJFoGFnWa9xjne9L/7II2ZmWtVVRj6N+H1wxxqSIhXpYcE5uaSxJzt5GbDq/qVuY+iIy7jvvWxYhlBD4zISbxZcyHHRKAmmrWrFlgYOCcOXMkEkliYuLgwYO7d+/+8uXL/AaRkZFt27YdM2bM69evtbW1fXx8bty44ezsrMKaoZKzsrIyNjZeuXJlcHBwx44dP75D1sR7yZkza0e0stFh86d+GImJY4dxa8/7H5naMu+EkpywgJB0gRjdVjMObp/pbcVmvopNkfGkZes9ddepP3pasETc01uBLzgiRq+RW+O8K6hYi55rjm4Z526tRfKMVy9jX8sZXVv3EWtOHpzuqktEJG44dce2yW1stIjPSox+lSEnqYXb/1adOjanhWJFM6MuI4c66TEk8Bkv7z8SW9UWRQYGx3NEjJ6zS30pEeXcVZwwIzJv5JI3fc4Vb1NaJTmBgYp1dmq7uJTjXQ4A1BkjVORaab/99tukSZNMTU0TExMrbpR3yY4NvRXwMC5bal6naYuGVh9wPV1OfNjVGw9TxVVquzRzttSEC/IASjRq1KhNmzZ5eHj4+fkV2xQcHDx8+PDAwEAiMjIy+vXXX4cPH75q1arZs2dnZmZSOe/9BJ8znudzcnLef3GzlZVVbGysj4/PtGnTyt6zPCUyMCD8eVKO1MTWsUljBzOt97XOfB5wPehZpmGd5q0aVM1bl4aP3dDNfsyJDJK0XBrmN92hyKkosvi7t/wfJPDGNnUbudibvnX9mCw+/ObtB/E5OpZ1mzZzMi+2tKUsNuTarUdJZGTr3Lx5LYOyH1UJSqsEQHmioqLs7OyIyM/Pz8PDQ9XlQHGa/O9f29LZq+tHzQhKqzbw7vGBC2MDaIZGjRrdvHlz+fLl8+fPT01NHT169OjRoxWb9PX1ly5dOm7cOCzSAmXBsmwFrU0kNrZr1tauWRlb61ZzbVvN9c1PmZG3A+Kznv2z7mKmQCSu49WmZvEzybWq1vPs8p6VFLSq1vfqWv+dWy0bevdoWMbaSlFaJQDw2cD3bQBQCrFYPGPGjDt37uTfp4mI2rVrFxoaOn78eMR3UGc5t38f9EXL1oPXB2cJxEgce/Rp8vbtoQAAKhskeAAok7p16/r5+a1cudLGxuavv/46c+ZMzZo1VV0UwMfhX4WEvuCIiIgRm7ea9vuUpgjwAKAGNPksGgBQLpZlJ0yY8MMPP2DeHTQEazXi31uN7jx+JdO2btSquZ0RprUAQC0gwQNA+SC+gwZhda0belkr6TR1AIBPBdMNAAAAAADqBAkeAAAAAECdIMEDAAAAAKgTJHgAAAAAAHWCBA8AAAAAoE6Q4AEAAAAA1AkSPAAAAACAOkGCBwAAAABQJ0jwAAAAAADqBAkeAAAAAECdIMEDAAAAAKgTcYX2fufOHSJ6/fq1p6dnhQ4EAB/j0aNHRPT48WNVFwIAAAClq9gEn5qaSkRyufzKlSsVOhAAfLyMjAxVlwAAAAClq9gEn2/UqFGfZiAA+AAbN25UdQkAAABQVp8iwZuamm7YsOETDAQAH0YQhE2bNqm6CgBKSkoiot9//33nzp2qrgXgsyaTyRT/8+jRIw8PD9UWA2/7RHPwAAAApZLL5UQUHR0dHR2t6loAgIgoKytL1SVACZDgAQCg0vnxxx9VXQLAZy0qKurQoUOqrgLeqWITfLVq1Sq0fwBQInNzc1WXAJ87XV3d9PR0Hx+fadOmqboWgM9afoLHW0PlVLHrwdvZ2VVo/wCgRFZWVqouAT53+vr6qi4BAIrAW0PlhDs6AQAAAACoEyR4AAAAAAB1ggQPAAAAAKBOkOABAAAAANQJEjwAAAAAgDpBggcAAAAAUCdI8AAAAAAA6gQJHgAAAABAnSDBAwAAAACoEyR4AAAAAAB1ggQPAAAAAKBOkOABAAAAANQJEjwAAAAAgDpBggcAAAAAUCdI8AAAAAAA6gQJHgAAAABAnSDBAwAAAACok88pwcvjHwYF3IlMJiIiPvFxkH/Qw1fyChjoTd/K6i/9eViAv79/QHBUCl/ieClRwQH+/gEhT1NL3F46LjEiyD8oIpH7mDLfkvEyPCAg7Hl6sbGijq1csu12OlHmnR1Llx98kKPUQQEAAAA03WeU4PmY/8a0cPOYeoKIiF4f/KGlW4txexM/MPMWIY+9+seEJScy835807cSeiYiygny7d3Czc2tqVvP5UElfOKQBy7v6dbUza1Zx4VXypqGi1WctHd8S7eW3+9PUVLJRESUc8e3T4sWvX2DChfFPVg3euivIZLqukTa1XQfrB428rdQZHgAAACAshOrugBVkdg27dRZ3KC61sd/huFjNw5pN+5y+82Li/X90T0Xk3v/8IHg+a6uRX9p8qD9B+/nlqujtyr+VPhnW6cvuuE4+WZ/C5aIzLrPntTEdcGUjf2Oj6stUvpoHMddvXo1Pj6e53kzM7NWrVrp6OgofRQAUDfZMffCo3OruDasofg5/eGp3UcDYuRG1Rt4dWpTJeFedG4V+4Y1jD6wez45MiQyWdvWua6FlIjSn4c9iMsmPZv6TlbaJbVPexb6MF5GutZO9ax1yzqIPCeHlUpZIqKcuPuhL7JMasjoqscAACAASURBVDWyM1XepFyxg8h/OCUqNCrHqom9KCLkhbiWc03jz2geEKBS+Wz/7el1XHDw+KHFXY2V0BfPcbxQQt9K6Dofa1yvvi1//8iB4GKz8DkBew8+lNpWMytPAi5e8SeScfHXJcfZHhNH18srVmQ/fFI/3Qs+S08odfafXr16tWTJklq1arVu3bp///4DBw5s166dra3t1KlTo6KilDoUAKibzFMz2jRrOXKb4id56K9dmncZMXnW7Onjh41Ze+O4YuPLD+6ei9gwuJlbu7kXZERElHJwgrubm1vzTguvyEpqnnp2RlsXN7dmnpOPppftO+GcZ2eXfd111oW8mRvZtcVdmrfo/3uoMk8KLXYQedKuL+zarP+acI64e+sGNuu48FqJhwQAn0Alm4OXxYX6nb8W+iwhg9cxt3Nt28nT3ijvQ0am/7YVx5Jch47/QnTz8JGrkVn61Zu07/GFvf6bfUttUHSkoO3LDkbW7DbpGze9N49lR986efLmw9gMLcv6Xl06NrEsNPPwrsrkobt+2Xr6KU/8oyO/zHtm3+mHYS118vqe841b/v7pkX4nzt6OSJDrWTu5d+zgaqVVpO4Ut2Fj2+ndPX3kfGhMjn6Nph27ts4/cgVp415dZT6bjxSbhc8J2HsoQr/dmC9C1m3LKnqImc9vnj59/UGcTNuyrnunTk2tFUOWVHH+PvLEsNNHzoXE5BrWcuvczbOWftGPeO8+irzd44OOH/W7/4q3aNSpp3exp5yP2bXy3ydWA9Z0MSl40KD90H41t/618t/ZncfXVM40/I0bNzp27Pj69etijyclJS1fvnzlypXbt28fMGCAUsYCALXDxWcYNe/cr017IiLK8f/37+up4to9p47vYKNr3bxW5pbmnfu1aW//wf2n3b4ZLhfXd3XRJSLKCbkdkkmsSIiLeJjMt7MsNm0mC/htxt9RAsOI7V1cyjSFzsf/M6bnjIuef/hKFIcTHXDnBa/T1bWhtJQ9P/wgFAM/2znmqxWZI0/93seKyKS9l/maPVsvLPboVObvDQBAmYSK5OvrS0SmpqZlaMslXlrcuYYOQ8QwDMMwRMRILFovupKm2B6/vqOWqOaXM79tYsQyYqlUzBAjsfCYdjyaK1sD7tlKbymj12e7IAiCkLypixZJ262LVWyUPzs0tbWN1pvRiWEN6/9v6wNZqZVl7BliY6wnYYiR6puYWHRd94zL7zvvyGSP9/7obiEp1Ld+nd7LryUVqlts/79Fk1uZi98MwEhtuvwenJ23/+Uf7cVs1aF7z0ywF0sazvbPLXjWZFcmOUjM+m89NN5OxFoOP5qV92TGXVjUpWZ+yUSMXp0+vjeShRIrVtRAkqZfjW5pLimooVq3VXeyhLIdhSCk3/njy7oGLJP3LGlV7zysW02x2P7HyzLFUxy50ltHZDXsSEbRX3z22bE1RNJmP4fLy/BXUqrr168bGhoSkUgk6tev34ULF9LT07Oysvz9/UeNGqU4i0YsFu/atUsZo2mOkSNHEpGHh4eqC4HPnaWlJRH5+Ph8ovHkkcs9pYxO29XPuNIbl0n2hfG1RKLqY85kC4IgcE98vaSsQU27qpLaP1ySFR/98bqOxuIqNaobiMy+3pdetv5PjLIRSRr8dDvvnSB9zyBTVuK6IDT3/ft9xEEIgiDkhq9sa6pdf/KlvLdkIX5jF11xrfEXst/RBai9yMhIRVD08/NTdS1QgkqT4NPOfGcnZgxcx+0Iis3iuKzYO3ume5qxjF77tYoX1vj1HbUYhhUZu477NzhBlpsUvntSC1OWNeu2MUpelgbvSfDy8OWtjVhRFY/J229HZ8hSHp3+pXt1CWPQesU9eemVcS9XfyElre5/v847liIJPv3KjEY6jNjCe8auoNis3LSoS+v+52zAshY9/4osqFsklli2nrr95rPXWYlhuye4GbGsSe+t8ZwgFCT4QymXf6xTNMJnX/6xjsR80O64C98XSvDyB2s7mrFiqy9+2h0YkyXPigncNcPbUiSy+fK/lyVXHL++oxYRI6raeuqO29EZspQHh6a1MmYZox6bFR9xSj2K9IuTnKSMVu2+vuej0mSvI8+t6FtbiyHKT/Bc9PqOuox+jy2Jb/3qdw00ZrW8fCM/OsLHxsYq4ruBgUGJrzgPHz60tbVVhPhbt2597HgaBAkeKolyJXj5o4O/zv9l311Z3JXVY3t6t+42cXeUXBAEeULgzkVj+ndp4+7Zvu93vxy8Xzgby4L/WzxvwV9Xk+QRh1fMnz2kqSErquo1es68hduDsvM3Fozxvr4EQRCyn55fM2lQlzZe7fpPWHclLveRTysJo9d1U4IgCIKQvu9rM1bi1LNnXYl2540JRfbk4vYOthHpuPboaCuSevk+4UobUv7k+O/zJne1EzMSp74/zVu6J1wQZDen1xOzVsOPZiTe3vLTN5293Nv0+Pa3izFFPpDInl3886fhvdp6tvJo23vkwp0hycU+r7z/IARBfn+lt5G45qhjyQV9Xp/qJJa4Lb6rlMkXqISQ4Cu5ypLgc4N8ezV2aDnTr9DH+ewTo2xEolrjzmcLQl7IZE26bnya/8rDPV3fyYiRNJoTWJYG707w2RfG24nYKr3/iS7YM277EOcG7t/vi5OVWtl7E3zCtj7GrKja/w4mFLxgyh/9/oUhI3aYdEWWX7dxz78LXnEzjg63ZkVvJjfyE3yW7Mokh8IRPvvi97UlFoP3pWQXTvBZ58bWFImqjzhS8FIrcHHb+1VhJa7zQ3JLqjivhu5/FdSQdXJ0NZGo2rens8tyFEn/9Tdlxfbjz6Xlb8/wm1RXXJDgs44Ms2QlzrNuvzVPJA9b2FTCmgzaU7YJqPdYsGCBIp1fuXLlXW0iIiJMTU2J6KuvvvrY8TQIEjxUEuVJ8NzTld5SSZOJq39sYsAQkajW2LNZXOLFBd4WYqbgm2aGNfVcfOPN60tu0NzGErbq0INZSZu76xZqJrIZfTI9f6NigFL6Eri4k9OambD5DRi9Jt9P7GLESBrPDcoVBEHIvTWzgYTR77nily+k4rpTrhWehE+/NMlJIqo5/Jfv60vE9hMuyUodMm1HX8OCLeK6U64JXMwfHbQZrTZTl31ZRyd/G2vcbnVEXrLmYk5Oa2EqKtQjsQaNJ56I58p6EAIX999AS5Fh+zVRhdI6F7O2nZQ1/Xp/lgCaCQm+kqssV7KKG088EPTg2hIPxYnVfGb8/WvHbjyTE+XICq6UYfRaD+hbPb9m1rZHt6ZS+b0rfmVuUBIuwu/Gc17Xo1cPq4I9q371T0jolVV9qkrLVNm7yG5fvpnGWHb+spNZwVMtsh/0pbsOF3XlUuSbBdhF9Vp5mue3kNraWoiE7MyMYlebSt36drcT7h0+qLhiSXZt79FnVTr371BkxQR5+IUrL3lxFeHhttX51u6MYk1Zefi1a4nvrFVUz8OroAZJ9eqWrJCe9loow1HIgq7cTmUsv+jmXnDVgW6zvl3t8k/Y5xMjnyTxrFW1Gm9deiGqXt1aLKQ/jYz9qOXoc3Nz169fT0T9+/d3d3d/V7PatWv/8MMPRLRnz57Y2NiPGREAVCo7KDCMYxMOLD9abcahkMj71w7O8Hq1ffSghZdk9QfO33Y++PGLJ6Fn1g5tkHN1ybQ/IxQvMKlBgY/k4vouLmKm8VDflaNctRmxw4Cf165bu3KUW+abjVIi4p+X0hf3dOu3Q5ffTrfpPH/f7chnj/w2jagTsXblideMcUMXBzER8YmBgY/lYofGXvVqVRGeP3qUmV+8PGz1zD8fGnSeOZQJfCTXcXZtKC11SKH+YJ85PauLGINW41atW/vLEGfKDfQPyyX+xtplD5rN/s/vblTkrU2D7NjUK0fOJvBEJH+wbshXy2++Nms5dt2JO5HPIm7smNa6Smbw6glLrmSX7SBIHr5+xYFXlv2+H1L4YiXW0NhQIqTHxX7ofUgA4KNUoitZubgb/67bdPDynQeRT59GJ2bKiWUZgbGighjLVrGtXviaGdbIoqoOCQlxZW5QEnlcbALPmlhYvWulwTJU9s6+X71K5NkGtrZFn2hDG2tjVkiKj+eorqJQA2PDQi+NYjFLxAtvvS5Km/bpUfv33w/vD53XpIn8yt6jL6p26de26LW68tjoeE6QBW6eHPhWOZKk+AQii5JrZQ2MjQrVwLAsCYIg8ERCaUfBxcUm8KyDlVXha1HF1apZs/RC8QOfnPJaYCQGhnr0FomBgQ5Dr1OTP2p5nMuXL8fExBDRuHHj3t/y22+/XbRoUW5u7v79+8eOHfsxgwKAysgfBoakcLl6Nccf3z2lgRYRUeb58fMPJdX78eTFFW3yFhqzGfvHsuBzXbedOZ/4o31VVhYcEJYtqtHYxUJsXK3vCC5wDcdaeA2bPLaTFpHs/Ja8jSxR5kWf9/eVdXHZwiPxOk3n7Nszz02XiGqNWPvHw2uey+6xDVxdtImIcgP9w3IYs0ZNnerp1WJzIh8+lpOrmIj4Z1tnr7jJu8xd1PPJgim5YkcXV4MyDNmw19d3d8zkxQ17TRz7XW0RERceEPyKI0njHw+e+9ldMZnTp23d8TtfMgzLEiXuX7D4XLJei/lHTs1tpk9EVGvQ0p2yh/VGHD15JMjHq2Vu6QeRc+Pv7Xe4Gt9908Gg6C9AqiUhyskqtoYCAHwalSXBc0+3f9Nm+M5nEpsm7i3befR1rNeoeUutfX36rCvy4pCbU3Tam8vMzCHS1i17gxIwWtpSRnidIysxQJaxsnf1raOtTSSTZRftm8vOyhbISKtgKReGKdPXIdKmfXvYr1x5eH/oPKeEPUdfWnTp561HVPigGbFYzIish+y49otn8aUJGKmh+XuKfVcNpR4Fq6UtZYTs7KzCnzkEuZzL34FhWZaI50uarOF5jhdIJPq4P8b8CfXmzZu/v6WlpWXNmjUfP36MOXgANaaYTbf7Zt7YBnkvpemntux5womsTk5pd6lQw6yYRF6eEJ8gUFXuZWDwS163m0sDKRHxCf7+EXKpdzMXCRFRkY2l9qV3Zuu+p2Q9dM4kt/x3GKmzs6OEeVitiasFS0Tc44A78bzEy9VFx4a3N+EPPniUTa76RMnHFy46mlJz9M8T64ZOC8xkzRu51BaVoXzKCbkdnC6q4daimmK6JC0w6IFcZD143gz3N9/F5ty9GyEXVavrZET06sj2Y/FsnQk+05oVzPSw5i2bO4oOP4iO5imj9IPICTh0IlKwGtalRbG1x7jMDBmRVLvENe4BoKJVkgQvD9rwy96nbLN5fufnNXnzOpK+Z30SL2gLBbGRjw8PecF1zL/5jywoIDyHMXFqUOYGJRHXdqglEc7fDX3Cdav7Zk/5nfnu7TexY7b58qVWxpTUq4LU0dFOLH8Y4P+Kdy04R0cedjv4taDVok6tcj//Upe+Per89tvRA/4t4o7HWHcb0Kb4pxOJo6OdiL8edjfVfEDDQmex+B85/UKvfos2ZnrvrfiDjkJiVK+OiAsNCkzgm1u/aZAVGhbBUd6cO2NWxYQleWpyCk+6xT4oZCWnZBFjYvZxNyPhOI6IWJYViUpflVIsFufvAgDqSBbsH5YtsusxsNWbF8GcO343k3hB/vJuwFuruUv19PUYoqygwLuc2NHFxYCIKCfgdkiO2KFpU8WLT3ahjaX2lRN2/XYiYzG0b9tCpzHyr1Nfc6Tn7NpASkSUFhj4UC6q5eJahZU4ONRkM6MeRMnJmbu1Yva/z027b57dVveJT1AML/Fu6iKhnNulls/HBQQ95fV7NG+smJ7JCfYPyWIs+vdpmz89zr8KDHrK6XRxbSAlWeD1wAxRjU69mhdJ2UJaWgaRtrY2leEg+OgbtyI5nc7uzYslde7Fi1g5o1fVAvd0AlCJSvIvj3sVn8wz2jb2NfLzaEbw+vWnUnjKlcvzI7yQe+vPhfue5t22Ijvsj8XbI4VqPb9sW+YGJWGrdu7V2pAL/GvZ4Zi8KWI+/uTa7YFJ8loN66aUWhkrEouJis9AK4id+vZqLM047zv3SPSbrdnh6+dvvscbf9Gnc5XyP//SJn17OAjh++f4Hout1n2A51vTH2y1nn3c9eTB63/aEJ6d9xgfe3zm1/2/HjBlz4vSKi5JqUchqtO3f0vdrAsr5x58lvfkZwSt8T0Yl98/a+xgb8nyzyMj37rpiDwy6gXPVKldx+Kj/hoV16fyPP/gwYP3t8zIyHj+/Hn+LgCghriXgcEvBbNWrZvkf9coj4mO4ySNpl96Ef2WpwfG1GBJfi8wNI0xb+hSW0RE8ge3ghLJpLGro+J078IbS+2Lj46O51lbO7vCM9MZN26GycV1XV31id4sBa/f0LWBlETVHe31+SePH8u5p/8sWBcqbj5p4VfWbJr/7XtyUW0XlypsGcqn7AD/sFyxc/PmivcjPibwznNOt6lnq4KZnGx///BcsaOLqyFRTkxMAs9Wt7cvMlfEvbhy7ZFcVNPBUVKGg8h99CCKE1WvW7f4GZDZd8Mfc6LadetKPv6XCQDlV0nm4LVadOtgvWXL4Umdh4T3aWIqj7178cD+a1lG5uKUtNTUXKK8nMpI4/YNbnF3d682dvTo5K6jYZn2wzfM71jw9WCpDUrCVh+2bMGBdpO3DHK737t3aztp7I2Dey4+q9pt3fw+VubSUisztLI0YnMvL+3T/3rbb5bM61X4hU7sPPH3n051XfDXgKYhPXt72+skhJzYd/JehnXPtcuG2nxIZJW69O3p6Lv07Hmx/YT+rbTebiCqPWblomPtpx7/wcPlaN8ujc2yI68eOnztpbThxOUTXcRExSte0Ku0G4GUfhSO3y3/6VDHOZu/bBnSs0frmsKDE7tOROZoFUz2a7m0cjVYf+xO0Cveo8hx84lBQZFy3bat3Eo4lnLw9PTU19dPT0/fsGGDYhGkd/n3338zMzOJqHPnzh81JACoTHZgwF1O2rRZs4JZDFaqJWX41xlcFauCu83JIy8duidu0MzNiohPCgp6LJd4uCrOmkn2D3ggl7Ro6qZNVHxjqX1lsyxLQmpyMkeU97Uf9/ifdYdfMRY9XWqKiIiPCbjznBM3dW2qQ0RSBwc7dk/Uozu7dy88lV5n/M/jG4gpJ/h2SCZj2NC1vphIXtqQJL/nH5zC1mza3EYxYlZAQLhc7NjUzTD/OZA/8A9OZqr2cK0tIiKWZUhIS00VyCa/Rcb1NZuuysQN2neqKaLw0g6CuISEJJ6tbWVdLC3kBF65lcrYtvC0V86t+ACgvCp0pZvy3NHpddCmse3rWxlIJFJ9C4dWA2ZuDYy9OrWuWFRt5DFByFvwUKvjsuO/D3e3M9bWNrJx7jR2zeWY/MWtSmvw3js6CULG/f1zB3k4VNWTSLRNajXvN2ffg4zSK1MsnpgduvEbF0tdMcNajTiWVfyOToKQFrZr1kD3OlX1pVK9KjVdu437/dyz/EXFFHV32lBooeDcsIWuEtZi2OEsQSi8muSbzbd/aiChN6tRCoIgFFlNUhAEQch6dGjRUO96NkbaEomOaQ3Xbj+svx5fsBRkkYpLrEF+b0lzCWM8aE/+DZjeexSCIAivg7fP6NO0pqmOVLeKQ+sRq/bO85QW3NGJi/u7pzFr3HtrsQXhU3Z/aSYy6Lwh+uPvp/Ldd98RkaGh4YsXL97VJj093cHBgYi++OKLjx5Qc2A1SagkyrqaZO7NGfXF4nrTbxZ6EeKiVnrrMCLbL3c8fbPibuS+7xrpMaJqI46kCIKQffrbaiKx07QbMkEQhOyTo21FYqdp1xVdFN1Yal+5oQtcJYyk7vgzivvacUlX5nuasMTodN4Qp7iNxt6vzFhRjbFnFUsRp+/sbyQysLE1ZkVWA/9T3Irk8a8eEpJ4LI+Ul2VIIX5jF11Gv9fWlLzn4PZPDSQi6xHHCtY65uI2dNZhdDquj+UEQcj1n+UsYSRO40+/WQg4LezvwQ5aDGvSdcMTriwHIaT/01OLtDr+WXQpe0F2bUpdsajWuHNYS1JzYTXJSq7yJPjSlBAyy9kAVCx5/zfWYpM+24r8hpJ3DzIXVx24Uxm/tvDwcMU9cx0cHF6+fPl2g/T0dC8vL8VL0oEDB5QwpKZAgodKoowJnotd31GHNS12GwkudtdXNiKGkVi69vhm+ODuzWx1WYbRrffd4RhOEAT5g6UtJKzxwF1pgiAI8vBFTSWs6aA9iomYohtL7UsQcsOWttRliDWw9x40YlifFrY6OlWqGLCShrP8Cy0Fr9dtc96LW67/7IYSImIM2/jeV8wspe0aaFxw649Sh5RdnewgZsQ2nkN/nL8rTMbF/dlJh9HusD620OTMiVE2Ionzmxu2yh+t7WjKEqNTrWWf4SMG92heXZchRlKt7995q8WXdhCCkLFnkDEj9V5Z9J61acdHVRdJXd4sGA8aCQm+kkOCh09H5j+3iZZ+29UFdwXhXm7saiStP+2asm7MvWHDBkWIt7a2XrFiRXJy3m2tsrKyNm/e7OTkpHg9mjp1qpIG1BBI8FBJlDHBK5Kq5/Lit3Lmkq7+2sfRKO/+RYzIqG7vxWej8xql7RxgzEha+TySC4IgJP3Ty4CReq2I4krYWGpfgiAIWWEbBjroMUREjNS6zbQdy3oaiKoM3p8hCHmfMRhJk7l33oTclK299RlGUn/qlbxvNmVXJzuKGf2eW5LKNiT3cvsgWwlDRKIaY89mK56DBjNvFaRoefgiNwlb5et9Bfecij23sHsdwzc9Skyde889+LjQC+57D0IQBNnVKY7igps7KYaJWtfRSGSZ900CaCok+EoOCR4+IS7hwP+qaTlNuZL3xavs9uxG2tYD/4tR5ttAfognIm1tbWdn58aNGxsaFpwoivj+NiR4qCTKc0/Wd+GSI66fPLjv4JlbT15/7GtLaX1lRwedOXjgxM0nH31P6TINySXdv3T4wLEr9xPKM/nNpTy+cebQwWOX7zwr/0Ekbempz5oNLnTr1aSjI2tKjNutfiAvoTloDiT4Sq6SXMkKnwfWrMdin14tvl+0+btjY+2YZ9sW/RnX8ZcD/S2VuSbSqFGj7O3tfX19jx8/np2dHRoamr/J3d39hx9+GDBggBKHA4BKhjWu3aJj7U/Tl5ZV43Y9GytnrDIMyZo4enV3LHePRnbN29m9e/t7D8LQw6Ox+Pjd4Ify3g3FRJR6fsGUbZntf1/7nQOuYQVQIfVJ8Obfnsz+9qMaQCXA2gxcd9ToXEJuNpEox27wX0dbd62l9LcBb29vb2/vqKioPXv2rF+/PiEhYdq0ad26dWvcWLnvtAAAGk5Us1tXl9mLb95I4BtasikXFkzYzA/e+tco5HcA1aok68HD54M1bdSlf1tHPSJte+/+3V2rVtjfYK1ataZNm9agQQNjY+PZs2cjvgMAlJvIYdA3XqIbp86lck+3jxm2o+q8Xat6KfWLUwD4AOozBw/wQViW5fmy3bkKAACKY2uMPZ06loiIvt755GsVVwMACvgYDRoOCR4AAAA0DBI8aDgkeAAAANAwOIsGNNyECRMGDRqk6ioAAAAAlAYJHjScp6enqksAAAAAUCacRQMAAAAAoE6Q4AEAAAAA1AkSPAAAAACAOkGCBwAAAABQJ0jwoOFCQ0NPnTql6ioAAAAAlAYJHjTcypUre/fureoqAAAAAJQGCR40HO7oBAAAABoGCR40HMuygiCougoAAAAApUGCBw3HMAzm4AEAAECT4J6soOFwFg2A2rl48WKzZs1UXQXAZy0qKkrVJcD7fIoEn5SUtGzZsk8wEMDb7ty5w/M8/gLfb9OmTaouAaDAiRMnTpw4oeoqAAAqr080Bz99+vRPMxBAifAXCAAAABqjYhO8np6ehYVFhQ4BAMpiZmam6hLgc+fv789xnKqrAOXYsmXLvHnzBg4ciG9B1RqCXOXEYJkOAAAAUK6UlBQTExPF/wcFBTVu3Fi19QBoGKxFAwAAAEq2cOHC/P+fOHGiCisB0EiYgwcAAABlevToUf369XNzc/Mf2b9/P26PDaBEmIMHAAAAZZo6dWpubq6RkVFMTIyzs7PikZycHFXXBaA5kOBBwx05cmTs2LEymUzVhQAAfBYuXLhw6NAhIpo1a5alpaWvry8RPX78eNWqVaouDUBz4Cwa0HCzZ8/++eefU1JSjIyMVF0LAICG43nexcUlODjYzs7u3r17UqmUiHr06HHkyBEjI6NHjx6Zm5urukYATYA5eNBwDMMQET6pAgB8An///XdwcDARLVu2TBHfiWj58uUSiSQ1NXXOnDkqrQ5AcyDBg4ZjWZaIeJ5XdSEAABouPT199uzZROTl5dW3b9/8xx0cHMaNG0dEmzZtCgsLU1l9ABoECR40HBI8AMCnsWTJktjYWIZhFOe+FzZ37lwzMzOO47CyJIBSIMGDhkOCBwD4BJ4+ffrbb78R0ZAhQ1xdXYttNTExmT9/PhGdPXv26NGjKqgPQLMgwYOGq1Gjhru7u1gsVnUhAACabPr06dnZ2Xp6ekuXLi2xwZgxY5ycnIhoypQphZeKB4APgAQPGm7IkCFXrlwxNTVVdSEAABrr2rVru3btIqLp06dbWVmV2EYsFq9YsYKIHjx4sHbt2k9aH4DGwWqSAAAA8OEEQWjRosWtW7eqVav24MEDHR2d9zTu3LnzyZMnTUxMIiIiMLcC8MEwBw8AAAAfbseOHbdu3SKipUuXvj++E5Gvr69YLE5OTp43b94nqQ5AM2EOHgAAAD5QVlaWo6Pj8+fPmzVrduPGDcUtON5v/Pjxa9euFYvFISEhijPjAaC8MAcPAAAAH2j58uXPnz8not9++60s8Z2IFixYYGJiIpfLJ0+eXMHVAWgsJHgAAAD4ENHR0T4+PkQ0cODAVq1alXEvMzOzuXPnEtGJEydOnjxZgfUBaC4keNBwW7ZsqV69elRUlKoLAQDQNLNmzcrIyNDW1lbk+LIbN26cGAbUOwAAIABJREFUg4MDEU2ePFkul1dMdQCaDAkeNFxaWtrz589zcnJUXQgAgEYJDAz8559/iGjixIk1atQo174SiWT58uVEdPfu3T///LNC6gPQaEjwoOFwT1YAgIowceJEQRAsLCxmzpz5Abt37969Xbt2RDRv3ryUlBRlVweg4ZDgQcMhwQMAKN3+/fsvX75MRIsXLzYwMPiwTnx9fUUiUWJi4sKFC5VaHYDmQ4IHDYcEDwCgXDk5OdOmTSOiRo0aDR8+/IP7cXZ2HjlyJBGtWbPm0aNHSqsP4DOABA8aDgkeAEC5Vq1a9fjxYyLy9fVVvMZ+sEWLFhkaGubm5k6ZMkVJ1QF8FkTz589XdQ0AFUgsFteoUcPLy0tPT0/VtQAAqL1Xr171799fJpP16NHjp59++sje9PT0xGLxmTNnHjx44OnpaWdnp5QiATQe7skKAAAAZTV27Ng//vhDIpGEh4fXqVPn4zvMycmpV6/e48ePGzZsGBQU9JGT+gCfCfw7AQAAgDIJDw/fsGEDEY0bN04p8Z2IpFLpsmXLiCgkJGTTpk1K6RNA42EOHgAAAMqkU6dOp06dMjU1jYiIMDExUWLP3t7eFy9erFq16qNHjwwNDZXYM4BGEqu6AAAAAFADJ06cOHXqFBGNGjUqMzMzMzNTiZ1PmTLl4sWL8fHxixcvVkzJA8B7YA4eAAAASiGXyxs2bHjv3r2KHkhLS+vu3bu4pBXg/XAePGi41NTUkJCQjIwMVRcCAKDG1q9f/wniOxHJZDLFYvMA8B44iwY03KlTpwYOHHjp0iUvLy9V1wIAoK5atGhx9uzZcu0yYMCApKQkExOTPXv2lGtHhmF4nseiNADvgQQPGk7xHoCzxQAAPkbTpk3Lu4uWlpbiv23btq2AigA+a/iACxoO92QFAAAADYMEDxqOYRhCggcAAAANggQPGg5n0QAAAICGQYIHDYezaAAAAEDD4EpW0HBt2rQJDQ2tWbOmqgsBAAAAUA4keNBwBgYGDRo0UHUVAAAAAEqDs2gAAAAAANQJEjwAAAAAgDpBggcAAAAAUCdI8AAAAAAA6gQJHjTc8+fPlyxZcv/+fVUXAgAAAKAcSPCg4aKiombNmhUaGqrqQgAAAACUAwkeNBzu6AQAAAAaBgkeNBwSPAAAAGgYJHjQcEjwAAAAoGGQ4EHDIcEDAACAhkGCBw2no6NTo0YNPT09VRcCAAAAoBxiVRcAULGcnZ2fPHmi6ioAAAAAlAZz8AAAAAAA6gQJHgAAAABAnSDBAwAAAACoEyR4AAAAAAB1ggQPAAAAAKBOkOBBwz1//rxVq1Z79+5VdSEAAAAAyoEEDxouOzv7+vXr0dHRqi4EAAAAQDmQ4EHD4Z6sAAAAoGGQ4EHDMQxDSPAAAACgQZDgQcNhDh4AAAA0DBI8aDhFghcEQdWFAAAAACgHEjxoOENDw3HjxjVp0kTVhQAAAAAoB4O5SQAAAFA6a2vrmJgYS0vLmJgYVdcCoGkwBw8AAAAAoE6Q4AEAAAAA1AkSPAAAAACAOkGCBwAAAABQJ0jwoOEEQUhKSsrKylJ1IQAAAADKgQQPGu7169dmZmY///yzqgsBAAAAUA4keNBwDMMQ7skKAAAAGkSs6gIAKpbinqxI8ACa5OrVq9HR0aquAkqhWAY+NjZ2z549qq4FirCzs3N1dVV1FfBRkOBBwyHBA2iepUuXHjt2TNVVQFkNGDBA1SVAESNHjty4caOqq4CPgrNoQMMhwQMAAICGwRw8aDgkeABN1aNHj127dqm6Cnin3NxcjuNEIpFEIlF1LZDHy8vr9u3bqq4ClAAJHjScRCI5ceJEzZo1VV0IACiZtra2tra2qquAd8JvpxLCL0VjIMGDhmMYplOnTqquAgAAAEBpcB48AECB86t3cnK5qqsAAAB4HyR4AIAC4Sev39h6DCEeAAAqMyR4AIAC1g1q3955+vjPm1VdCAAAwDvhPHgAgAJ9fX5QdQkAAAClwBw8aL4dO3Zcv35d1VUAAAAAKAcSPGi+ESNG/PXXX6quAgAAAEA5kOBB87Esizs6AQAAgMZAggfNhwQPAAAAmgQJHjQfEjwAAABoEiR40HxI8AAAAKBJkOBB80kkEoZhVF0FAAAAgHJgPXjQfPHx8aouAQAAAOD/7d1nQBTH3wfw3+41QKqAdFFAUKxgxRpsaGyIsf2NLZrExJJEjTF5jJqYGDWJKSYmxhh7jTWxd40xYsEGig0VBem9HVf2eXGwLM074M7z4Pt5dXtzMzsz3HC/m5ud1RvMwQMAAAAAmBJE8AAAAAAApgQRPAAAAACAKUEEDwAAAABgShDBAwAAAACYEkTwUPtNnz596dKlxq4FAAAAgH4ggofa78CBA2fPnjV2LQAAAAD0AxE81H64JysAAADUJojgofZjWZbjOGPXAgAAAEA/EMFD7ccwDObgAQAAoNZABA+1H1bRAAAAQG0iNnYFAAyud+/ednZ2xq4FAAAAgH4ggofab8WKFcauAgAAAIDeYBUNAAAAAIApQQQPAAAAAGBKEMEDAAAAAJgSRPAAAAAAAKYEETwAAAAAgClBBA+1X3BwcLdu3YxdCwAAAAD9wG6SUPsVFBQUFhYauxYAAAAA+oE5eKj9cE9WAAAAqE0QwUPthwgeAAAAahNE8FD7IYIHAACA2gQRPNR+iOABAACgNsGVrFD7ffjhh/n5+cauBQAAAIB+MBzHGfoc9+/f53cCkUqlPj4+fFJ6evqzZ8/4Qw8PDysrK/4wOjqanzq1sLBo1KgRn5SSkpKUlMQfNm7c2NzcXPOY47jbt2/zSdbW1u7u7vxhQkJCWloaf+jj4yOVSjWPFQrFvXv3+CQ7OzsXFxf+8OnTp1lZWfxh06ZNWbboF4z8/PyHDx/ySY6Ojo6Ojvzh48ePc3NzNY9Zlm3atCmflJOTExsbyx+6uLjY2dnxhw8ePJDL5ZrHZfotIyMjPj6eP3R3d7e2tuYP79y5o1KpNI/Nzc0bN27MJ5Xpt0aNGllYWPCHt27d4h9bWVl5eHjwh4mJiampqfyhsN+USuXdu3f5pDL9FhcXl5mZyR/6+fmJRCLN44KCgpiYGD7JwcGhQYMG/KGw3xiGadasGZ9Upt+cnZ3r16/PH8bExBQUFGgeSySSJk2a8EmZmZlxcXH8YZl+u3v3rlKp1Dwu02+pqamJiYn8oaenZ7169fhDYb9ZWlo2bNiQPyzTb97e3jKZTPO4TL/Z2tq6urryh/Hx8RkZGfyhsN/kcvmDBw/4pDL9Fhsbm5OTwx/6+/vzj3Nzcx8/fswfOjk52dvb84cxMTH29vY2NjYEVVdYWPjRRx8ZuxZ1yN69ex89etSkSZMBAwYYuy51yOzZs93c3GpYyJUrVzZt2qSX+kA17NixIz4+vnnz5n369DF2XequSZMmtWjRoqalcIbn5eXFn87Ly0uY9Msvvwgrs2vXLmGqMEjq1KmTMGnhwoXCjOfOneOT+LBPY8iQIcKM7777rjD17t27fJIwmiSiN998U5hx2LBhwtTMzEw+6cKFC8KkefPmCTMKdyKXyWTCpH379gkz/vjjj8JUX19fPqlhw4bCpNWrVwszbt++XZgqDMLatWsnTPriiy+EGU+dOsUn8d8WNAYMGCDMOGPGDGHqrVu3+CRhME1EEydOFGYcOXKkMDUlJYVPunz5sjBp7ty5wozBwcF8kkgkEiYdOHBAmHH58uXCVGHM6urqKkxau3atMOPmzZuFqQ4ODnxSmzZthElLliwRZjx27BifxH9Z0ggJCRFmnDlzpjD1xo0bfJLwOxgRjR07VphxzJgxwtSEhAQ+6dq1a8Kk2bNnCzOW+acsTDpy5IgwadmyZXxSZmZm8+bN169fz0G1CL81AdRWERERNR8sGzZsMHY7AIxsz549NR9KL2IVzaJFi/hZ2DIzfN27d1+5ciV/GBAQIEz9/vvvFQqF5rGzs7MwacCAAcJ5R29vb/6xVCoVlimcSSWiUaNGCb/3CAtxcHAQZhQGgkT01ltv9erViz/kp/w1pxBmbNeunTDjrFmzRo8erXksFpfq8NatWwszlrnr0MKFC/lZWOFPE0TUpUsXYca2bdsKU5cvX86H48IGElH//v2F09XCLwlisVhYpvAXDyIaMWKE8NcD4Sx7/fr1hRmFk+VENHny5B49evCHlpaW/GNPT09hxsDAQGHGDz74YPjw4ZrH/M8dGi1atBBm7NKlizB1/vz5/M8swtMRUVBQkDBjhw4dhKlff/01v9hG+CsKEYWEhAhn64VtZFlWWKZwAp6IXnvtNeGPJ8LpKxsbG2FGPz8/YcaJEycK2yU8u7u7uzBjmzZthBlnzJgxdOhQqoi/v78wY+fOnfnH0dHRUVFRFeaCqirzfwzA1EVGRvKfxXqEkQJ1TXZ29v379/VVmqFW0bz++utSqfSPP/4wROEAoF8XL17s2LHj+vXrx40bZ+y6mKTc3FzN18Vdu3aFhYUZuzoA+hQZGdmyZUsiioiIqHnYvXHjRs3/GQOFHwAvrezsbM183J49e0JDQ2tYmqHm4G/dumVmZmagwgEAAAAA6izsJgkAJBKJzM3Ny6zyAgAAgJcTPrABgNq2bZuXl2fsWgAAAIBODBXB29jY8LvmAQAAAACAvhgqgj916pSBSgYAAAAAqMuwDh4AAAAAwJQgggcAysjI2Ldv35MnT4xdEQAAANAOETwA0N27d0NDQ7H4DQAAwCQYKoI/evToiRMnDFQ4AAAAAECdZagrWefOnWtmZtarVy8DlQ8AAAAAUDdhFQ0AAAAAgClBBA8A1KhRoxUrVnTs2NHYFQEAAADtcE9WAKAGDRpMmzbN2LUAAAAAnRgqgp8/f75IJDJQ4QAAAAAAdZahIvjQ0FADlQwAAAAAUJdhHTwAAAAAgClBBA8AdPPmTT8/v3379hm7IgAAAKAdIngAoPz8/Lt372ZmZhq7IgAAAKCdodbBDxgwQCaT7d6920DlAwCYvoL4qydPht+NSyuQ2Lo3Der5SoCrhbHr9AKpcx5fOnX2yp2naYViG0f3ph2Du7VyNiv1ElXq/RsPM1QksvNq7V2/4jkndXrMjZg0JSeybhjg28Bglc18FHk/pZBjLN3bNnUuOXfU4b3HrsfnS+3cm3bu1d425Um519RUzpPIO4kFHDFmTn4tPCz1VayJqeNjpRYMlkrHSoumzrIanCw79ubdJDnHHzOMSCSRmls5uHk4WdbuDRc5wwgICAgKCjJQ4QCgX+Hh4US0fv16Y1fEVOXk5Gj+o+7atUu3HKrEs8tfb+sgYQT/jhmZW9epG6NyDFtXvct/eHjZzB/+lVcpk+rZiSUjWtqJhe0nRtKg7dhvTz9Tlbwu6dcQGRGRbMiG3MrKyt023IohImnwj9VuRAXKtCv/r4lOLBFJOi4ufoXyzm+hbvyfkLF4deXGcq+pMWX00i5mjOb9EfTVbaXeCtbdzZs3NU2MiIioeWkbNmyoWvhR18dKrRgszxsrt2t06oJjUzwq3PmQkdj69H5vc1SlfWEEWVlZmsrt2bOn5qVhFQ0AkEwm8/DwsLSsq9N7L5o6bs87PfvP2nQlRcEREcMwDENEnDzu3MoJPYevvK00dg11pE47uzS0datX5269kaHWPZsq9s83Xxn48Y6b6UqOSNABiqQrG2f37zFhc4xxe0C3dimjtvx6IE7BEWvtFdTzlc4hvdrqfwQpb2zaclEzwcgVXt60/kqh3k/xUqvrY6WWDJYXMlbK4BQZ94//OL7/lJ0JVelwE1K7f2AAAJ20bt06NjbW2LWoK9Sx66e9/XtULsew9h2mLFk287WObqpH/279ata8jdczVYlHPv1409DdE1xMYIJF/fTkjoN3s9VsVT6NVQ9+e3vKujv5HDFm3gM/+nLexFcD3dikqOOblvzfFzuisvPvbp76RuuAE7P8dbyniKzzzA07his41imwWq0or6J2Sdu9s3p7/wKOdWhZ3JC4pwlqIpL4T912dnF7MZH62aUyr6kp+b/rt0UpilYIcIrorWvPfNqhT51ZPqLTWNk7wcXY9dRBtcZKrRkszx0r7nqpB1Ov24e/TW8nIY5Tq5X5qdH7f16++3au8sn25evnDf3ItxbeochQEbynp6dMVpOFTQAAtZLyyq/LD6SoicRekzce/Ll/fSIi8us17Y+/zFID3t6fxmWc2Xs4eZzmN2YiUiVf27tu7e5/omJTFebOvp1eHT9lbFdXaVFp0buXb7uey1i3e/29Lhnbvv95x7m76WyD5r3Gvjd9aLNSwUL2rb2rVu04dTM2TS51aNym5+gpbw3wrUdERHmXN377932lyOWViX2zf/+/H08n27QaOvPTd7o0YEn++MTqFWsPXX6Ywdg0bNVz9DtTBje1LMr09bp/EtVERLnXtn+54HKjkOkTO9uxVHkeIio4+/03x9LURKzToBVHd0320nwMubYeMmdzRx9pp5EbHyszz3337aG31wwU1p/Lub37u+82nriVwjj6dR85470RrWw1PcRlPbkVGSnnxHkNh3X3Lnr586rw/P6opF3W2XHRkZE5nMjDZViwOu3ftT8dPn01S01E6qyIzYsWHHLr9c5EZ8FrSJeaPK/niSjn6IadD5VEYs+2rfKvRSSpnuz+Y//iPiPsqvy2M0m6jRWaMLE4w3PHShUGy4sYK/MndSai2j9YemgdK68Ek6UONamk598orqPEtV3o8OEl325HNHz6b+jaBLUqMS5eSbUxgjfUOngAgLqjCuvgFTcWBkqIiCQB868rSqflXtu3fs/ZW4n5/DOqlNMLg50lpRfAiup3mn0gTrP+NX/PWHuWSOQyeOoYX3PB61j7Piui+UXTinubxvqZlyqGWJu2c46lqDiOX0Ar9u0/uIXmVYxl/1XxKlXa2YXdHESlFiBbtnh7V6yyJFMJSZdl95Xcc/NwnPzsez5iIiKx/0fh5dYDK6O/CpIyRCRym3wwX3ASsU9gG1tWWGTLqX8VrQEut7RXSxW09Ecl7Sq1tFd5b0mQpPSHqaTdoqicsst/tdaksp7XpKZsGW7PavrqzKF3GomIiLHuv+qpYO3zi2CsdfB6His6DpYXNVY4Tuv7o1YMFu1j5bZuNamk5/OK1sEztiN3CJe8y6O/DbZkiBibQWueveARUyn9roNHBA8AUFNViOBztg63ZoiIdRy3N1/La1XxW0a6ioiIkTh1mvDpN8sXTe3T2JwhItY2+LtbCo4PSoiIkbh2nTT/62VzhzatxxARiZvN+U/zqa+8tfwVG5aIWNuWwz9aunzx+wOaWDBEjNhn2okcroIAg7Hos/KpKv3gW43FDBEjcXvl7YWL549vby9iiFj7wWtiVVzGwXmDuvvZskTEmDXs0K//oFk747Xk4VQJK/vIGCJiXSYdqKD98nMzfcVERJKgJfeUwpoxsoY93/1i+bKPi6cTRe4T/0rnuPJBiZYqaOuPittVOoJXxf05c1C/9h6aptg1C+7ff9B7Wx/nlongtdaksp7X/Pmf/trPiiFiJIHzrynk52b5iomIMeu8NPrFXs9qrAhez2NFp8Hy4sYKp/X9UTsGi/axclu3mlTS88VXsjKSRt1HjBo1atSoUSOHh73apYmtiCFi7botvvjyXMuKCB4A9Cw5Ofn333+/d++esStiqnSP4FXPfu4tJSISe884rWVLCsW1+QEShogxbze/+ENI+WDVQAeWiERub/ydXRKUMNK28yMKOI7juIJzs/zERMRYDN2Yw3EcJz8/209MRKzj0PVFs7vyiEXB3k0Du/R9Y9VNheCzkXXos/T8s/S4S2evJime/T7QmiFipIGfXtYUnXF0ireYiJF2WnxbyXGc4vqCQIkwwlBpy6OM/LydZlq11bzLZaZVOY7jlPeXdpYQEYn9Zp+Xl9SMsQj68oa8qAu3jHBmiYixHbaZ48oGJVqroEN/lGsXV9H2Gvn7xjdgiUjS6auikLr0a7TXpJKe19RJeWdZVzOGiJF2XHxLyXGKy/NaSRgiRtLi44sVdJ3hGCmC1/dY0WWwGGascFxF76m6NFieO1Zu61STysZKpXvREDEix+DPTicYY/+mSmAvGgDQs5iYmMmTJ58/f97YFan9WJGIZYiIOLm8kHvuS1WPjhyPVHDEyLpMnNK2aHmnyGvM5AGOLJEq4fTRKyUvFnkF92uu+XyTNfVrLCIiTpWfV0BE6vj/Lj5UEjGyjgMHFl0fKw2Yd/L+7Svnjqx5q4XgciiR+7APZwQ527q269bGUXn538s5HJHYN2RQa03RNt0GveLIEqe48d9/WRXVuVD3PCpVhRtEKJSqop5ihD+niwOHjfbXrGdmnQcPD7ZlibicqKvVqEIV+qNmqtAZpXueJSJS3ty0JVzOEWMWNHKkr4hI3Gb0iAAJQ5zi9ta1p/P0VcuXl37HimAPn8oHi4HGSsWVxmCpSk1KlB8rRETEiKxdvX18fHx8fLwauTvZykQMp0o+tbBvx1Fr75rKjkVVY6grWf/880+xWDx06FADlQ8AYJKsXFxsWEpSq1NjH2UROQrTlJG7f7/l8urAoIYWRKSKi0vkiIit79lYcHsWWWNPVxElqtVJ8fElWRmb+vWLJ6LMircR4Dg1EamTklPVRMRY1rfXsomJqLGfb/Flf1SQlJTOEZHy/qqwJluLPiwKM1I4Ik4RH/tUSeWvp9SWh0TOTvYihhSc6tmjWDm1L/sZpHz8OE5NRMQ6OjuXJDJiB6cG/ESbxNXVkaU0NZeVXr4NWqutzte5P2pGhw7kW1iq54mI5P+t3xap4IhEVvLL3743jSEiLkVtyVAap4rd9ceBL3sPr+3Xs+p1rChLbkJf+WAx0FipuAQMlqrUpOS/TbmxUsSq//c3tpVcyZoXs3fOsP+tvJb/ePecT3dO3D7KkNU3DkNF8F999ZWZmRkieACAUqTtOrYx23A0j5NfPHos9c3/2Zck5Z399cPpPz+cbu096qeT68e6WNQzY4iIKyjIV5W8Sp2bn88RESMzF96RUSzm/52Xmo8jIplUqtlCO09YTkWYetY2fPwjFotZIiLG0tW3mQe/ArVZayISNWwoY4jKTYxqy0Nk06aNl+jILaU68+yhU9nDBlqVyi+/dOR0goqIRG6tAgX7aXKq3JxcNdUrekZRqNlgUWZevg3aq63WuT9qRocO5JXqeSLKOb7+T80+36qkC1tWXihdsjr5wLqd8cPedK3dP6PrOFbubRzLah8rwq6qfLAYZqxUXAIGS5Vqwis7Viph4TX44zc6rZ5xqlCdfvEcESJ4Q8v759NXwn7KGbbuzMr+Dxf3GvxtYv9fT68Zlry8X/8vHnT/4dS28Y2MXUUAgBpgnYeOCfn0+J5Uddq+hbN2dP59RCMxEZE6/Z/FH294qCSOya/X2N+FJbGPv68FE5Wpzrp0LkIe1lXzqaaKPX/hkYqIkfi3aa3TGcWeTRqZM1cVXP6dm7eVo9qJiYjyzix5e/V9O/dGnUa+/7+AktdKSnaNkHp7e4jorpKt3/fzvd92kRIRZd888Pdd1t2zkW8zXxGRsiT+4XTKQ0SBYUOaLr8dqVDFb5m3YHTQN73s+U/jnEvLPv7jvpKIxF6DX+skvGxNdetieO6UQVZEROqEG1HxaiJG5OlTvrlaqy3O0NofZmXbVS06dGAJYc8Tpe3fsO+ZiogRm1tblQo+1QXZWflKLvvk+s333/iwVm6Rx9NxrBDpMlYkRAqtZzTQWCEi4XcFTqdMGCyVDZbSY6Vy+fcfaH6jYKRm2l5rmmq+lL5CAQEBQUFBVc2lSlofassw5l2WRSsyto+yZxlp24XXFbl/TXRmGUnzueGGqCoApKambt269eHDh8auiKmqwl40HMfJI7/rqfmpnxHXbz5g0sy5s98Z0dldM83EiNzH7NBsfqZK3DzckSUixqrt+38/lnOcKvW/pX2dRETE2g347bGq5OI8zSZuGrkbhmhurh7yaxLHcZwq/o8hdiwRiVwGrriexXFcVsTSnnYsESPx/+iCvLLbseefnOaluYit56J/ElUclxG+sLMVQ8TI2n1+Q8FxnPL2lx0lpLlMLp1TyuVK7Xk4Vfy20W6aPeNYK7/Qj1ftPRN+8dyBdZ+NaWNX9LRT6NpHmtbwV68xFq3e3ftIznG5t9aObCxhiBhZxy+jOK7c9hpaq6C9P8q3qzpXsurQgRX3vCpuVf+iTVhGbksr/ebJ2D3WhSUiRtLyk0sv6HpWY+1Fw+l3rOgyWAwzVjiugveUTu+P2jJYtF7JqkNnVNzz/JWsjFmrUfPmF/n0k9lvD21tr+kiUcO3D1fxTWooprEXTfUieI5TpUaeOHz5mYLjOFX6rZOHwp/KOY7jsu6cOfTfY227SQEAGEXVIniOUyWdWhDsJC6z2oWIETl0nX8qhd+8WHln9RBXzcsYmZ2bh6OFiCEiRuw2ZFV0qQ3ynhfBc1z+1a+6aXaVYyTWzu7OVhKGiBiR24jNT1VcpZ+NykfrhrpozsjK7FycbTTZJN5v/l1Ux/RNYTaadAsHF8e2/3dJoT0Px6lSzyx8pUH55hMRMWz9oI+PJRa/tKhmrK2LsznDyOxcG1gV9YfEe3JRiWU3yNNeBW39UUG7qhPB61CTinpeee+bbmaafb4n7c8u+94pjnRI1Pjd4y9mmzwjRvD6HCu6DZYXNlZ0ylRbBov2CF57TbRE8JVgJJ6jt8RiP/iqOHny5JkzZwxUOADAS6WqETzHcZwy4fzvc0a90tzNzkIikVk5Nek4eOp3xx4VlHlZfvSOOQP97YtvVMOwFp49Z26P5rdt0ymC5zhVytmvhze35W+Xwkgc205YFZGlSa3ks5HjuIxLv4wPdJAIsrV/c31UyXRK+ok5bW00O4YQ6/zG/nwd8mgqfu+vz0e3dzVn+dCEYWQN2oR9uvNWjuBlRTWTtP7k712zurtIi+ZebVtN+ONUmWeiAAAgAElEQVRmcVXL3aRGhyo8vz8qald1InjtNamg54s3RiSxz4zTFUxcFe8qSazT//5MK5+uf0aN4DlOX2NF18HygsaKbpk0FTf5waJDBK+1JrpG8AzDisQSmYW1g0eL4Nc/2/eg7PvEiPQbwTMcV4OFSwAAQJSbm2tpaUlEu3btCgsL0/8J8p5FRtx4kCy3cG3RoZ2XTXVXP+fFXQu/GpOmMG/gG9i+uZOui0MLEm5evHI3sUDq2KRdp1YuZbIVJkX+e+FuptjBO7BDS2cznfIUU+fGRUbcepycpbZwcPdr06bx85uW9+TKvxFPFI4tu3TyLrmYLXdzWIOxe/I4aZ+V8qPv6FptIi39UXG7qkW3znhpRUZGtmzZkogiIiICAgK0vv75Nm7cOG7cOCIyUPhhemMFg0XIxAfL82VnZ1tbWxPRnj17QkNDa1gaIngAgJoyeAQPFct9EnXr/tlv3pi+45GKsRy2OXvnaGNXqRYyrQgeKoHBYnz6jeBr91ZUAKCTq1ev2tvbb9++3dgVAaiKgtMLe3fq+e6ORyoiRuzbormxKwTwssJgqXUQwQMAKRSKtLQ0uVxu7IoAVIHy3uXrqZrt4ljbgHc/f6eFsWsE8JLCYKl9DLUffNeuXc3MzI4fP26g8gEAoI4T+03fcrbT7afZbIPmnTs3s3/JbnAC8PLAYKl9DPU3zMvLU6vVBiocAACApPV9O4X4GrsWACYAg6XWwSoaAKB69eoFBATY29trfykAAAAYG35HAQBq3rx5RESEsWsBAAAAOjHUHHyrVq00m08BgI6Uj/87H1NY5snM6+eupmNBGgAAAJQwVAS/bt26VatWGahwnWXe2Dp/Qv/OrZv6+vkHBIXM3BWPSKhqlDG7/u/1Ee/8HJ5R+WvK93IVC9CNOun4t+/P+L8tNS1H5/PFH1z63owFO+6q9Ffk85qgjts9JaRn3/E/lHo2Y/+sQT17h351IUdvtQAAAABTV4vXwRdeXzaox+tfbL8hd2nZLtDf3TwnKbUA94+oksL/fpy7bPOfq2Z/tjO1kldU1MtVKUBnXPrlnSt/XntSc6S8tuqdMaPHzFgbpSx+gfrZvvlj/zd67IK/E3T/oqaK/2/Ldwv/uFh25ptInXJxxy8rN5x5qqwgW/WUbkIpBdeWjZ607lmbWUvfKvW8bb+5Cwean/9s9Ds74vD1EwAAAIioNq+DLzi+4sfz2Q3H77ywJtSpFn9RMShpq7CxPY9sSOsypqdthS/Q1staC6iuwnunt23dliG67j5mzNKOUiJSPdr23Tebz+SLA/0+/HSQs45/8uxDX7wx68yATXPe6CDVawWrpODykre+OC8J+Xnjp51tSieJfSasXn2p85DV703v3Wnn+IYGeis/e/Zsw4YNAwcObN4ct/kAAAB42dXa0FYVFxWdxNl2G9IP4XsN2HSff+T2/Uu/j/ESVZSsvZe1FFBtqtycfNbVvcGDvds18+eqO1u3XbRv5CHhcnJyTGu2WvXgt4++uyLuMe+HyT4VfKVm7ft/+c1Y9+S/Fiw6VOO1SJV58uTJ3Llzr1y5YqgTAAAAgP4YKrpdvXr12rVrq5U148yP77+35ECcKjdqx7zRwQH+zdv3e+un86mlorKM61vmj+3TvkVT/4DuYdO+O/ao7L0kuYKCAmLMZDKmkrM8p4Aa1kAdf3Dpe+//fC47J2rbJyN6tGnWLOCV0Qv2PihbRVVi+Lp54/sHtW7q1yyg+9B3l+6/X6jTCXRQ407MPb/y/WnFZiza87DC1eDP6WWdCtDSRnXatS0LJw3s0qaZX7M23SZvus+Xoc7KzuUkrUN6OT7ct/1fOZHy2tYd1537h3WoR3k5uZzWE2SeXfH+tGnTpn20PVpFhTc3zSqu6vSZqy8JqsCKmKxrG+a81r1Ns2aBwWM+P/Co9KKagphD304N6x7o39Q/oOvgt5bsu5OrYxN48nMrVpzN8xo7b5JPZd9y6r/60fTOsifbvt/8uKIvJ+r0s1+FdQjoOWXTHf0t+QEAAICXF2cYAQEBQUFB1cmpevpjsFTSfOoPczvZSeya9gwd0sXTgmEdQ9fGqopekXT4gzaWIptmA6fMnTfnzVeb2rBi18G/3VFwHKe4vfXT6VOnTp367uudnUWMZcvQd6YWmfHV/qcqrQXUuAYcp7i+IFAiaT9xejd7iX3zPmFDg5tYs4xZm3kX5SXNLIhcNdRTyjDmLi17DAoLDenawsWmz8oETpcTGLoTOY7j0ta/5mxnZ2dnZ2MuZsR+s/8V1F2nXn5uAbrUQBX756SmFozY1rf74OGvDQ4OcLcUMazLJI7jOE55+8uOEouhv++c5CZp+PbhXPm5Wb7SJu8f2/OGi7j+mN352k6gerY6VFM9SylDjNTSrlh919e3l/wZRR7BAwJsJLZNg4cO7elrwzLmbRdc5v8K2RcWv+IoYszd2oYMGz6kh6+dmGHtu38ZnqNLE4rlH33bQyRp+cml5/5xVfG/vWrFyLp/G6Msn5iy+lUzhojEfrPKdbOOwsPDiWj9+vXVyw45OUXXGu/atcvYdQHQs5s3b2re3hERETUvbcOGDQYNPwBeWllZWZo3/549e2pe2ksawTMSqdQmcMa+WAXHcco7X3czZ8x6/xSn4jiOyz76jpdY1mr2mYyiHOmnPmguYZ1G70jluIKTM1s42NnZ2dnZWkgYRiSz5kOzBt0X31BoLUBLDTgdClBcXxAoIWKs2kzdF6vkOE6VtG2UMytuNue/4kYqbn4VVI+ReL62OjKHfy4tKa0oiNNWwxp1YtXOIL8wp5m4bACuSy8/twDtNVAlbh3pJJL4Ttr1uKg4ZfRXnSTF4a/i0ictJFbDt6Uee8dT4jZpz8HpXlL/j8KzT7zbSGQeuiFH5yam//6qjKkXtjm3XB8W/xnrtXzrzxhFcZVYsf9HFzRNkV+aHyBjbbt+dj69qIZP90zylTDmXZbeVmpvQvFpwuc2F4u8pp/WEnqrHi7vLmUsB6+t4C2gvPNbqLtUZBM453j680upFCL4GkIED7UYIngAvdBvBP+yrhHnnIeu3L18sIeYiESNgtp7iJSxDx8piSjnyLodj6Tdp3zQtfiSP9tuk0a2FiWfPnKhgGTB395MTktLS0s6N7eVmHUeu+1ZWpHEMx+3FGstQEsNSNcCWLuQpbt+GOwhIiLWvmtQM7E6Ma54m0X5uVW/Xcx3DFu68o3m9YpziO0c7TSroHWsYTU7UQ9n0KGXtdFSA3Xyvg37k817z14U2rCi4lQ52XkklUktuo0a2ihp/+fz9sa3eG10oFRmJmVUuTk5aj11ImsX8vXela81FhMR69Cts79YnfBUsylMYfjmrTdVjccumhNUdJGuyG3wolm96xVc/OvvRyqtTSiSGx39SCXxa9lCy4W0rEtLf2e24N7te+W3zRH5vrnnUWZW4pWlvap7vXDTpk2PHTvWt2/fauYHAACAF+hl3YvGsstroZ7Fq4KlbT86eH0SV7+RlEh573pUFsc83vnBmLP81w95TLxanZaQUEBkpq1kXQuouAY6F8DYePm58cuaJVIJcWpl0Rpo1dNLV5+qzfr16+tY0TeoGjexWA2bYEjaasBEXbtdIPIKDKywh4i4nJxcTiqTkazTqKE+Py27Kuq0eHQLMXvNXMZweTk5nDJeL02s+M+oJiJ12s2bj1XmAzu1ExTFOrZv6y0++ujePSW5a2mChiotObWQsbB3qPecFxERkcixgT2rTkxNrXhHVJGZRU2uFba2tu7du3cNCgAAAIAXx1AR/Jo1a1hWbxP8Zg28/RtoHqrzcvM54hR5WZmZJZdP2rfu+6q0XUNd9gOsXgH6rAFxebn5xJhZW5vrsYZa6bUJNaWtBlx2Tg5HTvXqVXIhslozBy9jSNp29PAW331tO3JEExGRmUxGlJeTwxm8iVxeXgHHSC3MSw0hRmYmJU6pVHJam1CUgWGIOLVKpcv2ORwxjP5GFQAAAJgqQ0XwAQEBhilY5OBYn2GSO87cuXW41mnLl7MAYh0a1Ge5yKexiWryLB+Q1fwE2hj+DDWtgdzayorhMtPSVURFU8vK9PQsfvpZnptXSDKZjCESt/nsauFnmqdVZmYy4pJzctQ6N5FhiKpzny9RfUd7KZcT9zRVTW78H1Hx+GG8WuTq4SEmRksTNFg7B3sp5SU8S1eTxXODc1VSYoqabeDiUvFUuzw3T1TP4mX9TQ0AAAD0yeQm9ESNOrVzZzJPbt35pHqbfhu/AGIdO3duJlaEb/ojoqIV2bqfQB65emx7b692r/92sypbTeqhCTWlrQaSpi19ZaqHF/6N1aw8UqeenDf159vFeyWqs7JzOUZiJivz/mXMzaQMl5uTw+naRKmFuZQUiXHPKtwt83msOnZqKS0M37G5ZAdHddLfmw8nMF69+jUTa2tCsXrNm3uLlbcjKnwrCKjirkcmcdb+rbzLR+mq+78NbmRn49r9839zqtqMEhyHOxbrgRqgNsJgAdALPY4g05uzk3WdMrXrxjn7poWMiPlwYu8WblZMfnri08eZziGjurno8I3E+AWQuNXkWaG/T9j51ZCQ1I9mvNaxoTQ7Ljr8ZEKbzz4ZYKf7CeTnVn659fJjFT3+cuWE8b/0lulwah2bUHh9y9Ldd5REXMKFVE7Nha/7YsERhsReAz4Y38FShzNoK0BLDVinQaP6fHJs/zdvL2i4IMQsYu3Cz3YqmjYzv5ZORERcTnYuRzJp2RazZuZmDJeXk8vp2omydkEB5rv+Xf7mJw0+CWtlp057fKeg6YQB/tpbKPKd8N7Qn1/f/lnoqMLP3u3jJXl2YePiz7YmOIWtnd5RSkTPb0IxcYvePTyWrDx54J+8QSEWlZ5NHXfoyDWlde/e3Sp4jfLx9RvJCqXq3x9+PjKry7Dq/Kxy8eLFjh07rl+/fty4cdXIDrm5RTcCGD58uHFrAmA40dHRNf+B/dy5c5oHIpF+b/QHYDLCw8NDQ0NrWkrNt7OpkFwul8urtTW1ZiNE29F/lt/fj39J/NGFA5tYsYIFxox524VXhbsYKiI/bysRuU0+WFDlAmpaA81G4o3ePcGfWpX4S18pYztyh6CIjEsrxwc6SopLYESWXpN2plWliZzq8ZohjiKGETkO/v1RqW3Ca9yJWWsHVfR9QNpzRZxKp17WoQAtbVTGbHnD35IhImIkjkHv7Y7eNd5RrNmKUX5hTjOxpNPi6LKbo+dsHGrOmA9Zn61zJ3I5l74b0ticfw1jFrpR07bK/4x8r6Zf+GFUc1tRUWZGYh84/teILL7o5zWhhDz84xYS1nHYpgQVVxnFjc/byUQNKttOVHl/ZYgdS4xswJpqbieJ3SRrKDExsaL/rwC1ypYtW2o+WN566y1jtwPAyObOnVvzocRwhvnpPDAw0MzM7Pz584YonIiI1Dmx1y/ffJQiF1vVd3T3bdHU1bJqX+eNXwCRPCnq0pV7SXKZvad/YGtPq9IT+DqcQP7k0qkornlwBw/dJ+D124Qaen4N5AnX/wl/pHRu1bVjY11m/qt8giKFybcvXopOyGfrOXr6t27haVOF36bUOY8jwq/HZrJ23oFBrV3LbnKjQxPUcWvD2kw+6DTzZPjXXSuaQFfHbx7Zdvx+t3nnzi9sW+FluKq7S7u1mHvJZ865a0s7VudCXczB11BWVpaNjQ0RhYaGhoWFGbs6APoUGRm5bNkyIjp9+nSPHj1qWNry5ctnzZpFRPzG8AB1RHZ29tSpU4lo9erVkydPrmlxNf8SUKHq39EJoM5RRH0XbMuat55zNqt8ourx5hFuImmz909mlE/kOI4riP/351FNpCLHAavuV3DHVp1gDr6GcEcnqMVwRycAvagbd3QCqEPE/tNWfzukftR3497e8rB0Us7FJeOm7cpuN3fNomCb8jnlh6d4Wrl1nXFINHjpnvWTvav7E4qNjU2fPn1cXV2rmR8AAABeINO7khWgFhJ7T1iz5dGAoas2Hab/vVPyfOa5deuuOo77fcf8oArX4Iibjf5qbf+GHbsH+djVZAGUn5/f0aNHa1AAAAAAvDiGiuC7d+8ulb6QewMB1AqsXfeFB669LfYo9axNv+/PRKY5ejhXEp6LPHv8z/MF1A4AAABeIoaK4L///nsDlQxQW7F2Hm7lnpS6eDgboS4AAADw8sI6eAAAAAAAU4IIHgDoyZMnH3744ZUrV4xdEQAAANAOETwA0LNnz7755puoqChjVwQAAAC0M1QE//XXX2MpPAAAAACA3hkqgt+6deuOHTsMVDgAAAAAQJ2FVTQAAAAAAKYEd3QCAGrRokVERESjRo2MXREAAADQDhE8AJCFhUVAQICxawEAAAA6MVQEv3v3boZhDFQ4AAAAAECdZagIHj/HAwAAAAAYAq5kBQBSKpUpKSlyudzYFQEAAADtEMEDAEVERDg6Om7fvt3YFQEAAADtDBXBJyUlJScnG6hwAAAAAIA6y1Dr4Pv162dmZnb+/HkDlQ8AAAAAUDdhFQ0AAAAAgCnBfvAAQPb29qNGjWrcuLGxKwIVU6c+uP4wq55nS1/H4n/auQ9O7tp/MTZXZNes7+julo8fZtXzDPB1rOYJcuOiohO4Bn4tPCyJKOdJ5J3EAo6R2Hu3bGxbfqJHnfHw5oNUBUkdfVp42lRjIkiVev/Gw2yrxq187EXVrHEFSjeCP9fDAyu2pnWZMba9Zd61LT8ctwibEeon1d9Z4SVTfrAIx8o73S3LDqUqqvZYaeVpU53zYbBAZTjDCAgICAoKMlDhAAAvlZycHM1/1F27dhmi/PTfX5WRtPfKhKLj/P8WdiyKnBmLAWtiipKrXb783Exfsdjn/bNyjuM4+dn3fcRERJKW/3dZUf7Vikv/11JCRKzzG/vzdTyD4tm5lTO+PJirOUr6NURGsn6/pVS7xhUo3Ygiyugfe9u7jtyaoOI4TpWyZ3xD265LbsgrKwMqcvPmTc3bOyIioualbdiwwaDhR5nBUmaslB1KVVb9saLrGUqPFQyW2iQrK0vz5t+zZ0/NSzPUKpohQ4YMHDiwytny/vm0g6Od/5R9yerCi190c7bznbg9Xq28/k1vV9vGo9Y/MkBNAQBedhL3dv369+vYUKY5LAzfuvFKlnn79/88f/XS2e9DHYqS9X1aRfRfe64ryz6rvLp7b7SiSgWpE1aP6z111YVEld7qptt5Yzd8tOiC34z5w51YImLtB82bGXBj6ezVD15wReDFKT1Yyo6VMkNJb0x+rGCwmB5DraJZsGBBNXKpcx9G3kvNlEfeTVO/8ijqdnJm9s3oFHVh7K2oxKzUyOgkItwoCgDqnHohn+0NKTlUp6dnqMVNB04KDWohJiLyKZWsF6ytfzPLO9F/77m+sG1b4SdF4ZWde+9K3T2sn8XpXppapVJzeq6hdrmnv158kB285S3/4uUHIp83Zr72ddjSrw6N+X2g7QuvELwApQcLxoqOMFhMz8u1Dp51fH3NOfcpBf69/MTiJr/84zg+27dnK7G01Q9nTo1Ia/RKB2NXEACghnIubfjuYFanN8Y2vLn9r8j8Bq37DunTTLOANu9J+NGj/91JlJs5N+3Sr1871+KJQvnVzcv2xjQaOHNs2+xTv/128p+b+Zw6+fzvixbU9wyZ/kbbR5rkT8e2509TaVlFlElXD+7/JzpZ7dS635DgCuopbRM6QL70j7JhSeGVnfvuW/ae0vPGyo35pXNUckrlze1LNhx9rCb1vb+XLIj16Tdjog9fi9TIo3+fuPFMYd24ff+B3Rpblv5dOCfmn0PHL91PUdZzbdYlpG9bl6o0Qv1s+/ebHrmM+OlVO8GzVn3Gv9Zow5rvN83rP62RHtcVgwFUZ6yUDJYxHhcrHyszx7avV5zjpR4rQSXVwGCB0mq+EAcATF1MTMzEiRP//fdfY1fEVFVhHbwq/qdeUrHXgFGd7VgiIpHruN3pHKdKPLXo1UbmDBHDMAxDxNRrErb8QromU8niXcWNxd0b2FnJWIaRWNja2Tn1X/FQlV56Hfzzy+I4LufaL6OaWrGMJp2RNew/cWCjMmt72Qbjdx57z0csaTVPuL5Xfm6mr8R++IZ907xEgnXwzztl7p/j3GzrSRhipJZ2dk4DVsZqlvZK2v3vrSBHCVOcQ+ox8Mdr/Lp6+YOd73dxkvAlMqxlk6HfnE9T6dgIThnzfbC5yGXi37lcaQXH3/UUSTt8GaXU+e9bxxlrHXy1xkrJYHnuWClaB/8ixwqn/ZTlx4oKg6U20e86eETwAMCFh4cT0fr1641dEVNV1QieiLXuOHv/w5ycp5evPVZwyjs/h9izYpeen+yIeJavzH8WsX1usLNI5DZqa5yKK39x3u4x9VlJp6+iiz5WS0Xw2srick7PbCZlZN7Dlp98mC3Pijnx7TBvGUNULirZl3H2/Salw5KCs+83kTiO3pF4aroggtd6SlXcip5Skg1am6UpJunXEBkRI2rQ48Mtl+Jz5Rl39s3pbMsyNoP/SNDU8dzc1uaM2Cl47varCfmK7IdnVk5oacWyTkPWxCh1aoQq/tcQC8Zy8LrUcn+C7O0jbVlZ9+UxiEp0Y9QIvqpjpcxgqWysJHDcix4rnE6nLDtWMFhqE9OI4D/55JMFCxYYqHAA0C9E8DVU5QiedRq3J5t/Lv/Eu41EooaT/k4XvC5x82sOrKTtwhtclSL455el4Li0rcPrs2KfaSdKzp/7z8ym4gqiknz5uZm+wrCk4PR0b4nT67syCoQRvNZTVhzBs7aD1jzjZwnzD7/lIRJ5vH20gOO4lI1htqzIY8LeFD6dU977oac1I/adeY7TpRH5f090ZiUt/+9S+Q1ClJGft5OwdqP/zHn+nwqKGDeCr8pYUXBVieC1jjv9jhXdql9xBI/BUjvoN4I31Dr4Q4cOmZmZLVy40EDlAwCYMJFvq9bmxQfKqFPn4tTiltzdjStW8C/hstj6rDLq/HmilroXrKWsVLVv1LlLmYzzawO7lOwDbdFh2ACvH39QlytN2n7YIK8ff/xr780FbQPEJD+/c3+sQ//lfW3osu6npJZOFfeBf9fujvxSXknDhs4sdz87iyOSXzobns04jxjVz75kqa/IZ/SoLh+fOn7uDFG7q9oaoU6NeZSmZlt5eJb/lBM1bOgq5q4/jklQkTdW977sqjJWKn2zVUTruPPV+jYT0MtYUVdWfQwWKO/lupIVAKBOYK1s7fiPQ2VCfJKKk0f8MSui3AslaUlVKlhLWSmcKjEhRc36urgIP43FHh6uLD0tX5y0Xdhg7x9++Gv3zQUBAcpzO/c/bfDqa70sS71G2ymJKo5KWCtbG0ElGJYljuM4NRGXnJyqZlu4u5f+hLJ2c7VlubQkIu2NUKdnZHGMxMq6HpUnsbIyZygrM90IW35AVVVlrFT6ZquI1nH34scKR05MhXXFYIHyEMEDALVp0yY2Ntbe3t7YFak7WLbkk5oRi8WMyHXclvNLupW9/yEjta5SuVrKchSxd8ykDFdQkC+cReSUSlXFH9DSdsMG+3z//V+7by5olvLn/jinV18Lrkckr8IpK68rU8kdSRhzMzMiubygdJ1UBfkFHNnIiFiZtkYwLMsSqdXl50qJSK1WqTkSifABaBKqMFaqdE9ireNO+9usFD2MFRFRhe9YDBaogKHu6AQAJkQqlXp4eFhYWBi7InWTxM/PS6ROjryV6ehSwkkad/F0eGRctj7L4kji799EpHp0NSJF8HmdfzPyfiW3bZEGDhvchLu9f8/lEzsPPnMdOOKVsu8SrackooonFisj9fPzEisfXrmcLIwplJGXrmdxssZNSIdGMPYOdiwpM9MzKghL8tMz8omxs6+PT0BTo8ubTU9l6fI2K80YYwWDpQ4z1J/k5MmTBw8eNFDhAAC1COsxJKxLPeX1Xz/5Laqg6Dl1wsGPxwwfM2L2nxX8Xl+TskRNhg0Pssg/9f38vbFFt5DMvfrT8r2Jlcz9kTRg2GBfLmr3p8sPJHgMGtHNrBrVZ0ViMVHZecBKiZsNC20jzT25fP7f8cUZCqJ+XfjHbbVtz7D+ujSCtfX1cWbVT2Jiyt0nk5QxD5+qGQfvJk4ISkwNxkpZGCx1l6F+F7G1xQ28AAB0IvKe8v2iA30+PDija+D+Ya+2sS+I+XffX+fjpK0++OaDQH2WJSYiv3e++WRfyKd/jAq6MWRwj0bcnUPbD8UUyiqd+pMGDhvit/yr4yfFPu8N71zB3ei1n5KsXZxtWMXZr8KG/9dr7OLPumhphLjlBz98cmTAZ2tGtLsxZGiwj3nKjUO7Dt/OdR3y87LxbkQk0toIWWDntla/Hrh2NVnd1a1U8KFOvXo1RmnRq3P7CtoCLzkd3mx6Kot0eZuVof+xsiC07GqbsjBY6ix8qQIAKigoiI6O5je6ghdO1ur9v/7d9fnrAcyNnT9/890fx5469Zr+y/FjX/eu+o/XWsuyaP/JgdMbPxrkmnxy/Y8rd91xGLZ844ftJJUWKA4IG+InIbHX4OGdKv4c13pKs34fLh4TYJcSvmfT6v3XdWiEZdD8w/9s/WSoV/qZDd99++u+KPOuU74/fH77m02LgjStjbDuM6iHteLqqZMZZYrOPnvqktyy26D+uOzDJNWtsVKoQyswWOqqmm9ICQCmDvvB11AV9oOHFyZ991hXsV3YxpTSz+4Y7ShuMHJbSiW5oBxj7QcPLw4Gywuh3/3gDTUHf/fu3Xv37hmocAAAAC1sB7w3uWXe0XVbH5VceaiO37n+YKbfhPdCMakIwMNgMUGGiuBHjRo1fvx4AxUOAACgjTRgxvzRdudW/nyh+KrBwohffjpRb+i8DzpiWS+AAAaL6cE6eAAAqJ1Y+8FfLA3NXrvojxgVEaljNy5alRiy6KvhzvjsAygFg8XkYI9+ACAnJ6dp06Y1a9bM2BUB0C/WbeTK/TYnUhQFRPUKC71eX+FEfwUAAAcLSURBVLO/x4DGuDs8QDkYLCYGETwAkKen54oVK4xdCwADYOu3fnW45qGZT/BwH+PWBuAlhsFiUgwVwY8fP14sxtcDAAAAAAA9M1SQ/d577xmoZAAAAACAugwXKAAAAAAAmBJDzcFzHLd//37+0MnJqUOHDvxhVFRUTEwMfxgcHGxpaal5XFBQcOzYMT7Jw8OjTZs2/OHVq1efPn3KH4aEhEilRXcczsrKOnPmDJ/k4+MjvCzvwoULycnJmscMwwwcOJBPSk5OvnDhAn/YvHlzLy8v/vDMmTP8DvxmZmZ9+vThk54+fXr16lX+MDAw0M3NjT88evSoXC7XPLaxsenevTuf9ODBg1u3bvGHnTp1cnR05A///vtv/nGDBg06duzIH96+ffv+/fv8YY8ePaytrTWPCwsLjxw5wie5u7sHBATwh9euXXvy5Al/2LdvX5msaHuo7Ozs06dP80ne3t7+/v78YXh4eFJSEn84aNAg/nFKSsp///3HH/r7+3t7e/OHZ8+ezczM1DyWyWR9+/blk+Li4iIiIvjDgIAAd3d3/vD48eP5+fmax1ZWVq+88gqf9PDhw8jISP6wY8eODRo04A8PHDigVqs1jx0cHIKCgvik6Oho4d0JunfvbmNjo3msUCgOHz7MJ7m5uQUGltzE/vr167Gxsfxhnz59zMzMNI9zcnJOnTrFJ3l5eTVv3pw/vHjxYmJiIn84cOBAhim6g3Vqaur58+f5pGbNmvn4lCw2/OeffzIyiu6KJ5FI+vXrxyc9e/bs8uXL/GHr1q0bNmzIH544cSIvL0/z2NLSMjg4mE969OgRf0MWIurQoYOTkxN/ePDgQZVKde/evXXr1v3www/CjAAAAPCSqvlNoSqkUCiEZ+nfv78w9f333xemRkZG8knCAJ2Ixo8fL8w4evRoYWpycjKfJAwKiWjOnDnCjL169eKTGIYRJh06dEiY8ZtvvhGmtmjRgk9ydnYWJq1fv16YcePGjcJUYXDZqlUrYdKyZcuEGY8cOSJMFSb16dNHmDR79mxh6rVr1/ikhIQEYdKYMWOEGceOHStMjY+P55Nu3LghTJo5c6YwY0hIiDBVpVLxScIvWkS0ZMkSYUbh9y57e3th0ubNm4UZ165dK0x1dXXlk/z9/YVJy5cvF2Y8cOCAMFUkKrliPjg4WJg0d+5cYcbLly/zSampqcKkkSNHCjNOnDhRmBobG8snCb+DEdGMGTOEGQcMGCBMlcvlfJIw7ieiL774QpixXbt2fJKNjY0wafv27cKMq1evFqYKo3lfX19h0o8//ijMuG/fPmEq/12OcE/WGsA9WaEWwz1ZAfRCv/dkNdQcvEgkEk4JC+eYiWjKlCn9+/fnDxs1asQ/dnBwEGYUzmoT0ccffzxhwgT+kJ9JJSIfHx9hxsaNGwszLl26lI/V+NlQjfbt2wsz+vn5CVN/++237OxszWNhrENEffr0EWZs2bKlMHXHjh38HLyVlZUwacSIEa1bt+YP27ZtK0wVlung4CBMevPNN4U/AgjnvO3s7IQZhXEwEc2ZM+f111/nD+3tS26w1rhxY2FG4d+CiBYvXjxz5kz+kGVLll0FBgYKM/r6+goz/vLLL/w7lf+dRKNnz57CjMLvSES0devWgoKiG0rwv8xoDBs2TDjPLZwsJ6LDhw/zc/DCBhLRpEmThFPLwqpaW1sLK+Pi4iLMOGvWrFGjRvGHwm9lDRs2FGb09PQUZly0aNGMGTP4Q4lEwj9u3bq1MGOTJk2EGX/66Sf+twthLiLq0aOHMKOwK4ho06ZN/G8X9erVEyaFhoYK39XCH2eI6MCBAypV0U34yryHAQAA4OXEcKUnfQEAoKpyc3M1Xzh37doVFhZm7OoA6FNkZKTm631ERESZKYBq2Lhx47hx44gI4QfUNdnZ2ZrFz3v27AkNDa1habiSFQAAAADAlCCCBwAAAAAwJYjgAQAAAABMCSJ4AAAAAABTgggeAAAAAMCUIIIHAAAAADAlhtoPHgCgDhozZgx2k4RaRngzbD0aM2aMIYoFeGnx9xfSC0TwAAB6U1BQsGXLFmPXAsAEYKQA1AQieACAmhKLxX379jV2LQAMS3MzmhpydXXFYIE6zsnJqeaF4J6sAAAAAACmBFeyAgAAAACYEkTwAAAAAACmBBE8AAAAAIApQQQPAAAAAGBKEMEDAAAAAJgSRPAAAAAAAKYEETwAAAAAgClBBA8AAAAAYEoQwQMAAAAAmBJE8AAAAAAApgQRPAAAAACAKUEEDwAAAABgShDBAwAAAACYEkTwAAAAAACmBBE8AAAAAIApQQQPAAAAAGBKEMEDAAAAAJgSRPAAAAAAAKYEETwAAAAAgClBBA8AAAAAYEoQwQMAAAAAmBJE8AAAAAAApgQRPAAAAACAKfl/IT2FEZ+DehQAAAAASUVORK5CYII=;" vertex="1" parent="1">
          <mxGeometry x="540" y="161.17" width="673" height="269.74" as="geometry" />
        </mxCell>
        <mxCell id="kGa_pBdqIZK06uq2p0jP-3" value="" style="shape=image;verticalLabelPosition=bottom;labelBackgroundColor=default;verticalAlign=top;aspect=fixed;imageAspect=0;image=data:image/png,iVBORw0KGgoAAAANSUhEUgAAA9oAAAGcCAIAAACp609IAAAgAElEQVR4nOzdZUAUWxsH8Gdmg5ZQ2gDBQgSlLNALChZioNiBAvoqFta1O7CTa2NgYFwxsbAQL0qDAYigiJR0LsvuzPthAVFRVgWHeH6f2N0zs39wPfPsmTlnCJqmASGEEEIIIcQEkukACCGEEEIINV5YjiOEEEIIIcQYLMcRQgghhBBiDJbjCCGEEEIIMQbLcYQQQgghhBiD5ThCCCGEEEKMwXIcIYQQQgghxmA5jhBCCCGEEGOwHEcIIYQQQogxWI4jhBBCCCHEGCzHEUIIIYQQYgyW4wghhBBCCDEGy3GEEEIIIYQYg+U4QgghhBBCjMFyHCGEEEIIIcZgOY4QQgghhBBjsBxHCCGEEEKIMViOI4QQQgghxBgsxxFCCCGEEGIMluMIIYQQQggxBstxhBBCCCGEGIPlOEIIIYQQQozBchwhhBBCCCHGsJkOgBBCCCH0WX5+flJSEo/H4/F4NE0zHaeBYLPZkpKScnJyrVq1Ikkcja1bsBxHvy4lJSUoKCg4ODgsLCwzM7O4uLi0tBS7zrqGIAgulyslJaWqqmpsbGxqampiYqKkpMR0LoQQKkPT9LNnz54/fx4cHBwUFBQbG0tRFNOhGiw5ObkuXbqYmJiYmppaWFhoamoynQgBgcUT+llRUVH79++/du1acnIy01nQL2rdurW9vf2MGTO0tLSYzoIQarxyc3M9PT09PDzevHnDdJbGiCRJOzs7V1fXPn36MJ2lUcNyHIlLIBD4+Pjs3bv38ePHlZ9v1qxZ586dNTQ0JCQkuFwuU/HQD/D5/OLi4sTExIiIiNzc3IrnCYKwtbV1dXW1trYmCILBhAihxubdu3ebN2/28vIqLCwUPSMhIdGxY0dDQ8POnTvr6upKSUlxuVzsmmqKUCgsKSnJzs6OioqKiIgIDw9PTEyseFVPT2/WrFnOzs4sFovBkI0WluNILAEBAY6OjhWjF/Ly8iNHjuzevbuhoaGGhgaz2dBPeffuXXh4uL+/v4+PT3FxsehJU1PT48eP6+npMZsNIdRIHDx4cMGCBQUFBaKHVlZWU6ZM6dWrF5uN19D+OZmZmd7e3sePH09KShI907Vr1+PHj7dv357ZYI0QluOoGjweb9myZTt37hR9VPT09BwdHYcPHy4lJcV0NPRbcnJyzp07d/z4cdEACZfLXb9+/fz583GKD0Ko9iQlJU2dOvXOnTsAICUlNX78eEdHR7xqjkEURd29e/fQoUP//fcfAEhISGzcuHHu3Ll4LPiTsBxHPxIWFjZ27Njo6GgAUFdX37JlC15e1sBQFHXhwoVVq1bl5eUBQI8ePU6fPo2HRoRQbfDz87O3txddMmdqarpr1y5tbW2mQ6Ey586dW7lypeiUhZWV1ZUrV2RlZZkO1VhgOY6+69mzZzY2NqIqbeTIkevWrWvSpAnToVCtSElJmT9//sOHDwGgRYsWDx8+bN26NdOhEEINip+fn62tLY/Hk5CQWLx4sYuLC46/1jUfP36cP3++aIaYubm5r68vVuR/BpbjqGoVtbi0tPT+/fv79evHdCJU606ePLls2TKhUIgVOUKoZlXU4goKCufOnTMwMGA6EfquDRs27N+/H7Ai/4OwHEdVqFyLnzlzxszMjOlE6A+5evXqjBkzKIrCihwhVFP8/f1tbGxEtfj58+f19fWZToSqsXHjxn379gGAubm5n58fLptW21irV69mOgOqW9LS0szNzbOzs7EWb4TatWunq6t78+bN3NzcO3fuODk54UIHCKHfkZub27dv36ysLKzF6xELC4uSkpLnz58nJiYKBIK+ffsynaiBw3IcfW3ChAmhoaFsNvvs2bNdu3ZlOg7609q1a9eqVStfX9+MjAwej2djY8N0IoRQPTZjxoxHjx4RBHHmzBkjIyOm4yBxWVhYvH37Njo6+unTp/3792/evDnTiRoynEWBvuDl5eXj4wMA8+bN69atG9NxEDPs7e1HjBgBADt27AgICGA6DkKovrpx44anpycAODk54TGl3tmwYYOKigpFUZMnT+bxeEzHacjw2nH0WXJysr6+fnZ2toGBwfXr1/EqhcYsNzfX0tIyNTVVV1c3IiJCWlqa6UQIoXqmqKhIV1c3JSVFR0fnzp07eLeK+ujOnTuTJ08GgCVLlmzcuJHpOA0Wjo6jzzZu3Jidnc3lcnfv3o21eCMnLy+/fft2AIiLizt06BDTcRBC9Y+Xl1dKSgoA7Ny5E2vxesrGxmb48OEA8M8//xQWFjIdp8HCchyVyc/PP3nyJACMHz++Xbt2TMdBzLO0tLSysgIADw8PPI2GEPpZosXyunfvbmJiwnQW9Otmz54NADk5OV5eXkxnabCwHEdlTpw4kZ+fDwCOjo5MZ0F1xZQpUwDgzZs3t2/fZjoLQqg+efz4cWRkJJR3I6j+atu2bc+ePaH8+xWqDViOozKi/2a9e/fW0dFhOguqKywtLbW0tABAtAAtQgiJSXRM0dDQ6N+/P9NZ0O8SjdNFRUU9evSI6SwNE5bjCAAgMDAwOjoacGgcfYkgCNEkHl9f37S0NKbjIITqB4qibt68CQBjxoxhsVhMx0G/q1+/fqqqqgBw48YNprM0TFiOIwCAwMBAAJCSkurTpw/TWVDdYmtrCwAURT1//pzpLAih+iE6OrqgoAAAunfvznSW6vE/xUVFRL75VFLFawVJryMjX7zPoWrmraisd1ERUW8zBTWzuz+GxWKZmpoCQFBQENNZGiZcPQMBlP8H69ixYx0cxij8GP02o+T7EwkJlkJLvVYKf/KbpSDj7evk4iZ/+m2ZoaGhoays/OnTp+Dg4MGDBzMdByFUDwQHBwMAQRAGBgZMZ6mWMOXigkHrQg2W3L8yS/erQ2BJ0J7xE7zyBv4TcWhITaz2mn9r+eAF/l03BZ+dpFzPDh+GhobXr18PDQ2laZogCKbjNDRYjiOA8q6zc+fOTAf5Fj/q0JSRh98Jv99CxramOkoxUWmXF9uuCuu7L+rocLHeVpD+/PTe/1osmWNVPxfvNjAw8PPzE31IEEKoWqIhHh0dHVlZWaazoJohqhDy8vJiYmLat2/PdJyGBstxBLm5uW/evAEAQ0NDprN8i9XcymWBQnbZiUIq6f7hcyElHYbNHFQ+iEFw23bgMpevelT66dmjlgT22rmY6SS/ytDQEMtxhJD4wsLCoI4eU9AvqjjRERoaiuV4jcNyHEF8fLxoVek6+R+M1bz35Dm9yx+V+Ked8w6hdPrNmGdXb0aaKaGwhi47ZIienh4ApKen5+fny8nJMR0HIVTXZWZmAoC6ujrTQWpF4fvA+/4RCZkCabU2Zn/1NlCV+NkGFajs4PMnHyZRqj3GjeuhUqcvX5GTk5OVlS0oKMjKymI6SwOE5TiC4uJi0Q8yMjLMJvkdRR9DHz0KfvuJL6Gia2ZpaahW0f0VRVw8eC/PaOyk7uxX9+88jc2Eph16DbTqoMgCYU7Mw1uPXqVTim3NB1jrN2V93iDbwGFKTzL0zt2g9zwZTf1e/cy1f/TXKfn0+tmT4OiPWUWUZNNWBuaWXbWbkAAgeH1l34VHSRRQCXf2bf2oZek2uvx2GN9PXNdIS5d99SkuLsZyHInp/PnzRUVFTKdAzPj06RMASEpKMh2kpvHf39gwe4lnUEb5XExCWrv/gt3bXUzKZhJV26Cy3Oe7pkzeHsztveLk/+p2LS4iKSlZUFDA4/GYDtIAYTmOoOK/loREnS0If4jKeLpn7tw995Mquggp7QGL9+5wMZIHACiO/Hf3rg/DiLebDp+IzBWNU7N3DNh0zOnT+v/tCEgXdZqsbVZrvY85tuOKNtgZN4D/xv346RdFbA6UlgrZzcxcdh1caqX6bY9JZQfudZ21+8HHSj0Uu1k3tyOn5prJ8N/6nTzzJEMIgvePThwLMlFxG21SbeK6puKYWvHNDaFqzZkzJzU1lekUiElsdj2qMeicmAdXLkd9NUWRevOh0koCRc+3TZ11OEa2h+uB1c427aU/BV/cvnT9hXVTKPnrR8a0ZFXfoJLC8P3OU3cES/y18uRh50714nQvl8sFAD6fz3SQBqgefBtDtY2iyi6lqJ9zpYVvT8523vqIbzz74O3w+A/x4bcPuHYpuL3W6W+f1IprRIQJF3bdVHTyfPTqXdyzk84GnJRbK0dMOsme5Okf/S7u+elZJjKfHuw++KhiLI9Kurr/Kmm/517Em7dRDw+6GAiC/pm18OyHb6eUFj5xn7vtQU7byfvvRMQnJcVH3D00s6tcZuDeHRc+UiBtuyf44bKuHOD+tSHodeSpSeImrksqPhgVHxWExEeixofpD90vEMb/u8p15tdm7XqUVVGOZ/kePPmar2G/5dDfdvrKkmyZFt0mbT+6uIdMxr39x0L4YjQoR/NeHZ02efN/HMtVp+pLLV5BdHUrqln16JsrQlXh/XfE43GuxijPI39bywMASHay+/uAIOGvWTcOnJ5tO7+D6DNOyfSav3OetRoJoGA1c4zpicjHZLd1u+b0USUBmljOnNTzWPDdmNfJQuuyKaJEE8sVR9bbNycBoO3glQdyYvssfuh59tWoRZ2+ONIIEqLT5VoZD1mzapi+BACAckfbBbMfXZpwNiH2XSlofnvCQczECDUE7u7uixYtYjoF+tM0NTWTk5OZTvFTWDoj1i60bvbVoJQw5uzynQ9FC5KXRASGFRAqdkMslT4fBVjaw4aYbgrwf/7fe6FhUjUNzNoAAACdcn3epOdPP8n037ljin79qsVRLRH3wJ+cnPz27dtajYKYEhUVxXSEXyeIDXieSrE70PEXjx6teJYuIBVIQUxwcDbVQRkAANg6pl3LV3klZZsqSgJby7BL0/Iuk6ugIENAacnns5LS3e0GNa/oUUkNG2vDFQ+fPX+WBp2+mJzE1nc5dtel4iFVlPH25fOQjwIAqPqEXnWJoSwxQgihP4aQb2MxaPA3647L+q8jQFSOCzMzsymynbrGl5WTrLpaE5LOycwUVtsAROW4IO5poKJKU3b6/QMHng9a0a0ez9pCNUXcctzb29vNza1WoyD0CwTpaRlC4EedW/Ptdwp2dkYWDaLilmiiqFhp1IMAAAkpqYpnCIIgvxgUIZXUNaUqP5ZTbiYJdFZGBsDXawUIP4VcOn7mVuDLuMSkj6lZxUIgCIImVKHKE3rVJQbAchwhhOoeSQkJAH7JV7elE5bwSmiQ43LFaCBCNuu94tTuTv+OGHP42Ird/a8sNcUR8kYPT4uj+o1gsdkEqWrvcW1ZV87Xr3HkmpaPdBA/ezmjoPTL+yVTxcWlABJSUl+1EyZdmjXczecjW72TmbGF2SCdth2NjLk3pk49/p2559Ul/pmQCCGE/hCujk4rtuBtZEQmZfB5Vr8gJvxlPs010m7J5kpV06DsGVaH/sM7qShrrRl9d9KpI8v39r+82AgL8kbup8vx+Pj42siBGPTkyZOJEycyneIXcXR1WrKokJjYvKZ2ehUfZyor4s6jZOl2xj2UfrGPozJiXqcILbXKy/mSF5ExfEK+TbvmX7YTvPDadz2J7DLf58L8iuk4hddO5lC0RPl0ly+vRaytxH9C/ZzsixD600TDHw1szh+7zaD+HfdtDTi49Y71lv5qJAAAL+bktrNvKPm+A62USLZCNQ2+3J9870Urht93Pn9oqUd/nwWG9WBRSNE/aP2cqlvX/Vw5rqSkpK2tXUtREFMSExNFPwgEgh+3rINIjX4DTbc+Czy5yWvw4cntJAEAqHS/TTNdTie2nXPtlp7KL+64NOzUjht2O+yaswGAF31i17/vaY2xQy2kASqvLiLMzMilCAk1reYVVXTRy5MnH+bSoCgQ0AAAJIvNBqBLSngUyJK1l7j2lJaWin7gcL4ez0cIoW+JVkctKSmptmV9wu7gsm72wwnbz0zr/6rfgJ7aklmv7t948KZIrf/G5Q7qJABZXYMvkU37LVlq+2jW1X+W/tPv33md6vxSw6JlkaW+OUuMfh9erII+/9eql2v7s7Qmrl3kN2qd3/IhNncH9dFXLHkfdPtOUApHz2WlS6df/4ATnE83XAfFXu3foxUkPLh6N7pYe8zW+X99PeVGwqhvbzVv7zurx82KHdhJQZge+9T3ZjCvSVNWbmF+vujrjayKshxRGrh3qnOw+Yg9CwfUUuLaU/HBwF4YISQOUV9RWFjIdJAaJmPidsZHd+/Oo9cCLhy6TcuptjGbuNZl5kRzTbaYDb5Eqg5ZvvhqwPzbHssO9rs4W49bVaM6gqZp0Y298EBQG+risR/9YYqKiqIf0tPTdXV1mQ3zCyT0XI5fbXVg1+HL/teP+xcTsqptzafOnTN3nLHib5xR43R1O2wVt/vIFU8/WlHbeMKG2fMmdqvitmkK/dcdd5dcf8j31j9brnIVWuh1t93g49TKx374wcjAZzCiD4Ck5Ywlw2O23Az1vfReYc/CAbWUuPakpaUBAJvNlpWVZToLQqge0NHRiYqKiomJYTqIOFit/ueT+L+qX5Ow3BKStKXyMzLt7P4+YPf393f3wwbyY73eja38BNl8tGfU6J8LzIyEhATR6Q4dHR2mszRAhJiXdu3cudPNzU1JSSkzM7O2M6E/jKIoBQWF/Pz8FStW/O9/3+mTGpPMU2ONFz/tsSX0zHglprPUCYsWLfLy8jIwMIiIiGA6C6o31NXVU1NTcd3xxmnDhg3Lly+Xl5d//fo101lQzbh8+fLMmTMBIDs7W0FBgek4DU2dHItDfxZJkkZGRgAQHh7OdBZUF4mqcBMTE6aDIITqB1NTUwDIzc199+4d01lQzRBVCLq6uliL1wYsxxFAeaWF5Tj6VklJSXR0NGA5jhASW0V3gYeVBiMyMhLwQFBrsBxHAOUjGR8+fEhJSWE6C6pbwsPDRSuriD4kCCFULSUlpbZt2wLA9evXmc6CakBqampwcDAAdOvWjeksDROW4wgAwNLSksvlAsDp06eZzsK8phPOvEt+hxeOi5w6dQoA1NTUDA0Nmc6CEKo3Jk+eDAC3b99OTk5mOgv6XSdPnhQKhRISEmPHjq2+Nfp5WI4jAAAVFZURI0YAgJeXV8Ui0whlZGRcu3YNAFxcXHDRcYSQ+JydnSUlJYVC4cmTJ5nOgn4Ln8/38vICgFGjRikrKzMdp2HCchyVcXV1BYD09HQ8t4gqiL6esdns6dOnM50FIVSfNGvWbNSoUQBw+vTphnY/oEbm2rVrGRkZADBr1iymszRYWI6jMt27dzc2NgaAgwcPUhRVbXvU4BUUFJw4cQIAhg8frq6uznQchFA9I6reMjMzd+7cyXQW9Ivy8/M3b94MAGZmZjiPs/ZgOY4+c3NzA4DIyMgDBw4wnQUxb+3ataIbAM2bN4/pLAih+sfY2Fg0QL5v3z5cYqWeWr169cePHwFgy5Yt1TZGvwzLcfTZ2LFj+/fvDwBbtmyJjY1lOg5i0oMHD0QXC86cOROn0iOEfs3+/ftVVVUpipo9ezaPx2M6Dvo5fn5+Z8+eBYDZs2f37t2b6TgNGZbj6AtHjhxRUFDg8/mzZ88WCARMx0HMyMvLW7BgAQDo6Oi4u7szHQchVF81bdr00KFDABAXF7dy5Uqm46CfkJSUJDoQtGnTZtOmTUzHaeDYNbw/Kvf9i7hPfPq7DQhOU51O2gpMfA2gct+9iMvg04Rsc+P2an/iHXnJYffvP4v9mMXjKDRv393qry4a0lUH0m+vJvEnElVLU1Nz9+7dkyZNioyMnDNnzp49e1gsFtOh0B9VVFQ0efLklJQUgiCOHz8uIyPDdCLUOBR8eBGTxqOBpahtqNO00kGi8OPL6JRiGlgKrQx0lWuwQ6Ky3kYkZAtpQraFfnvVH/bBwpzYAD//sLjUQkJWVdfEyqantuyX+8pOiIzPFNSp/ryOsLOzmzhx4smTJ728vDgczoYNG5hOhKqXlJRkb2+flpYmOhBIS0tXvw36DTVdjpc+XT9w8JGPwu82IBTGnP94ZgQT/678x2tthnqmUZyuG/mBS8TejPfu9t69MT03ze7BFf+9qHT/3fPnbfQOzSit+GpCSGj2dNp80H28nsw3gSIDlrSvK1XvxIkTb9++febMmcuXLwMAVuSNSlFR0fjx4wMDAwFg+fLl5ubmTCdCjUWOz5yeEy/n0awW03zfHLD+XNAW3JhvPsY7hyLVplxNODqo5nojYbTH6K4rgksJhZFnEs+P/l4JnRt+YtXCtUfvJxRQ5d05wVE2nuR+bJdjp/Ivq8J3RyeaLXxSSsgNO5H47wQsx7904MCB5OTke/fueXp6AgBW5HWcqBb/8OEDQRAnTpzo0aMH04kaPrxY5UeorMfuQw0NBv59NjLnJ5YaoT5e/p/VgPleIaJanCAIggAAuuTjE4/JViM9Xtf5a0BOnDghWob88uXLs2fPFgq///0KNSCVa/EFCxasXbuW6USo8eBHBkUW0QCERCeTzpWrWf6L4IgCCoDg6hsb/cSgSPXyQ0NjBQDA1jMx+c4QkTDx8v969XLcfS++gKIr9ealn4KPugxwPPW+vG8sDgl5KQQAdjsjY7maDNkwSElJXb16tW/fvgDg6ek5b968oqIipkOhqoWHhw8fPryiFp8wYQLTiRqFmi7HOUbTD5w7X+aIiyEHAIDddvyeiiePz+leb8YNqKT752/G5v/con9U4gnXaUdeFtIE2bTrjMOP4rKKiz69vrd3kqE8CbQw7faKJV51/Ub0bDb77NmzFRX5sGHD4uPjmQ6FaldYWFj//v0ravGtW7cynQg1JlRKSPgHIQCwdbt0Uaz8QkZo2DshALC0jYya1uQhq/wLAEuzi0mLKsfcS8K3jnM8FJlPAyHTZvCyU0/eZBTxMl76LLdUIYEWfPx3xaZ7haJ9vQyOyKcAWMqGRjp4NrEqlStyb29vKysrUW+D6g4+n79582ZbW9ukpCSsxf+wmr5YhVQ1th1hLPqZSk47QAAAEE3a9RkxUq9yF1Xy3u/wXk/f4IQcQr6lgdWY/023a192IR71yf/oP/eShGzdwW6Dudd27T7zODaX09x05JwlU7o1LX79747tJx68zgAVfZupi+ba6kgCAAiivDdfelVKNOvu6Nwx/ujOA1dDPpYqtus9Zs7cUZ3kfxC46K3v4X/O3Q+PT88XsGWVWxn0HjVt2uD2sgBFwae2HvdPowAACsO9N6wK1uo3a2oPxWriC0IO7LiRQQGwWzudurl/gOhG6+36uB67KpnZZdr1LDrnkc8tmOz4s3nK/3Lv7h896HUvOC4lv5TTRF3XqO+46VP7aEmI30A8ooqcJMnz588HBwdbW1svXbp0ypQporEh1JDw+fzt27fv379ftN78okWLcPom+tOKQ0JeCmgAUt7AuEPlAxM/NPgFnwYgZQ2M9SsGxwvjbp84duFeSFxaAS2j2sZswIRpE3u3+LKbq6ZN+RcAQsrQtLMEAJX9zOsf37clNBAsVXPHaX01Eo8udn+aSwHBaTv1zKODdmqiLwN6Q9Z4JgXqz7pXIEy6dfVZST8rCSozNCxBCEBw9E2Myu5eWxTne+TgOb/Qt+lFhIyqrskAx9lTe2l8/tUEqYFnDp/yDXz9IauYkFHVMbaZOGOqVSsJ8RvUO6KK3M3N7cCBA4mJifb29k5OTvPnz2/SpAnT0RCEh4fPnz//9evXAKCqqnr48OHBgwczHaoRIWj6+9MuK9m5c6ebm5uSklJmZqa4+6aS91lrz7rPB47JuvDA5RXlOJXtv27I8HVPMoSfL6uW1Xc5cXP/8BYsAOHrDT0Mlz8v5Rg7jOLfPB1VUNaKkDOdt7bXkzU7n5dfOEJwWo4/8+z4CDUSik4PV55wuYilbTexTfDJu8mCso1IuS6zvW9tH6BCAvCuTdH68trxoqDNAwcse5xJVf4bkAo91931W2qSd7B/i+m3K91JjNNzy+snC3V+HF8Qtaar8erQUuB0WRn8fI1B5cNKUcTViwmKpj1MO6hIAnwRSHTt+A/zSABAScROW5uFfunCSg0IlkqfrXeuzzMUq8HPO3To0IIFC/Lz8wGga9euM2fO7NOnDxblDUNpaem1a9f27t0bExMDAGpqagcPHrSzs2M6F2oI1NXVU1NT3d3dFy1aVG1jQdDSLj03vSgluL23x96f16piFFwQubqryZrQUuD03PL60UIdFkBh5IEpI+ZfeFP0RTfXzHz5paureymIHovRpvDf8a1Gns6kOMZrwwKXqT1ZPcR+Q0AWRXBa2G67cmZ2F8ngZUY9NkWV0iyN8eejTg1XqhSXSvP3uhhNqmo01zPrpadM8m5MbW13LIVid/w7IHyTGZtKveE2cOzesLxK51YJjtZ4r4DjDhokAOQ/3TjEftXDVMEX+dT67bp7xVWfK06Deu3u3btTp0798OEDAEhLS9vb20+ZMqVdu3ZM52qMSktLb9y44enpGRQUJHrGwcHBw8OjadOmzAZrbBi4djzn9t+T1j/JEAJH869pqzeunGTalAUFLw67uJ74UPmykNKQC+fS9Sev3LplwQAtDgF0ftCOeTsilWzmbNy6ckwnORLo0g8XDlyqfOGHIOGq5wPoNnX11g0LhnVsQgKVH753+lLf3KqCCBOOLtn4OJMC6bZ2Czbv2r3l7xH6ciRQOYGHPANKgNvS1KZXOwUSAAjJlmb9B/Tv1lq62vglL1/GCQCAVOhk1Parcw/ShnYTh1qU1eI/nQcAsi+tX3c/XUjIG4xcvHn33h2rnXqqsUGY7rdmiehvV22DX+Di4hIVFWVpaQkAz549mzhxYo8ePQ4ePJibW+VfFdUPqampW7ZsMTExcXV1FdXio0ePfvHiBdbiiAlUZmjoWwEAAJl0ddG4MZ+Nm33qpQAAWJqGxs1ZAFTy+WmDZ114U0QTki0tp67csn2Ns4UGB4QZTzZOXXG/EEC8NiB4FRyRRwGwlDsbNXm4dOCwDQFZFCHVdtyRu4bQvXEAACAASURBVBdmd5EFwatrvtGlNAC7tYOLrdKXeUlVi4kzncePGPSXnjIJIHgTHJFBAZBNDIw7soFKv+jmvC8sjyIVOo9ZunXn5jl9mnMIuvS9996z74QAIIjaNXftw1QhqdrTec2O3dtWTrNuLU3QwtQ7q1ad/0SJ0aCes7a2joqKEp1uLSoqOnXqlKWl5YgRIw4ePBgYGIiXlf8BSUlJN27cWLdunamp6YwZM0S1uIqKire3t7e3N9bif15NX6xSLSr1kse5dwKa4Br9feXWWmMJgBnmUsYDD7zNunXYK3bSkvYVTVnNJx25dcRWHqgxkiGt5zzg0wTXeMnlKysNuFDU/sPDIZ4plODD2wQAzYptCG7nRZdvrzeTBqCce0wxHnnig/DDpaPXjgwa/20WstO4teu6Jua3mbR2siEXABw1Ym5PuJxPpX34wAerAev+1WR1NVkTShGK1qsuHxkoCUClHv1h/MUKWdk8GgDIJgo/vZrjj/OAhCDpTUIBBcBpaekyd15fNS6AY++Oq69lqrZq0wFogGob/KJWrVr5+fkdPXp027ZtMTEx79+/X7NmzcaNGzt06GBoaGhoaNi5c2cNDQ0JCQkJiXp8IrUB4/F4PB4vMTExPDw8IiIiIiIiNjZWdGkKAJiYmCxbtmzo0KHMhkSNWGnZFSlA894+PP/22waEZCcTQwkAXsC2Fd4fBDSwWjgcfXx6bCsWALj0kjK23hNbGn/hpJ+7lR0pRhvp8i8ABFuj6MJQ+1OheRQpbzTzpM9OO9F15Pmh4bECACBVevU1rWY4Oj80LEYAACw9Y2NJALpQ3nzWspZpGZIWC1fYa7GAb5J289HONwK6uLCIBoDi0OAoPg0gazhq0eJZuhIAcydYrT8crdDBwKSnFAlQWF2D+k9eXv7o0aNLly718PA4duxYTk7O06dPnz59CgAEQejq6rZp00ZKSkpSUhJPxtYUgUDA4/FycnKioqK+utLB2NjY1dV19OjRkpLfGTBEtY0Wz44dOwBASUlJzPY0TdPCj3utuAAAHJN1LwVlTxZfc1QjAYCjv+R5aflzN6aqkwCE9OBjWTQteLXejAMAhMyQEzmiBoUXxigQAMBuOz+ghKZpmi4NXW7IAQBWi2l3aJqmC72GSRMAwDFe+6J8t3Sxr7MmCwDYunNomqaLrzqqkgDA6bqxcsyStBd+Z/etmTNhgHFzWRYBACDR/1AGTdN0acQqIw4AkOpTbxSLFz/9gI0EAACr+bQ7vGr+QJUCvRZUPPuDPNnnxyiLOmKCo6jbzXby/M3HfF9kVPzC1Tf4TRRF3b59e/Dgwdg/NgBcLle0jkpNfTwQqkxNTQ0A3N3dq28qeLnOhAMAQEiraOtW1rKpBAEAwOmyMqKUpnkPXLVZAEBI9twS/bnXLD9EcHpuiROI04ameTedNL+ccskxXhP1ua8URG/sygEA4PRwfyOgf4h3X/SOLG3XB+XdviAn/tmdiycP7tq4Yt7UYcZqbAKAkB1yPIumP/8aAISEcse+k5Z63HiZVflNqm3QsBQWFh48eNDCwgIXt/7DWrRoMWHChKdPnzL9EUD0Hx8d56WnZ9MAIIg7OLzN2bK35+dk0AB0aXJiEoBeWUtCWl6+bKiVZLNZBABNKCgplXWg5Uth0/QX5+1IFTX1it+JramhSsJHIZX9nevd88MPz3VZeTo4teSrkWOS/M7wQ3XxBXLq6vIkpFNUZuK7PADlyhsLXvx75JX6QNvuLb/T41SXR2HY2q2jgv53Lq6YLs2OC7weF3j9+I6lMlp9Z+06tM6uFbv6Br+JIAgbGxsbG5uEhARfX9/g4OCgoKDXr1/jSoj1BZfL7dSpk6mpqYmJyeDBg1VUVJhOhNDnFQdJ5RGHXpwY8rmDLPKZqGV/6hNNKhmatGUDlRLx4qMQANgGA211P1fTpYWFomk+QqGQSq++DYDwbUh4+pfdluC1/6MUSr+FqPOnS0tFK9ISXAnuj0cfhB9DwpOEAISUgYmhBIDwvc/fjnM8Hn0oor7syTltO3eRAwCQsFjoPvn+lGOvCuiSTy/vnXh576T7Ur0Ra48dnGUmL1aDhkVaWtrFxcXFxUUoFL5+/TooKCg4ODgxMZHH45WUlFScx0O/jMfjhYSEAICZmVmLFi06depkYmJiYmKiqqrKdDRU5o+X42w2mwQAIGQ12nb4PMe9gyEAsFq2rHypA4v9TToOh/Pj3dOFBXkUKJUV08UlJTQAEFVfQZF/e/GImZ5vS4Gt2N7SdkCv7t1MCr1GL7qWS3+/HK8uPsE16dpZ8uSdIrrk+Z27mc5jK11/VfT4wMJZ+xNmNdEZve/NqW8XDxIjD1t30pmwno5nTpy74usXEJmYW0rTVGHCHfcJzs3D78zUrr5BDdHW1p4xY4bo58LCwoiIiKysrOLiYj6fT4s3ORjVkiNHjjx69Kht27YrVqwQPUMQhISEhJSUlKqqqoGBAZdb7+eBoQamYslxjr6pSeVT5YJXweE5FADB6WhsxAWgsrPzaAAguM21Wn2utHkhzyP5NAAh01JbgxCjDaviCwAAId1+jFOHJ/svJxb/d/V6yv/+p0kCAJDNmimSBABNfYhPEEDLSv9rqI9XNmz2FzTX0mrf03ZwF+UvlxwXJhx0cdzxIIcmFdoPdHDoZ27UUdJv3ri9UaVks86mZTOKWC1HHgnpOsHrwAHPMzeeJeYLaWHOy/Nu41T0I/ZYSovToGFisVj6+vr6+vqOjt9ZfAz9koSEhNatWwPA9u3b8eZuddMfL8e5OjotWBArIJVs1vps78kFAMiPunEtlmzeSqtth7YAvzXOKngVGJgDWkoAAFRm1ItEIQCQLXWraFoScOnqu1Ia2B3mXA/d1kMSALI9T/EBAIAgy84TVgyK0OLFZ5HUsHH9Vty7nEllXVk9/3yPIw5abAAAKtt/45KTCQKgiWIZbT34VvV5+FkJ0dFv333I6Tj9kMs6liAnPvi+19rZa30/CvOfPQ6CmZrVNaixcrwyGRkZvGVX3fHo0aNHjx6pqKiMH1/FfAmE6p6KJcdZ2sYmypWGQqjMkOA4AQCwtIyMlEkAUFRsQgAAzU9PThVCaxYAAJV6+eC/iUIAQr5X/97SZGn1bYD/RPQFgGxiPOfs1a1/hbpcvHIsuejp1etp06apkwBAKnU2bMW6FysQvLt87MYyi2EqZcGE770Xzll77r2AZmlOujRsSJfyJcfJpobGumwq8+5V/1wKWJoTPP87PlQBgHq/d/dbAQDB0TMy4gIIC1JiX754/VGm6xCnjb2d1ufH3vFY4LLs2geh4P1T/3iBZQdeNQ30//iBGyFUy/74lBCusa1NSzaAIO7Uyi1P0imA3Oc7po8ZP2LgX+YTD8f/7v0qqcwrq+Z6RfMASt5e+HvrnQIaCE5Hm/5VNKWFFEUDAJ0TH51cAlAUf2WtxyMeDQBQWlICAECUjcbTxTm5PBDy+cLq45Nqo9ct/0uJBLr0zclxxp1tneYvWThjlIWB9cbn+TQQLE2HZTO6/EoeKue6W28L6yFjxo6b7xVTBGyF1qY9jFvIEABAKjZtWn0DhBCqc4qDg0VLjssZmnyxhl9paFAUnwYgZA2MO3EBgFT/q1dHDgEgePbPMq/XRQDCzMCdUxdcSqOA4LRzdHNQI8VpU7HkuPRfrssHarCkLfpZKJBAFwZcvZFedmUE12TUSD0OASD84DV1oMsuH/9nAbfPbpvex9zx3HsBDaTq4HWrbRWgYsnxspuGFhUUC2kAmp+XWygEKifswLyt/sU0AKneXk+JpN7/M7RNx2429g4j/3cgsgCAlGttaNhSjgQAQqp5S1WyugZYiyPUEIl5jXmNTeWkacG748PUWQQAEKSEorqaPIcAAIKj43wtQ0h/nspJqk25Lpo/SRdfntCUhIo5OPTnSZas5i63aPrzVE6CzWETBEummbIcR3QLInariRdThTT9zVROYfqZkaKBGIKUaqqh1oRDEJJSkgQAcIxWRZTSNE1new2XFyWVbqaubLwsqPr4ol0/WGWpyv7mekOC1cx85YOKZl9O5RQjT/GzVWayol+L00RdS1tTUYIgAICQNVsTxBOnAWrwnJycAMDc3JzpIKixE3cqZ+nzJfqiSZPm2+IrT1csjVpjLHqh++aYsheEKRcntirr3DlyqprNpEXz3Ukli7VP88RtU3BxrOiQUt7VC9OPDZYjAAg52yOp5T00nXXPzVCmquvGCZayxcqHmaIDy/Up6iQAsDss+q+EpumSgPnt2KKjkZyqprI0i2Cz2ZX78bwHbvqSZYcnWZWW2s3Lu2lJfbf7eeI0QOgnVdxX29/fn+ksqGoMLJjEajXJ8+q+iUbNOECVZKek5pYCR9nU6cjVPba/fwNkjsWSg3O6KZVkfsovpQmWvP44j6se9qpV7ZdUdth28H/GimyCpoozU9KFWnYbr5+bpssGELy6d+stAIDCoJnTjORJgqaKMlIyP6akiRefVP5r9d2Ix4cXjf6ro6aiNIcjIafapqvdzB23gu+t+es7v6UYeSTNVvr4rB3aQYENpXkp7xI+ZpcAKac7cJn3xWUmEuI0QAiJiR+wfqC5w56o3z1lJ/4eee/ubp82wKilohSHK6ui1bn/tK3XYgo+b+6/pr/5mP2vqtj8By+JicoMD4jMZmLKXMWS4+yWRiZfLHaSFxwiWj5Q3dC4/CpwUs3+n5vHZlhoShJ0aX7ax4wiipBq3mv64XvXVnSXE7ON4FVIZB4FQCqW3x6CbNrXxkySALrA/6pvRvmfQbHP1js3t441VuFU1OQEKaVhOmatT+CdNb2VSKi05Hj5TUO53RbvnW+mxCJoQX56akkr++0nFxuxAYBKS0kRAoDcX+7Xzy8d2LYJGwQF6YkJSdklQMhoWS88e3WTpZw4DRBCDU5t3pWzGrzUqOchsWk8rnIbk24G6r+31GXZXTlpbl+PxNvTpN8/fxKRQqt06tFVV4H1ww2FOXHPnkamUsp6PXq0V6qqLT/9RUBgbC67mY6RWSe1ipg1Gv9n8gBAUXJUcHhcehFINdPqZFx2GvOnGqAGy9nZ+ciRI+bm5v7+/kxnqd94N6ZqDwsY/zBya48amvz6wz3mBGwYbr/an99+0PhRfTqpEhkx/v+e9gkt0ptx6sZuOw0SgHdlUsuRIVOfhG4y+3rzH7wkXrKbLm1GvnSNeLxY98cd5s/4qbty/ixBVuzz5y+TizhKLToaG2nLVxVbnDZi4WfFhobGJOcIJJpp6RsbtJKrdk/CzFf+ATEFSno9u7dT/F4/nvIiNDwutUAo0bRVJ+MuWt/kq7YBQmKqmMrp7++PUznrJgavQpNU69RrUKfa2DMpp91tgJizFlkKuj0GVjXTswJXRd/STv+bp2spfvV5AEBao1MvjR+9d7UNEEJ1CJV5df641QHy407dPDRap6yidl288N7iQcN3TnExCL7irPWjWkzS9vC7HIot+avfG6jsjKzSerUkElupbY/+bX+/jVi4Sm279f2pHbGa6v1lV9WU/Uqk1fXN1b89tPxEA4RQg4Gjpggh9F100atLm2aNtx8+ymnpoccfP18NIkgNPLl25gT7YcPHzVjlGZDCB3Fe+kyYeHnJSNsRC8/HC0CYcGL72SSNSbv2VtTiAACkat8N/8zqmHd7x/7nFfug88JOrXRyGD7SccHum3Gi+70DP2jv1NFzT8eVr0tFZYV7b5ozacTw4WP/t+rYl+HSnp/ZNGeyw/Dh4/63+sSzdCFkX182akcgXxhz0mWIo0dEzV2cgxBCSDxYjiOE0HfQKWcm2cy7niajrlQU+M8Ma6sF9wsBAEpeeAw36TXtUFhJs+YqgohjMyxNhu6J5FXz0mdUyrU5gyfufaU22tW+NZvKvH8viK9qPdTqmwuDuV1GD+tEvPW79VpUJdMfT03q/7dvtpwSO+7i33ZdbbeElQAAlRbpd+tJbI4QAED47uzkrt0n7gnIk1dXY8edm2dlau/xsgQAQBBzeKSJuePe//IVNJrxgg84/2Ux42qOip5p26YEKadl1NVIWx5vuIsQQn9aQ1kySXrcv4XjmA6BEGpYqEJOn2PPjturkUCl9Rqh53T13+e7rHonHl+0zJcz1vvpseHqJACV6uNs7rBs7sFBd2dxvvvSHJ2yndKfbi8aMv64YMwJ33/sW7IABO/iE0vJlro6VfTH7NbtW0sK77+NF0A7AKDySfPj/qfHa7GBSrvi3GPkplWnJ/hMUay0RealJfPOCUd7hx4dpk4CQO6TRb37Llt8cshVZ+nLa5ZfFw4+8vT8JC0WQMmMNRbdt+y8svjeAttL7pdSe01fOqsGrx1HCCEkJhwdRwih7yCV+44apCa6S2PTLobakJmeDpD78NaTQr1xs+zURR0oqTbYbZJhyX83737K/v5LZct1FIZsGTp65yuDVZc87FuKal+qlF8KhISEZJVr6pEkCZRAINqcpeMwu+zWYqTqAJeRbQr9bz0qrNy+6PG1e5mKHbRLnly6cOHChQsX7nxU1lEt8L/9qLAk8PajbHW76aPLrkOX6Pz33ZRP9+a2xhIcIYQY1VBGxxFCqMYRTRQVy8csCBaLAKFQCMLMlDQeqdFK63P3ydLS0mQJP6SmfJL63kvpFCgAgDDp4V2WroYw2MszcIa7uQwAAEtDQ4Wg0lJSBNDq68mYVHpSShGpoqEu2iOp0bJFxb7ZzTVViaJPaTmV1iekcpNT8oTZ/ntmB1UebFGUE+Tn8UrSMkFVU+NzOAl5hd/7AyGEEKoBODqOEELfQ1QxYE3IyEoTVH5OjrDiKSorK48CaVk52e++JLo/F5CqQz0ePTsxvVX0nlkb/isCAABWi14W7Yi3freiv5lGSSX53g6nmna16Cyq0+nCgsKKFVConJw8mt1EofJCpqSUjDSL3c7VNzn9C0k+0zQ5srJSUJCf/zlcYYz/7ScxWUwsN44QQqgCluMIIfQzSOWuXdtB+HWfioVMhO98roVQLY3MWqp996XmoitCCAWdtuqKVqt3TNZ8uWvW5udFAABsoynOFlIR+xfsiyqq/E6C9+cWb77Pazdx2gDZst1FP7z/oWzfgtirvq9Yht27fjEBVM60ayci5vrFoPI9UZ985vaxHLMnRCBhZGrASnh4N7a86s+6uWbk4CkHXgqAJAmgaSEghBBiAF6sghBCP4VtNG3R0BNTVg0ZVbB0cg+l7GenNrs/kh7gMbsnl0189yWASsurKPZft3XsLYcdrluH+K8ylmDpTt+/9X5f14V9rV4uXDipn6E6K/P1I+/dmz3u55ks81rWs+I+Y/yAtcOdeIvtdYqeH9+wLURz3IUpbVlQaSFDVgenJRM8HXY6DBEum9G3lSD22s51hyJa/r2+A5slOWH+OI8R7g5jiaUTjWU++u1dd5Hfa9u0HlzylnwT+uGtg4e0R9iN6KGJ15IjhNAfhaPjCCH0c8iW44/f9XLt8O7onBGDHOYee9fB9dS9s846rB++9OUuVIZs3DxcPnTbrG3hJQDAbe/i/fji0p5Fl5eOtDBoo9uxm92ckymdZhx94LvWQr5iM3ZXt82DMo66jhw163C83pyzt/bbqXzVi5OqQz3u/rusZ6HP8nF2QyatvcsasOHqtTXdpQFIZbv9t73nto8/NGvEkDFLLvOtt17zdm3PAknzSdN7y4bunTll8528Wv/zIYQQ+hJB02Ldim3nzp1ubm5KSkqZmZm1nQkh9MucnZ2PHDlibm7u7+/PdBb0C/hZbyNfvC/gNGvZtl3rphLibcTzmdjcIcwlIGyjad0546murp6amuru7r5o0SKmsyDUqCUkJLRu3RoA/P39zc3NmY6DqlB3um6EEEJcJR2TXjrVt/tCUVZ2EcjKNcFb+CCEUH2EF6sg1EhduXLF3Nzcz8+P6SDod/CDdk8aPGjNPUHrnhbaeNE3QgjVR1iOI9TopKWlOTg4DB06NCAgoG/fvlOmTMnOzmY6FPo1AkJeQ9vYYe15nzXmXy9ajhBCqF7AchyhxuX48eN6enoXLlyoeMbT01NPT+/ixYsMpkK/Stpk8qY9+7YuHNpe5s++sZjzjhBCCFULy3GEGouEhAQbGxtHR8esrCwOh7Ny5cqsrKz58+ezWKzU1NSRI0cOGzYsJSWF6ZiorhMIBObm5hoaGseOHaMovIcQQgj9LnGncoaHhwNAXl6ehYVFbeZBCP2WN2/eAMDbt28rP0lR1O7du1esWFFYWAgAXbt2PXLkiL6+PgBs27Zt1KhRTk5OkZGRPj4+Dx482Lp1q5OTE1HV/SgRAgCKoiIiIgoKCqZOnXrgwIF9+/aZmZkxHQohhOozWjxDhgxhOilCSFxNmjSp+M8bFRVVUS3JyMjs3LlTKBR+9R+cz+evX79eQqJsXT1LS8u4uDgxOwfUCIWGhnbv3r3i8+bo6JiamvpVGzU1NQBwd3dnJCFCqEJ8fLzov6q/vz/TWVDVfnqhQ2dn59+tFBBCtebw4cMVP4uK7M2bN5eWlgKAtbX1oUOHtLS0vt2Kw+EsW7bM3t7eyckpICDgwYMHnTp1WrNmjZubG4uFy3Wgr3Xp0iUgIMDLy2vRokWpqamenp6XLl1avXq1q6srh8NhOh1CCNUz4t4GaOjQoVeuXMHbACFUx4luA9SkSZNbt245OTm9evUKAJSUlHbs2DFp0qRqN6dp2sPDY8mSJfn5+QBgZGR09OjRzp0713puVD/l5+evW7du165doq98HTp02L17t7W1NQBISEjw+XwNDQ1VVVWmYyLUqJWUlIiOBceOHXN0dGQ6DqoC3gYIoQYoLy+vR48eop8dHBz27NkjZklEEMTMmTPt7OymT59+8+bN0NDQLl26qKioqKqqslgsopyo5S88/OUNG/zDupDh1x4OHDhQV1d37ty5xcXFr1+/trGxUVNTe/r0qUAgAIDk5OTk5ORf/BwjhGpUcXEx0xFQ1bAcR6hB+fDhQ8XPmpqaHh4ednZ2P7uTFi1a3Lhx48yZM3PmzMnIyEhPT09PT6/RmKghS01N1dPTqzj1OnfuXGbzINTIJSQkXLlyhekU6EfELcdbtGhRqzkQQr8vICDg7t27FQ+vX7/+O9eZjB07tkWLFr169RI9ZLPZDg4OzZo1gy+ngIv/8Jc3bGwPf3M/dYGMjAxN0yUlJe7u7osWLWI6DkKNWkU5rqyszHQWVDVxy/HWrVvXag6E0O/r2bPnsGHDLl26JHpobm6+bt26OXPmkORP32GgtLTU3d19/fr1oodWVlaHDx/GfqC++MPfH3x9fefNm1dxHnzIkCGie0ulpqYy9AdACFVBXV2d6QioanixCkINiqKiIgBoa2unp6cXFha6ubl5e3sfPXq0Y8eO4u8kODh46tSpkZGRAKCgoLBt27apU6fWVmJUCyqu7a5tsbGxbm5uN27cED20sbHZtWtXhw4d/sBbI4RQg4F35USoAdLU1Hzx4oVogYtnz54ZGRmtXr2az+dXu2FxcfGCBQu6desmqsWHDRv26tUrrMXRt/Ly8hYuXKivry+qxXV1da9evXrr1i2sxRFC6GdhOY5Qw6SlpXXnzh1PT09FRUU+n79mzRojI6Nnz579YBPRcuPbt28XCoWqqqoXLlz4999/8eQm+tbp06fbtGmzbdu20tJSOTm5LVu2vHjxYvDgwX9mSB4hhBoYLMcRasgmT578+vXrESNGAMDLly979Ogxb968wsLCr5rl5uY6Ozv36dPn7du3ADBp0qRXr16JtkLoK3l5eRMnThQttuPo6BgbG7tw4cKKW7oihBD6WViOI9TAVR7npihq165dnTp1unfvXkWDK1eu6OnpHTlyhKZpLS2t27dvHz9+XElJicHMqC6TlZWdOHGitbX18+fPjx07pqamxnQihBCq37AcR6hRqHwVeEJCgrW1taOjY3R0tIODw9ChQ5OTk0mSnDNnzosXL2xsbJgOi+o0kiQ9PT3v3LljamrKdBaEEGoIsBxHqLFQUFA4cuTIvXv3ROsVHj9+vEOHDhcuXAAAPT29gICAXbt2ycjIMB0TIYQQalywHEeocenTp09UVJSbm5toMXIOh7Ny5cqwsLBu3boxHQ0hhBBqjLAcR6jRkZaW3r59+3///efg4BASErJmzRoul8t0KIQQQqiRwtsAIdRImZmZeXt7M50CIYQQauxwdBwhhBBCCCHGYDmOEEIIIYQQY7AcRwghhBBCiDFYjiOEEEIIIcQYLMcRQgghhBBiDJbjCCGEEEIIMQbLcYQQQgghhBjTQMtxQXpsWEh4fHZt7b/gw4uQ4ODgkIiEHKqq16mchIiQ4OCQyPe5Vb5ePWFmXFhwWFym8HdifqPw48uQkBcfCr56r4QbuzaeCioAgKLwM5u2+cTwa/RdEUIIIYTQ99RKOS5IDfhnzkbfotrYt1iolLPTu5maL/QVd4OfTMwP2zGsm6mpqYnpkG1hgip2F7ptiKmJqalZv7VPxK5sv8yQddG1u2n3Wf/miLu5OPjhO4Z36zZsR1jlUMIYD5dJWyM5LaUBQLKFdMxeR6edUViQI4QQQgj9CbVQjlOphyf2nXkwMK1mB3Zr0a8nLo2+ejnim3pcEPavT3Tpn8rwe6jEk4vXBbabvXKkKgkAZNPBy926RLovOPy2Lv3zCYXCx48fX7x48fz5835+fsXFxUwnQgjVMH5adEhIWHzWL55RFIvgU2xYSNjb77yH6LRnyOsU3nc2z0+MCgkODnmV/DODTQI+v+LtauV3pLLjw0NCotO+GkShchIiwmLS+cLMuLCId1WfyEUI1RG1MTpOCYUUXQv7rT2/lJhU0OvYnIq+9k09zg+56BPLbd6iKavWM/y2wodbN94k7ea56JWHZelOcRsh/cB9k2+NDsz/qk+fPm3cuFFbW7t3794jR44cNWpU3759mzdvvnDhwoSEBKbTIYRqSsnT9QO7EBb0QwAAIABJREFUdhu5O6qKE441hf98i51Z1+E7I6ocLsnxmdPT1NS0a/+1T0qqej333t99jExNzSzmXy8Qr7jlJ97bMm7Qsgflb1crv6Mw7tB4M9O+Kx98ETr/v7WDzEbueylkC197jDLrt/Zplb8TQqhuYNfw/gRR3ptP3nlPAfXm2uZVibr9Vzp2F71S9OHZnTv/xaSVSKq179m/v4mGRPk2RcGntt/I7eb0v97sSN9rD159AuVO1sMHdFJigTD75W2fu5GpwqZ6fYbadlZmVdoiy3iSqxXr2dVrAfHFsi27WNtZ6cr+IFlJWpT//adRiRmFlJRya+M+/S105cmqEs927K5QTWIRbuehg0rcj127HLHa2PjzH5IfcvFKnGzf6VaRHqe+HsT9zi6ryKBb8RfNfHHnml9kSmkTbdMBthbasl9+gyqI9/e9FxSXIZDR6NCzn42x+lchBelhN6/7R3+iVA37D7H8Kg6V4r3L6526w76BipWelbOeNELr5NFdXssHuGr91FeKmhYYGNivX7+8vLyvns/Kytq2bduuXbtOnz7t4ODASDaEUE0SJoeEJ1FSg4wNuLX2HlRGaOg7oVR/U0OJKl7lRwZFFgHJotPiYrOpvmpfDVaVhOz82zOBJgi2rpGRkjgjWVT6ielD/n5o8c8OjuiJ2vkd84OevRSwOxobSX9+58Rz08duL3K6vXu4OgmK1r2U9104+WC9eX/pH+wHIcQkWjw7duwAACUlpWraFV6YqKkgwyGA4MoqKqoO8qBpmhamPVg3UEuKACAIgiAACJk2w3cEZpdtk36gnwS7neMaVxNFVnkDTvNhh4MerrNS55Q/w1YfuO9FyectWFqjl0zrIk8SbC6XTQDBUTVfdDNZSNM0TQsTd1lyCZnhp0XNhZmP1g9oVfH+BAAQHNXe657kV5U4UVht4pLHc3XZpMqki3fn6LI5BsuDSz//BUqeuLXlNB158opraxapNuV6cdnzP9plFRnSD/STAI7JWJfuypzy1AS3he2e8OKKd3p7cW5PVU7FHglSts2wbU+zhOUNCsL/Gd1ejiTKfm2JlgMcbbXYbN25j0V/R0H8LksplrrjtcKv/hV592a0YnHNNrwUVP/JqDX//fdfkyZNAIDFYo0YMeLBgwcFBQXFxcXBwcHOzs5SUlIAwGazvb29GQxZBzk5OQGAubk500FQY6empgYA7u7uYrUuuDBGieQYr4kqrb7tryq+Mln1u+8hfLejF5eU02qtwtGZ/ajkq1cFbz36KbCbtWopx2o67lKBWG/H83XWZHH0lwaVv12t/I68B67aLFbL6Xd55c+UvtzVR0my4/xH+WVPpB8eKM3Wdn3A+84uUIMXHx8vKvn8/f2ZzoKqVtPlOE3Two97rbggMdgzT/RYELO/X1OSrW619HxoSrGgOCXU+29LNRZLc/TZj0KaFhXXBIvF0bBZfe11VklBwvV5xtIEKSPXRNNm7Y2YnJLCd75LeiiQpPqUssIx/UA/CYIgWQrGM70iMkpKs16ed+umRJJNbQ8nCOivy/H8u/9rzSbkjGeeCUstFgqLU8MvLLZoShIy1vsThb+UuLwcv5LzeG6bL+tx3uO5bTjKY86nPZhVuRyvdpdfZ0g/0E8CgGCp9F54Jii5sCQn5sqiHgokIW93LFVI0zRd8ORvQymCrWr5t3dYanFpfsIjj8md5EhSdcjReAFN03TBQ7cOXEJCx37H/YT8krx4v+32OhIEQEU5Lkw+0E+akLU7nvnNv2G+9ygFUqLXjnim6vHU1FRRLS4nJ1dl9xEbG9u8eXNRRf78+fM/n7DOwnIc1RE/VY6XPFusxybVp1wvzAw6vnTCgF49/7KbtvNhivCLRokPDy6dMrSPRQ/zPsOc1p6LzBZ+tZcfNigNX9mFQ2pMvVFelha+uLh11cpVW7wjC2i64NK4piSnw5Ah7TmSAw5nfLFfYdrF8ZosKWO7fs1Z3F473pXvVZARem7d9JED/+ppYW3/v80+0eV1uuDdzd2r5g9qzSY4HeyXrtp04WWN/Y689/f3uY0Z+FevviPneDxJK33j3oNDyAw6Up5YEL3LUp6t5Xwj+/M+/1vYgc0xXf+KyQEWxCQsx+u+2i/Hi/1maLFYLadey67UJO30iGYkx3h1ZCldVnkS8gMPfSzrdoQpHtYSBCFveyS5vCPKOTVMjuB03RgtoMu3IBUHHX5f0VEJ3x/oL09wDFeE0l+V46VhO4Z2btt9iX+lkQGer7Mmi6U98z7vlxJXlOPFJU/c2laux3kPZ+lwVMdfyuF9UY5Xv8sqy3FSYfDRz1118S2XFixWi2l3eDRNZ5warkCyWkz2yfjcVwve7LZqQrDbuj0poemssyOVSLauq19+xeuF/m7t2Z/L8eJrjmokp9OyoG9HagQv1ppwSMUxF8QbBKp5a9asEZXaT548+V6buLg4JSUlABg7duyfzFbHYTmO6oifKceFKf/YSBISfy3cMrqNFFF+8pZU6Ls3TlDe4taibkqsitcAgJTrPM83XUiL2YDOOGorQ0ja/CPqVAvC9thqckil7otvpQhpuvT5En0OITtk+2YrLrv9gqeVh8cLHrl14LC0pmye1ZHD1p0jGjoXZj5cY6nKrvR+BKlksT6wgKZpOv+MfZPPr7DbL3haM79j2q1FZopkRQNCpsuseQPlCU7nlWGlZS3OjlJjNbHel1Cp9Bam7O/LJZXG/VtMo8YJy/G6r9bXHRf8n737jmvi/OMA/r27DPZGAUUQFBygMurWSrW17lVXq/bXqm0dtbVatXVWrVZr7bBa995771XrHqACbnCzZO+Qcb8/AiEgkKDBM+Hz/sNXkueeu+89yRO/PHnuuchTZ5+rRE78vXULNBZufsg6sIrI8+eTCi6IEfm2aFU1PxrWxtnRnES1ghs7F8QndXCwYigvN1dztSNj+W6fXjU08bPVu3YOlihun/2veASiRqN3hd09P6uleragKjvhzvkDF58oiPJkJV3boiviIhtL3unVxYu/vXe3+tIc2fnt+584dej9ge0rNUJxXL2WrTVNQOIaNVxYPjMjnSeSXTlzKYNx6dDvQ8fCt5Cr1b9fC3Plw7P/RpMs7OyVNMblvc4tCifUWzTu1clLM8ldlRT9KFnFurp7vHwBAVejhpuIz3wcHSfE+ipyuXzx4sVE1Lt37xYtWpS2mbe396hRo4ho27ZtcXFxby4+ADAweejVCDmpLi6ce7fxpE3/3XoYfXl5fy827ey+44kqIlLcXTTo43mX0h2bDV906Hr0kwcXN4571yn7xoJvZp3NJX02IJJdv3ozV1QrONiJpYwrv/Xq+N0R+mDe4UO/tHdhSZUUGhqlEPk0al2vphP/9P79wrVTFBELflhyz7rDD58yofcV5v5BDSREqqcbvug//V9Z/b7T1p28EfXsUfixhZ/65Z2bNW7JAyURX3/AnMndanCMdfMRfy1a+MsgfwOco/Lx2i8/nXcls1qHaTuuRD+5/9/ywbUfLPzjUDpj1yDQR0REpIhc/NuuFy4ffT1I+7of1sbORsxnxse96n0wAKCiGfpSzpco4mISlLwsdOWY0JfKxMkJiTxVJSIixtbBQXuYgYjMLCwKBwEYhmWKVGadqtfQviyFta1axZz4xPgSglDGX1y/aPnuM9fvRj9+HJOUrSCWZXjGlUpaykRXxJQfsZokuGdX7z//3LszfGpAgOLs9v3PqnT8qG2xa0r1aATmpQIiYq3tbLW+UxmWJZ7neRUR/+JFkor1q1696BtoU83NjuWTExJIGR+XqGJ9XF21r8UUubu7sfRM/USVkprOM2JrG8sSjiy2tjZnKD0tRYglcs6cORMbG0tEI0aMKHvLL7/8csaMGXK5fOfOncOHD38j0QGAoSkfXLvxQkniRt/uPvFzC/VoRs+2dUZufs4wLEuUtPOnmSdSLJtO23dkSmMrIqKa/Wdvlt2rN3j/4X1hc1o3y9C1gYSUT6/diOVtWwXVybwwu1f3KRcdPlm5Z8kAH/U4jTz0akQe49gwuG49y5psXvS9KAUFiYhI9WTtpN8uqQKnzOj26KexcpFvYJA1UfbpOdP2JNf79vDp39qoL/2nasP/mXvjRKd1x04mfVurSoPun9za+INK1KD76OHDvDkiUka+5jnKT8+dvi/BPHjyjm1T37EgopqDF/5z73yrubdZv6BAMyKivIurNlxXegwb+IF10QaWSMVEeVghFuCtVeHpOCMSiRjObdDG87+0Kn4xOSOxKVgrhRiO48o3VC/PKzq2rczOziMye+nKceXjDQPbfL75ibhaQItm7Vr28q3XsEkz6Y6ePReV/NWkK+JiL0mCe3Wt9ccfe3eGT62buG3/86odPwqxJCoSmx6NUPKgBcOU0iaMuZkZkUyWWzRdVubm5PJkK5USKzWTMHxubo72jnmFQln48wLLskQqVcm3FVUpVTxxXIV/PkqiGepu0qRJ2Vu6uLh4enpGRUVhdBzAiGWEht1VcG4Dpk5oUfDLYt6tWw8UnHudurZEL/ZtOJDA1v5mzrjGhUMdrHOzJr7c3rsxMSrdGxBR9tWrt5Sihj6Ked27zjyT0+bPSysGaIaQlVHXrieoxK2DAs2rqWrZq3bfvZ9LQVZEKQenz9if6vnFz6PrhI8LzWadGwZ6c5R5ZPW2R0rO9fDYdv9qnUZObJJKkZiQyFMVyrt55UYm5/FOU3fOMOeYdWztjsfk9unk797R/C8n8ff3FTP33AOCqrJElHdtz6Fo3vWzjk2LrRyjzM6SEUnMzF7nTQKAClQR6VaRgV6xr68Xp7oQcSvNuU8DrYkSV/cdfWZZv2kbx5LGZvWhSoi8+UzZ3rvg61QWdi0yj7Gv61dsO0XY0l+2P2YbT/3v5NSAgm+xzG2Lk1W8Gc8bIGJJYK+utX//ff+uq03jD8a6de7T5qW/CPTZZYnD46WS+Pp6iRT3rl19oQpy1aTsiogrN9J5adPaNUlsW682pwwPC01UNXEr2CAnPOKBkvLjZxyd7FlSpKWkqsiieNafk5KaQ4y9o17LeRmaUqkkIpZlOU73OosikUhTBQCMUd6NqzdzmKq9e7bVDOqqXoSGPVaadwzyk5As9EJoFufxYfcmRdJJPiMji8jMzEz3BkSUF37tZibP3lr4xblcxpLJCT9/Oe1rT4f8TTNCQ+8puJqBQU6s2MfHk81+ePehgvyVl3+btP6pQ5eVk9paPJoTFqsShwQHiinvyn+XklW84vmta8+Ln4vE0sqSIVLFXwt7rLLq2qSRxDDnmBdx4UoSU/XTXm21pkKq0tPSlWTpH+QnISJVzMXL0UrzDi2aFEu7lc+exSkYyypV7YT4QgcAPVRA52Q5kYioYGCWde/Ws4Wl4sbiH5dGFtzpTBV38IdPen/SZ+y2Z69+GF5+ecn0HY/z76aQG/HPzA3RvHu3fm2Lbad8kZCiYsyq1fLQZMlZNxYvPpKqIrlCwRsgYklAr64+fOTOyfMPxLl36dPq5QEIPXZZNAadRHV7dW8kyTo5f8q+mIIKuZGLp628rbJ7r2cHJ+Jq9+rdzCLn1B9Tdj/Jb6OssL/n747X7J6186nlwqqeRke/fEcKRfTDZyrGybt2VSG+vdUXaKpUqrt375a9ZVZW1tOnTzVVAMAIqWJDrz9VWgS3al44lJF79WqkXOQbGGRDlBcbm6hia9SqVWT4SPns7Pn7Cs7Tx1esc4OCJcd5WYZN+4X/Hhv3jujFwVXbnhZ8HaqXHLdqEOQnIa6Gby0r1aOoKIXy8ZqfFoWLmnw3/WM3NuPqldsKzjsw0IklRWxMvFLccPy/z2Je8njXVx4sUe61qxFykX+TJhYGOkdVTEyCiq3u5aU98J118VKEQlQnKMiKiEh+/+5DJVejTp3ig1y5tyKjlJx3nTriV3p/AKDiVcTouI2riy0rPzO7Z+8LbQeu+an7V3/MOPD+9wdHtQzc36tjI8fc6HN79p5/Lmkwet7owNc4PiOJ3zGg6a2t3dt40f3DW/ZHZNf6fOm09sVvBSRt2vkDt9Wr937XYVBkzwAHRdyt07t2ns+xdRalZqSlyYnMikU8a2p5I5YE9urmO3/28ZOiWt/0bl7S/SU4b527LBZDqRcw5hP5j/7zxyOdflrRJ/hmtx4htcwTbx7acfh2llu3hXM/rcYSke+weT/uaT95Zb9mN7t1fdeTv3toy6HoPGnhKLw0sHmQ9eID18NeqFpWK5J2q5LCwqIVFm2bv1PSyVS4Vq1aWVlZZWZmLl26VL2kT2nWr1+fnZ1NRB06dHhT0QGAYeVcuxapEPkGv2OjeUlx9+qNFKZK1yBvjohYliE+Iy2Np2qaLbIu/L38nEzk9/6Hnhyd17UB5V69FinnvAZtOL2iZzV69HGLWd+eWr3h7pAJdTkiVey160+VouCgYHMikvj4eLHbHt6/vnXr9COZtUf+PNJPRHk3rtzMZmwaBNUXESkkUgmjSs9SOrkW3nhNEf3vntsiv8bvuBKR4vbVG6msZ3CTapyhzjGSZYlPS0lREuXvUxm1ZtHeF0zVboHqSTfKxMRkFevt6lbsf6m80LOX05jqTVvVEvS2bgBQFj1XYCnHQoc8nxu+bGCgi4WIYV0Hq1/Jub9nxqch9arZmonF5g4eQZ1HLb6gWbspYXF7KUk/XFq40GvWtv52jLjF3AeapZpyDw6pxokDplyXF9ZoP/fgn5+38LIzM7Ot5v/h8L/PxBZsXuw2QOlhy4e/X9/VWiyWWFX1ad7nh7Whcee+ryPi3IccyHgp4gM5OiMuXOgw/wX5lR/9xJS/xKB6j0XXHde5y+IxvNwovOL2rCZixq7/Ns1dezIitkzs26J2FSuJxNLJM6jziD9PPCly94r0Gxsm9Az2dDCXWDj5vDv4r+1TW0kKbwOkjF/VzY6167G2+MLjqVv7OXLWHZbGFFvw9s0ZNmwYEdnY2Dx79qy0bTIzM318fIjovffee5OxveWw0CG8JfRd6FB+5Uc/Mae1HDjPK+OXdjBnzNsvjlPyPC+/OtFfzIjrjjxasK5rRsSqAT5ShrXvtPSRUo8N8pccr/q/veovZGXsyq52jKjuuAsynuf5zO0fO7Kcx/Dj6ggyN/e25ayrVbdjOde+m+KUPM8ron5tKSZxy3nRCp7nlQ//CDFnuOr9Nj4uWOI2esewhpYM5z54XyrPq2+8w1h1X5tquHMM/ylIzIjrjDymvtObMvnstFb2LDHmHZbGq6tkrukmJWn7JUXXTOdl58fWEXE1R5zAMoeVFxY6fPtVSDpe4UrIVeFVpOwc6Cay77muaEOmbO3vLKrSd7OAzRsZGam+faqPj8/z589f3iAzM7N169bq75ddu3a9+QjfWkjH4S2hZzqujF/yoTlj9oE6LVVT38/Sv+B+lor7C9s7sMSYuzfr+fngAV2b1LBgiBG791qVP2Sjc4PEFZ0tGWnIX88KjpG8tX8VlnMfcjCjYMlxy84r87/y5FcnNRATEWPTZr76VhfqO6NxmhtbKuO2fFyNYxixS1DXgZ8P6NK4ugXLMBb1hu1Vr2kuOzfGR8SIqrX69NtpWyJkBjlHecTsZhYMsda1QvoP/qxn0+rm5k5O1qy4wcSC215kbetvx0hC/nhSZBwl4+DQGpwksGBhcqiUkI6//ZCOV26yq1MCpFZtF2jdMkL5fFknW0n9cecFvqHy0qVL1Rm5m5vbb7/9lpKSfwulnJyclStX1q1bV/3l8v333wsb59sG6Ti8JfRMx/NvJf/D5cJ0URE54x0x66R1M3pl3InpXWrb5N8hhxE7+PeYsjtK6zuq7A1yjw+rwWn/fMnzmQeHuHOsY6/1CfK4xe3NGc2PrzzPp67tYcUw4vrfn83/KVJ2boyviLHqtjpZc7zkc7/29LUtOB5nW6fHzOMxmh9on2/oX13MEJF6zN0w55gTsbSvjyVDRMRI3NqM2zi3mzXnNGBnwe+lsnNjfUWFdwRSH+bhova2nEv+ID9UVkjH335Ixys5ZeKu/7lL6449W/A7puzKpIZmbn03xb4FX96ajJyIzMzM/P39GzVqZGNTOPkSufjLkI7DW6I8d+XUizI16uKxPbsPnLn+JL3E7yedGxiYMuXBhcO7d+w+dvnRS8dTJt/5d++uA2fvJJZrVFrXKeTGhB3bvevQpUcl3TE5eXU3K9ZxgNbNN5P3D/EU27VbcFdRwuZQeSAdf/sJsq40vD1Yx64z53Rv+vWMlcMODPfiVE/WzVgS3/6XXb1d3oIVsYYOHVqrVq358+cfPHgwNzc3PDxcU9SiRYtRo0b16dNHwPAA4E1ibb2atPN6nQ0MjLXzbtreu5Qye9/WXXzLv0sdpyB1bdSuW6NSCm1atmwkOnjrxj1FjwYiIko7+dPYddnv/7lwmA8u4gR4uxlnOu785eHcL4UOwlSw1fou2m97IlGeS2SZl+c1YMX+dzvVfFu+vENCQkJCQh4+fLht27bFixcnJiaOGzeuc+fOjRqV9j8SAEClxHl27hQ4aeali4mqBi5s6qmfvlmpGrB2xVAk4wBvvbdgCBSExjo07Ni7ra8lEZnVCundJajK2/axqFmz5rhx4/z8/Ozs7CZNmoRcHADgJZxP/4GtuYtHTqQpH2/46rONVaZu+av72/BLJwDoYJyj41ApsSyrUul1lyQAgEqI9Rh+NG04ERF9svnRJwJHAwB6w5/NYDSQjgMAAIDpQToORgPpOAAAAJgeTFYBo/HNN9/0799f6CgAAAAADAnpOBiNVq1aCR0CAAAAgIFhsgoAAAAAgGCQjgMAAAAACAbpOAAAAACAYJCOAwAAAAAIBuk4GI3w8PAjR44IHQUAAACAISEdB6Pxxx9/9OjRQ+goAAAAAAwJ6TgYDdwGCAAAAEwP0nEwGkjHAQAAwPQgHQejgXQcAAAATA/uyglGA+k4gNE5ffp048aNhY4CoFJ7+PCh0CGADuVLx5OTk+fOnVtBoQCULSwsjOd5fALLtnz5cqFDACh06NChQ4cOCR0FAMBbrdyj4+PHj6+IOAD0hE8gAAAAmBJ903FLS8uqVatWaCgAYCiOjo5ChwCV3dWrV5VKpdBRgGGsXr166tSpffv2xe+TRg2J3FuL4Xle6BgAAADgLZWammpvb69+HBYW1qhRI2HjATA9WFkFAAAASjV9+nTN49GjRwsYCYCpwug4AAAAlOz+/fv169eXy+WaV3bu3IkbJAMYFkbHAQAAoGTff/+9XC63tbWNjY319/dXv5KXlyd0XAAmBek4GI19+/YNHz5cJpMJHQgAQKVw6tSpPXv2ENHEiRNdXFzmz59PRFFRUX/99ZfQoQGYFExWAaMxadKkn3/+OTU11dbWVuhYAABMnEqlCgwMvHHjhpeX1+3btyUSCRF17dp13759tra29+/fd3Z2FjpGABOB0XEwGgzDEBH+gAQAeANWrVp148YNIpo7d646FyeiefPmicXitLS0yZMnCxodgElBOg5Gg2VZIlKpVEIHAgBg4jIzMydNmkRErVu37tWrl+Z1Hx+fESNGENHy5csjIiIEiw/AtCAdB6OBdBwA4M2YNWtWXFwcwzDq+eLapkyZ4ujoqFQqseghgKEgHQejgXQcAOANePz48e+//05EgwYNCgoKKlZqb28/bdo0Ijp+/Pj+/fsFiA/A5CAdB6Ph4eHRokULkUgkdCAAAKZs/Pjxubm5lpaWs2fPLnGDr776qm7dukQ0duxY7SXJAeDVIB0HozFo0KCzZ886ODgIHQgAgMk6f/78li1biGj8+PGurq4lbiMSiX777Tciunv37sKFC99ofACmCAsdAgAAABERz/NNmza9fPmyu7v73bt3zc3Ny9i4Q4cOhw8ftre3f/DgAQZKAF4HRscBAACAiGjjxo2XL18motmzZ5edixPR/PnzRSJRSkrK1KlT30h0ACYLo+MAAABAOTk5vr6+T58+bdy48cWLF9W3eijbyJEjFy5cKBKJbt68qZ5NDgCvAKPjAAAAQPPmzXv69CkR/f777/rk4kT0008/2dvbKxSKMWPGVHB0AKYM6TgAAEBlFxMTM2fOHCLq27dv8+bN9azl6Og4ZcoUIjp06NDhw4crMD4Ak4Z0HIzG6tWra9So8fDhQ6EDAQAwNRMnTszKyjIzM1Mn5fobMWKEj48PEY0ZM0ahUFRMdAAmDuk4GI2MjIynT5/m5eUJHQgAgEkJDQ1ds2YNEY0ePdrDw6NcdcVi8bx584jo1q1bS5YsqZD4AEwd0nEwGrgrJwBARRg9ejTP81WrVv3hhx9eoXqXLl3atWtHRFOnTk1NTTV0dACmD+k4GA2k4wAABrdz584zZ84Q0cyZM62trV9tJ/Pnz+c4Likpafr06QaNDqBSQDoORgPpOACAYeXl5Y0bN46IGjZs+Pnnn7/yfvz9/YcMGUJEf//99/379w0WH0DlgHQcjAbScQAAw/rrr7+ioqKIaP78+erv2Fc2Y8YMGxsbuVw+duxYA0UHUFlw06ZNEzoGAL2IRCIPD4/WrVtbWloKHQsAgNF78eJF7969ZTJZ165df/zxx9fcm6WlpUgkOnbs2N27d1u1auXl5WWQIAEqA9yVEwAAoDIaPnz4P//8IxaLIyMja9eu/fo7zMvLq1evXlRUVIMGDcLCwl5zuB2g8kBXAQAAqHQiIyOXLl1KRCNGjDBILk5EEolk7ty5RHTz5s3ly5cbZJ8AlQFGxwEAACqdDz/88MiRIw4ODg8ePLC3tzfgnkNCQk6fPl2lSpX79+/b2NgYcM8ApkokdAAAAADwRh06dOjIkSNENHTo0Ozs7OzsbAPufOzYsadPn05ISJg5c6Z6sBwAyobRcQAAgEpEoVA0aNDg9u3bFX0gqVR669YtXNMJoBPmjoPRSEtLu3nzZlZWltCBAAAYscWLF7+BXJyIZDKZelFzACgbJquA0Thy5Ejfvn3PnDlVsCsfAAAgAElEQVTTqlUroWMBADBWTZs2PX78eLmq9OnTJzk52d7eftu2beWqyDCMSqXCEisAZUM6DkaDYRjCbYAAAF5PcHBweatIpVL1v23btq2AiAAqO/zBCkYDd+UEAAAA04N0HIyGOh3HxccAAABgSpCOg9HA6DgAAACYHqTjYDSQjgMAAIDpwaWcYDTatGkTHh7u6ekpdCAAAAAABoN0HIyGtbW1n5+f0FEAAAAAGBImqwAAAAAACAbpOAAAAACAYJCOAwAAAAAIBuk4AAAAAIBgkI6D0Xj69OmsWbPu3LkjdCAAAAAABoN0HIzGw4cPJ06cGB4eLnQgAAAAAAaDdByMBm4DBAAAAKYH6TgYDaTjAAAAYHqQjoPRQDoOAAAApgfpOBgNpOMAAABgepCOg9EwNzf38PCwtLQUOhAAAAAAgxEJHQCAvvz9/R89eiR0FAAAAACGhNFxAAAAAADBIB0HAAAAABAM0nEAAAAAAMEgHQcAAAAAEAzScQAAAAAAwSAdB6Px9OnT5s2bb9++XehAAAAAAAwG6TgYjdzc3AsXLsTExAgdCAAAAIDBIB0Ho4G7cgIAAIDpQToORoNhGEI6DgAAAKYF6TgYDYyOAwAAgOlBOg5GQ52O8zwvdCAAAAAABoN0HIyGjY3NiBEjAgIChA4EAAAAwGAYjDUCAABAGdzc3GJjY11cXGJjY4WOBcAEYXQcAAAAAEAwSMcBAAAAAASDdBwAAAAAQDBIxwEAAAAABIN0HIwGz/PJyck5OTlCBwIAAABgMEjHwWikp6c7OjrOnDlT6EAAAAAADAbpOBgN3AYIAAAATI9I6AAA9MUwDBGpVCqhAwEAgzl37lxMTIzQUYAO6uXG4+Litm3bJnQsUISXl1dQUJDQUcDrQjoORkM9Oo50HMCUzJ49+8CBA0JHAfrq06eP0CFAEUOGDFm2bJnQUcDrwmQVMBpIxwEAAMD0YHQcjAbScQBT1bVr1y1btggdBZRKLpcrlUqO48RisdCxQL7WrVtfuXJF6CjAMJCOg9EQi8WHDh3y9PQUOhAAMDAzMzMzMzOho4BS4d15C+FNMSVIx8FoMAzz4YcfCh0FAAAAgCFh7jgAmKaTCzYrFQqhowAAANAB6TgAmKbIwxcurj2AjBwAAN5ySMcBwDS5+Xlf2Xz04M8rhQ4EAACgLJg7DgCmqdecUUKHAAAAoBtGx8GYbNy48cKFC0JHAQAAAGAwSMfBmAwePHjFihVCRwEAAABgMEjHwZiwLIvbAAEAAIApQToOxgTpOAAAAJgYpONgTJCOAwAAgIlBOg7GBOk4AAAAmBik42BMxGIxwzBCRwEAAABgMFh3HIxJQkKC0CEAAAAAGBJGxwEAAAAABIN0HAAAAABAMEjHAQAAAAAEg3QcAAAAAEAwSMcBAAAAAASDdByMyddffz1nzhyhowAAAAAwGKTjYEwOHDhw5swZoaMAAAAAMBik42BMcFdOAAAAMDFIx8GYsCzL87zQUQAAAAAYDNJxMCYMw2B0HAAAAEwJ0nEwJpisAgAAACZGJHQAAOXQrl07e3t7oaMAAAAAMBik42BMFixYIHQIAAAAAIaEySoAAAAAAIJBOg4AAAAAIBik4wAAAAAAgkE6DgAAAAAgGKTjAAAAAACCQToOxiQkJKRVq1ZCRwEAAABgMFjoEIxJbm5uXl6e0FEAAAAAGAxGx8GY4K6cAAAAYGKQjoMxQToOAAAAJgbpOBgTpOMAAABgYpCOgzFBOg4AAAAmBpdygjH5/vvvc3JyhI4CAAAAwGAYnuf13/rBgweadS0kEkmtWrU0RSkpKbGxsZqn7u7u1tbWmqd37tzRDGpaWFh4enpqihITExMSEjRPa9asaW5urn7M8/zt27c1RTY2NtWrV9c8jYuLS05O1jytVauWRCJRP5bL5ffv39cU2dvbu7q6ap4+e/YsPT1d87ROnTosm/8rQU5OzsOHDzVFzs7Ozs7OmqePHz/OyspSP2ZZtk6dOpqizMzMJ0+eaJ66urra29trnkZFRclkMvXjYu2WmpoaExOjeVq9enUbGxvN07t37yqVSvVjc3PzmjVraoqKtZunp6eFhYXm6a1btzSPra2t3d3dNU/j4+OTkpI0T7XbTaFQ3Lt3T1NUrN2eP3+elpameerr68txnPpxbm5udHS0psjJyalKlSqap9rtxjBM3bp1NUXF2s3FxcXBwUHzNDo6Ojc3V/1YLBbXrl1bU5SWlvb8+XPN02Ltdu/ePYVCoX5crN2SkpLi4+M1Tz08PCwtLTVPtdvNysqqRo0amqfF2s3b21sqlaofF2s3Ozs7Nzc3zdOYmJjU1FTNU+12k8lkUVFRmqJi7fbkyZPMzEzN03r16mkeZ2VlPX78WPO0atWqjo6OmqfR0dGOjo62trYE5ZeXlzd+/Hiho6hEdu/e/ejRo9q1a3fq1EnoWCqRsWPHVqtW7TV3cu3atfXr1xskHngFW7dujYmJqV+//vvvvy90LJXX4MGD/fz8DLAjvjy8vLw0Fb28vLSL/vnnH+3d7tixQ7tUO+Np2rSpdtG0adO0K549e1ZTpMnh1Lp166Zdcfjw4dql9+7d0xRpp4ZENHToUO2KvXr10i5NS0vTFF28eFG7aNKkSdoVtVe8lkql2kV79uzRrvjXX39pl/r4+GiKatSooV20bNky7YpbtmzRLtXOqIKDg7WLZs6cqV3x1KlTmiJN6q/WqVMn7YqjRo3SLr1165amSDszJqLPPvtMu2Lfvn21SxMTEzVFV69e1S6aMGGCdsWQkBBNEcdx2kUHDhzQrjh//nztUu0E1M3NTbto1apV2hU3bNigXerk5KQpatSokXbRL7/8ol3x2LFjmiLNXz5q7du316743XffaZfevHlTU6T9BxURDRw4ULviJ598ol0aFxenKbp+/bp20dixY7UrFvuG1S46cuSIdtHcuXM1RWlpafXr11+zZg0Pr0T7TyAAUxUaGvr6nWXt2rVCnweAwHbt2vX6XYnn+fJNVpkxY4ZmfLTY2Fvr1q0XLVqkeRoQEKBd+scff8jlcvVjFxcX7aJOnTppjwh6e3trHkskEu19ao9xElG/fv20/yLR3omTk5N2Re2sjoi++OKLtm3bap5qBuPVh9CuGBwcrF1xzJgx/fv3Vz8WiYo0XcOGDbUrFrtVzbRp0zTjo9o/GhBRixYttCsGBQVpl86fP1+TW2ufIBF16NBBeyBZO+MXiUTa+9T+LYKI+vTpoz2urz3+7eDgoF1RexibiIYMGfLuu+9qnlpZWWkee3h4aFcMDAzUrjh69OjevXurH2t+iFDz8/PTrtiiRQvt0ilTpmh+ANE+HBE1a9ZMu2Ljxo21S3/99VfNnBbt3zeIqH379trj6NrnyLKs9j61h8aJ6KOPPtL+WUN7YMnW1la7oq+vr3bFzz77TPu8tI9evXp17YqNGjXSrjhq1KgePXpQSerVq6ddsXnz5prHd+7ciYyMLLEWlFex7zEAYxcREaH5v9iA0FOgssnIyHjw4IEBd6h7ssqAAQMkEsnKlSsNeFQAqCCXL19u0qTJmjVrBg0aJHQsRikrK0v9t9+OHTt69uwpdDgAhhQREeHv709EoaGhr59Dr1u3Tv09ozORADAxGRkZ6sG1Xbt2de/e/fV3qHt0/NatW2ZmZq9/JAAAAAAAKAYLHQKYFI7jzM3Ni02mAgAAgLcW/s8GMClBQUHZ2dlCRwEAAAD60p2O29raahZ0AwAAAAAAA9Kdjp86deoNxAEAAAAAUAlh7jgAAAAAgGCQjgOYlNTU1D179jx9+lToQAAAAEAvSMcBTMq9e/e6d++OOWYAAADGQnc6fvTo0RMnTryBUAAAAAAAKhvdl3JOmDDBzMxM+67yAAAAAABgEJisAgAAAAAgGKTjACbF09NzwYIFTZo0EToQAAAA0AvuyglgUqpUqTJy5EihowAAAAB96U7Hp0yZwnHcGwgFAAAAAKCy0Z2Od+/e/Q3EAQAAAABQCWHuOAAAAACAYJCOA5iU8PBwX1/fPXv2CB0IAAAA6AXpOIBJycnJuXfvXlpamtCBAAAAgF50zx3v1KmTVCrduXPnG4gGAMA45caEnTx56d7z5FyxXfU6zd5rE+BmIXRMFS7jSfi9BBnPiBy9GtS01xrdyY27HfksiyfOxsPfx9mAK3ipkqJuPExREmdfs6G3Y7HxJFVK9M3oZAVPjFV1vzou0mKlaY8iHiTm8cRYuQfVqVr2YfK3LXFHBpH5NOJufC5PjFlVXz93qwo4wturUvaVN99ZDNRX/OtUlZR5mMK+ElTHxWDR5zeX5jnDcJxYYm7tVM29qpVprgnI6xIQENCsWTOdmwHA2+DSpUtEtGbNGqEDMVaZmZnq78YdO3boV0MZf2b+gCAnMaP1xcpIq7UcsS4ys2JjNbich4fnfvfnOZmem+ce+8qdIyLGru/WLO0CecT0IDERkaTt3zFKQ0aYsryjlIhI2nll6kuFils/N5EwRMQ69tmUXKxQHv5TkJghIq7miBO6DpOz97OqLBGJm8y6rTBU7NqR3pnTwoxRf1Kaza6QQ5QsPDxc/QkNDQ19/b2tXbtWz0QiX+XtKwJ0FgP1lRwdh9HqKwYLvbC5XsKI7Wq1+2ZDZJbufVSs9PR0dUS7du0yyA4xWQXApEilUnd3dyuryjXcJhzV813D3uswZv21RDlPRAzDMAwR8bLnZxf9773ei24rhI5QT6rkM3O6N2zQccKmm6kqoYN5RZxPn48aSxgiVcrxHYeSi5Qp7uzae1PBE4m8u/drKVCAmmBurt94WT3yx+ddXb/mWp7AAb0R6CtvEf37iplAEZaCl6c+OP7Xpx2+2h5nrG1fCqTjACalYcOGT5486dmzp9CBVAqqJ2tGfrk8MotnWMcmw5f9+yA5J/vF7eMLPm1oyxKvjD8y+Yf1scbxn4bq2cmtB+9lGEewpeG8Purd3IwhUqWe2Fkkx1De3b1PnWH49OjbuMwf3yue7NyazZHy/N/hefmdTav+zRY2ojdAr74idJD6QV95cxjLVuM2bN26deuWLZs3bVj19+RedS0Z4hVPt8xf80ApbGwGpnsGjoeHh1RaEVPnAACMmuLa4vkHElVEIq8h6w4u7OBARES+bUeu3GuWFPDl/mQ+9d/dh18MUv+YS0TKF9d3r16187/IJ0lycxefph0//WpgS7f8//AUd3bO33wji7EJHvBNi9TNfyzcevZeClulftuB33zdo26Rnzsybu1esmTrqfAnyTKJU81G7/X/6otOPpZERJR9dd1v+x4oONc2n32QsXziX6df2Dbo8d3kYS2qsCR7fGLZglWHrj5MZWxrNHiv/7Cvutaxyq/06+r/4lVERFnXt/w89apn+68/a27PUul1XkWZ51+ObbRkXt+0YPedXJ4YK//eIz6q26t3q4mnj2aq0k7sOJD0yUDH/J3e3b33uoInRuzXq1+QhIgoO+rQsn82n7wenZChEFk5ezR4t++XX3Yp5dwUkdvmbouQ8SKvjt9+2sRa/SZcWvPHwWgFI/XrPa53/fz/S/Vprsyja7c/VBCJPIIa5FwPTVA+3bly/6z3+9i/SpMaC/36Cv3vs4IKZX8O9O8sb6KvTBncnIgM21mMtq8YtrOQ2C24e+/ehdcW9Knx7Fz3VXEqZfzzGAX5mNI9Kg0y5QUAwDSUY+64/Oa0QDERkThgyg150bKs63vW7DpzK75w4qUy8fS0EJcis2aJ4Ryajj3wXD1hNGfXQEeWiHPtOuITH3Ot7VjH9xfc0Uwvlt9fP9DXvMhuiLUNGncsUcnzPJ+wuL2UiEQ+Hbr6qbdirDosiVEqk89Ma+XEFZm0a+X35Y4nisJKhcQt5j5Q8GXW4cs5HVbn+eu1TdH5sIrodX09xAwRI/b6eH20nOd5ZezyzjYMETF23dck5NdS3JrZWMIQMeLg6eFynuezLs9+15Et2ojE2rX4+Uqu+r0oNnc8a3Nva4aIJCF/PSs4n2d/hUiIiLHuvVl98rqaK1/ixt6OLBGJ6o3/99AwT46IGJsOS54ZdI59aYSaO27gvqJnZ3lTfYXndb/75eksxtpX8t9PQ3SW0ppLdue3ECuGiLHtsiL2jXSZ0hh87jjScQCAQuVIxzM39bZhiIh1HrRb1/VOypiNfd04ImLEVZv+b/K8+TNGvF/TnCEi1i7k91tyXpNhEBEjdms5eMqvcyf0qGPJEBGJ6o67oL5mTHFrfhtblohYO//e4+fMn/Vtp9oWDBEjqjXyRCZfQrbAWLy/6Jky5eAXNUUMESOu1ubLabOmfPqOI8cQsY5dVzxR8qkHJ3Vp7WvHEhFjVqPxhx26jNkeo6MOr/VfptizdZ9+Wvp2bqQ+FU2Gocf567WNVoqRknRqfJAVQ8RwLh3+ulnwDigT1vZQn4lt11XxSnWjqS9bY6TNf7mj4HlF9F9trRkixsKn69hf/vhz7oSP/KxZIuI8hp/I5flXS8d1Nld+tcUfWjNEjDhwynW57OwYHxERMWbN59x5Exd0CpWOG7iv6NVZ3lxf4fV49/XvLMbbV9R7NUhnKaG5+vbu2bFFbTuOIWLtW826LPDFnEjHAaAsL168WL58+f3794UOxFjpn44rYxe2kxARibxHndaxwIL8+pQAMUPEmAdPKfhvRBG1pLMTS0Rctc/3ZRRmGIwkaEqoeuAp9+wYXxERMRY91mXyPM/Lzo/1FRER69xjTf5Imix0Roh3ncAWH3y+JFyulWKwTu/POR+b8vzKmbAEef4wGCMJnHxVvevUo195i4gYSVN1wim/MTVQTESs6+ADOerT01mn1NUPNAoyDJ3nr+c2hSlG+0nzOrtyDBFr13zK2RTtxk7e1EfdkDZdVsQpeV5xe5Y6wzB/d36Ugud5xaNTK3+f+ePo8auu579v6et7WDNEjFmX1ek8/yrpuB7NxfM8r7g7t6UZQ8RImsy6peB5+dVJDdRDln4/XC42alwRBErHDd1X9OksFdNXeL6EvmLQzqLP+evVRm++r6g3MEhnKaO5GM455KfTcW9uOaKSYWUVAChLdHT0kCFDzp8/L3Qgpo/lOPVPuLxMlseXuany0ZHjEXKeGGmLz74Kyp8HyXl9MqSTM0ukjDt99FrhxpxXyIf11WmCtI5vTY6IeGVOdi4RqWIuXH6oIGKkTTp3dlV/fUsCJp18cPva2SMrvvDTuhiIq97r+1HNXOzcgls1clZcPXc1kycS+bTv0lC9a9tWXdo4s8TLb164kF5SzHn612E4GzfvWto8nMy0f4bWff76baMV3ck5PxyIVfIkqvX53Ikt7LTL7Dv07eDEEvEZp3fuS1Ap7+/eGybnibFo0buXJ0dEnEebz76d+PMv372TtHPh9G8HdQyu99XeTJ6I5+V5r7jIiX7NpQhfv/GSjCfGrFnfvj4ckahR/z4BYoZ4+e1Nq06b7AWdhu0rWm9R6Z2lgvpKyUEbsLPo811Rru+Tt6+vvGJzeXlWr2on5Rhe+eLUtA+a9Ft1z1iW4tGP7ks5t23bJhKJevTo8QaiAQAwGtaurrYsJahUSU8epRM5a5cpInYuv+XasXOzGhZEpHz+PJ4nItbBo6ZD4SCItKaHG0fxKlVCTExhVcbWwaFgXMis4Dp6nlcRkSrhRZKKiBgrB0cdN07havr6aK7pyk1ISOGJSPFgSc/am/K/9vNSE3kiXh7z5JmCXr6MUFcd0qpj3eGPm5u1LrdSRM5oGjDlmrzgue7z12+bQrxcrt674sH6+VvGNBvopjW2ZPtBn04um1bFKDPP7Nz3vGXy3lA5T4z1u316Vs/fKuP6sm+/mLLhapysWG7IsjrGqAq3V6m06+rVXLILazZHyHkizlp29bdvRjJExCeqrBhK5pVPdqw88HO73qZ5QadB+4qicFG40jtLBfWVkvdgwM6iz3eFksrxfSJcX3m9zlJyc2VH7x7X6+NF13Me7xw3eXvXLf0cdcRgPHSn47NnzzYzM0M6DgBQhCS4SSOztUezednlo8eShn6s9R9D9pnF33+98OHXNt79/j65ZqCrhaUZQ0R8bm6O1uJcqqycHJ6IGKm59uK+IpHmi5kpdgWVVCJRL9WcnaNjkS/G0sZW87+lSCRiiYgYKzefuu6a+bJ1GxIRV6OGlNH+n1PPOmUfvihW5/nrt432+XFVWvdq8GDH8ecv9k7/+WT3he2sCwut2vbt7LZ26VNl5n/b/lmRGSrnibF7r0+3/BVuMo6M/2jEqig5iezrhHTu0LpZ0+Cs9f3G7UvjdaYYSmXBiBwvy9XOT/Rprszja7ZFK4iIlAkXNy66WHTXqhcHVm+P6TXUzRR/tNazr9xfN1D358BMu4FK7ywV01dK3oMBO4se56/XNtrnJ0xfeb3OUgoLr64/fN502ahTeaqUy2dvUr+QsmMwIhV2q9Hs/ya36fl3Zq/V/y7q8HBW266/xXdYfHpFrxfzP+wwM6r1n6c2f+pZUYcGAHgDWJcen7SffHxXkip5z7QxW5sv7+MpIiJSpfw364e1DxXEMzmWNeu5siSqVc/HgolMU6VfORsq69lS/f+N8sn5i4+URIy4XqOGeh1R5FHb05wJk/M5d8NvK/oFi4iIsv/95ctlD+yrezbt++3HAYXbisWaxxJvb3eO7ilYhw+m7/6thYSIKCP8wL57bHUPT5+6PhyRojCZ4fWqU56W0n3++m1TSFx35JZd89zXJwV9cyItatXEP75oPblh4QpvFm36daux4u+HyqzT8/9S5fHEOrTr26WKOn2Qndux95GcJ1Hdb/aHzmtuRkQpq9apf3hn2JInrLLq1/ms9HSVemxW8ex5vNbK03o0V/L+tXtilUSMyNzGukhOqcrNSM9R8Bkn12x48Pn3JrV4Wz49+wrp8zloKCaSl3UwIqqwvkJE2ok/r1el8nQWfb4rRPbl+T55033FIJ2ldDkPop6riIgYiZlprcGtc3Z5QEBAs2bNyjsnXZmwprsdw5i3mHtHnrqlnyPLSIKm3ZBn7f3MhWXE9SdceqWZ7gCgQ1JS0qZNmx4+fCh0IMaqHCur8Dwvi/j9PfWvxYzIoX6nwd9NGDusT/PqUvWqaVz1T7aqF+NSxm/o7cwSEWMd9O2+xzKeVyZdmPNBVY6IWPtOSx8rC69OUy8yqJa1tlv+1ViLE3ie55UxK7vZs0TEuXZecCOd5/n00Dnv2bNEjLje+IuywsvTpN3Waq08kHNypJf6srb3ZvwXr+T51EvTmlszRIw0ePpNOc/zits/NxETEWPXa0MKr5DJFLrr6L92m87z13Ob4jf+zjo7tp6YIWIdOi97VGTZM9l/o30Kh5vYKh9v01zClrN/sKu6DXusiMrl+ayo3d8GWzNERNIPlyTy/MuXcuae+tqLIyLGovHki6k8r0g8/8sH6oylYLEIXc2lfL6kQ/7iIn03F7sreerOga4sETFi/x+vVOgFnUKtrMIbtq/o01kqpq/wfAl9RZ8Opndn0ef89WqjN99X1HUM0Fm0msusQb9JU/JN/nHslz0aOqqXR+RqfHk4U88PakUQYGWVV0vHeV6ZFHHi8NVYOc/zypRbJw9deibjeZ5Pv/vvoQuPdS10BAAgiPKl4zyvTDg1NaSqqNikEiKGc2o55VSi5r89xd1l3dzUmzFS+2ruzhYcQ0SMqFq3JXeKrN1WVjrO8zlhs1vZqf9rE9u4VHexFjNExHDV+mx4puRLSzF4xaPVPVzVR2Sl9q4utupqYu+h+/JjTFnf01ZdbuHk6hw08YpcZ53yLKWs+/z12qZYisEr4zb1dVGvuzZ4f5EkV3ZxfL2CHINz+9+eDK23bKM6lyGGNXd0c7ERM4yZuRlDROLAqTfk/MvpOJ++53/V1GOBjNjWtZqTBcdaubrZslprt5XdXIr781qZMUTEVRu8P4MvpiA9Ia7m8OMVuYCbgOm4IfuKfp3ljfUVfSqVo7MYT1/h+RLS8dfvLLzOhWgYsUf/jU+K/FHxpgmQjp88efLff/81yMEAAN5y5U3HeZ7nFXHnl4/r16Z+NXsLsVhqXbV2k64jfj/2KLfYZjl3to7rXM+x4M4dDGvh8d53W+4UjE7ol47zvDLxzK+969tp7qDBiJ2D/rckNF1dWkqKwfN86pV/Pg10EmtVe2fomsjCsZGUE+OCbPNv98G6fL4/R2edct0GSOf567VN8RSD5xWRc1pYMkSMNGDyZe0ml4dObqjeD+c+9FCR+BSPd44Iss9PZljL2t1mH9/zTW0REWPWYs4dRQnpOK98vm9M8yri/CrWtbvOOLz7Wx+RVoZRZnMVrExHolqjTpcwHlWw4CGxVT/elvxyuaEImo7zvKH6ir6d5Q31FX0qla+zGElf4fmS0vHX7SzazaXBMCwnEkstbJzc/UIG/LQnqvhH5k0zeDrO8HzZiw4BAFQiWVlZVlZWRLRjx46ePXsa/gDZsRGhN6NeyCzc/BoHe9m+6jzh7OfXL4VFJ8vNq/gEvlO/qpnuGkRElBsXfvnavfhciXPt4KYNXItVy0uIOHfxXprIyTuwsb+LmV51yh24HudvoDYqkzL1waXzN+NUzvWaN6/joN8hsp5cvXD9udyxTpOmvqVWMWxzGVhERIS/vz8RhYaGBgQE6Ny+bOvWrRs0aBARVVAiYXx9xbDvvjH3FRPoLGXLyMiwsbEhol27dnXv3v31d4h0HACgUIWn4wDCMa50HOCtZfB03BRXVAKoxMLCwhwdHbds2SJ0IAAAAKAXpOMAJkUulycnJ8tkMqEDAQAAAL3oTsdbtmzZrl27NxAKAAAAAEBlo/s2QNnZ2SqVSudmAAAAAABQXpisAmBSLC0tAwICHB0ddW8KAAAAbwHdo+MAYETq168fGhoqdBQAAACgL92j4w0aNFCviwRQWSgeXzgfnVfsxbQbZ8NSMG0LAAAADEt3Or569eolS5a8wq5VMQfnfMeSlkYAACAASURBVDNq6tZ7yleorB/FrY0TR337+8mkV0ySyheiImr7jwP6Dv/nctqrHa1CVHwrv24jv7YKOEVVwvHfvh01ceMtRUmFz3d+1f69Dz798472AVP3j+nyXrvusy9mGiwKAAAAgAqdO65KvLz1n0Vr/31WUspjGIpHJ1ctXLQzNK2MOxBk3dv982fvB3i5VXH1rN+6748bbhZm0+UKUXb2z/FzN2xdPGbGzpTXD70IZcyFjb9PW3m5+HisHiq+lXU0suL6kmGf9P9k1KpITQSq2D1TBn7cf+DUfXH6p/Clt0EFnCKfcnX7ooWrTj56eZe51+f2H7w6ttGYOV/U0b6RmN2HE6Z1Nj//U/9hW59jiBwAAAAMxsQv5cy8OKtj815TtkfbvtOpR8dAq+i9vwxq9f7EM6mvsC9po54DQny9gz/5OMTGwGFmHJr5+Zh5Bx5U3B8uFSfv/unNmzZv/OfXtdfyM2nlo82/z9uwafOW/dcS9E9c3442yL36yxczz4vbz103ublt0SJRrf8tWzak5vNN33y97slbnJDHxsbOmTMnMjJS6EAAAABALyadjssuzf5q+ll5k0lHQ09vWbZkxc4L13YOryu7Ou/rX19lINquzU/H7jy4vKy/J6d740pDmZWZw7pVrxK1e4u6UZV3N22+7OjpLuYzMzPf4rS1BMqopeN/vyZ6d9KfQ2qVcJEz69jh53kDq7/YO3XGoVf5g+7NePr06YQJE65duyZ0IAAAAKAX3SurLFu2TCQSffbZZ692AJZj0q+v/XXm8qORL1iXwO5jf/6xk6fWUXOjDy38bdmeC3cScqVOtd7pPHjM1918LfUvL0rxcM/cP4/Hmvl9PH5oM/bQolXhSu+vf/mhWf5AJ1u1w0+Tum35ZMemded+bhyifpHhRFz2rW2zZi89EPZM7uDf9duZE3v6mBERkezSkgnrwuXahxDV6jVlVIiD9t8xqTc2zp+36lDY0yxxlTotegwbO/x9T6l2HWX8pXULFm05cf1hcp551TrNOg3+bnTnWhJKO7Ng6ta7CpLfu6OkvPD1Y0aeV2f6jKThoF+GviMxUCvrbMRytXKRRrZNz8jixQ3bt725ds+Wc7NbhnDXN2294dJhZOC2Py9lZmkmuJTaRmW1wYL5Q/U9RZ2noEq+vvmvBRuPXYtKlEkdnRQPlCQudmKyswsWnMn2+mrS4Fql/cHl0HH81803j9v8x4ZJHUZ4vPTHrCrlzJzBY7emBo755+8Bvli2CAAAAPTA6xIQENCsWTOdm71MfmNqoJhzD+kUYCu2qxPSo8d7PrYsYx409aq8YJOMi7PaOHOMebWg9r16d3vXx17EsI6tf76UqWd5zoHBrqy45a9RCp7neXnUxk99zFjrgK/3PlPwfO7RL6tznMew47lFwkpY1tGCETf5WROiyLtT36b2nJVn8y49PvBzFDHiWl/sT8oPYGN/V/tC1lKWkbSe/1BZuDtlwuHRjaw427qdv5owadzQjnVsWZFb16V3NefI50Ys6eEhYRhzV/93u/Ts3r6ln6vt+4vilDyvjF3W3cXe3t7e3krCECOx0hzIwW3AlqzXbGV9G1nXBmU2Mq+4/XMTsUWP5dsHVxPX+PJwluzsGB9J7W+P7frcVeTwyc4cXW1UZhsY7IOkfLJtcB0LRmTn07pr74+6hgRUt+IY1nXwgRytpsw5+qU7J/b/8YqcL4MyZmlHa0ba+rdoxcuFics6mjFEJPIdc06vt68CXLp0iYjWrFkjVADGLjMz/2rdHTt2CB0LgIGFh4erP96hoaGvv7e1a9fqmUgAmJj09HT1h3/Xrl0G2WFFp+NEjKX/F9ui5TzPK+M39a3KiuqNv6jeQHZlSoCUtWv50/kU9QuKZ7sG+4gZ8xZzbiv0KC+SKcqjNg7yMWPtGo87GqfkeZ5XxvzdVkKSkL+eKYuElXtyRE2OqzZUO0SpzydrbufwPM9nXZoUKGXM2/xeUrKVs2ugI1s0Hc84OsxLJG0w9t/U/BdSTo2uL2ar9t+an9DLw2c3s2TEHh8ti9Dkv/LkhOQiKV/K8o5SxrLnBv0y8CJKb2V1uc5G1LlBWY3M8/IrP/qJrXtvTjo2zENcbfCug197SeqNv5RxYrgnZ959baY+baSjDV77g6SM39S3Kif2GbzjcX6zK+7Mbioulo7LL02oL+K8vj4tK7vFlQ/nt5YwVl1XJb1cpri7tHt1CWcbOO54Stl7qThIx18T0nEwYUjHAQzC4Ol4Rc8dZ+3b/7p70Uc1RUTEOrVqXk+kinv2nIiI8i5t2BSurDlwxrhmduqNuWpdZ4xpZ5l7ee++R0qd5VrkURs///CzDYnBk3YfnP1+VZaIiE9Lz+SJsbaxLXqOnJWNJcvnZGteYGxaTd++YlAdMyIii6D/9QsW5V47cz6b9JB5ZPXWR5LWX41uWXDdn12rwX0bci9OH7mYS0QkO7tk6eUc555zFn1eXzNzQmTvbG/QiQwltjIR6W7kcrRySY1MpMzMyCaJVGLRql8Pz4T90yftjvH7qH+gRGomYZRZmZkq3W306qeo3wdJ9WLP2v0vzNuNndG9RhnNnnXnziOl2NffT8cUIdbVv54Lm3v/9v2XyzifobsepaXHX5vT1k7vUzOwOnXqHDt27IMPPhAqAAAAACiXip7eyth6+VbTTMQVS8TEqxRKIiJVcnj4Y6V556bBZoWbs87vBHmLjj66f1+hsiy7nLwLdvviyDed/juWGDzl4L6pzQqzIKlEQkR5ecUu2lTlyfJ4khTmXKyDX7CPZqo3V83Lw4q5HPcslsha19kp7t+ITOeZx9tHf3JGk/TLomNUquS4uFwiM+WzK2HPVGYffviBc0X+4VNiKxPpbmSqmaJnK5fSyMRnZmbxEqmUpE379aj199wwrums/n4i9rq5lOGzMzN5RYyONnqNU9Trg0TVI6/fzuW8AgPLfA+UyS+S8hgLR6dSL0wowDlXcWRV8UlJpRSbWQh6qa+NjU27du2EjAAAAADKQ3c6vmLFCpatgFySz87O5RmJhXmREBipmYR4hULB6yovfM2+TrOqt0/sv3/u4qPsZo0s8l/lHKo4SRlVwvNnCnLQ2kfe06fxSs6zeqmBcRxLpFLpsyaIKjsrhydenp2elsZoXnVs+EFHSXANCRHx2Vk5xJjZ2JjrsbcKoLMR9W7lkhuZSKUeHZcyJAnq39vv91/t+vapzRGZSaVE2ZmZvM42qvhzzMjM5KmqpSVT2i6IiBiGIeJVSqU+bzxPDFMRnQIAAAAqH93peEBAQIUcmXNwdpTwmc+fJamomiazkT9+GKPi3NzdRbrKC/ck8hiwaivfqdOM8d0+tT+x6X/5a9RZ+vt5i3bfvXwpUdXARbOD3Ev/XclkqwQ3KyUsVcrzmEze3M3dVZ9zcHJ2YJgXTb7bvql3iYOqrFMVB5aPePYkXkUvr8NRiGGIyriV0SvT2Yh6t3IpjUyyrOw8kkqlDJGo0U9heT+pX1aamUmJf5GZqdLZRgVetQ10ngJjY23N8GnJKUqi/HFrRUpKerFjsfZOjhLKjotNUZFFmZm2MiE+UcVWcS3lEyLLyuYsLbCqCgAAAOhHwBE+6yZN/SV5l7ZuuFt4O8eEfRsOxzFebT+sK9JZroWxaT5l24r/1YzfMazr8N0x6vFNkV+XTnVE2aeWLg7TTFFWPlr/59YnrHff/71XclDKJ7v2XpHbtu74ns6ZKkTEeTYNrs6kndy0/WnJY6qsc/PmdUXyS+tXhpY1TVpiYS4hefzz2FJvAy+LWDbwHW+v4AFLw2V6BKahsxH1b+USG1mVnpHFM2IzabEPEmNuJmH4rMxMXmcb6d0Gr3qO4jr+PlLlw4vnnqh3rUo6OWnEwtvF7zdkWb++t0hxO7TMd4qIlM9vRCTwNvUaeJdQ9mBpV097W7fW089llvc0DIjnK+Jvu0pHBWCK0FkADMLAvcggF4SWSL0+nefwE5qFBpXx/3wgYez6bs1/GrOpXzWOsfDpNWPTiYuXzuz6c+g7Dizn9tHax0p9youvwZdz88/2VTjWJnjCyST1DmK3DnAXMRKPDj+uPnzuwqkts/vWs2TF3oN3xSsLQ2QdP5hxLCImPTMp6vz60c0dOcugSecz+RKUsLKKPGLeu7Ysa1W315SV+89cDgu7cv7k/q2rNpyJyd9G+WRdbzeOEbu1HvHn9lMXL587tmvFzK9/3p+svWPF/d9aWzCcS8i41ccuhl49f3zHqv2R2muv5B4f5sEREXE1vjqmZyvr18i6NyizkRUR04PF4sCpN4ovDpi0rIOUtf94R44ebVRqGxjqg/R8VTcHlqv63sQt/57Z8/tnAXbWfkH1zLliCx3mnvrai+NqfHm4zAVulI//bmfJ2nVbFa98uTD3+HAPjohYh/7by9pJRcLKKq8pPj7ewF+yAG+fjRs3vn5n+eKLL4Q+DwCBTZgw4fW7Eq/PQocymUwm07H2W4l0ZlE8z6dc/LNffTsuf1IvI3YM/HRxaDqvb3nRTJHnlUknxgZYMazTe3OuZPA8z/MZYUs/DXAQF+xA4tpi5MY7moAUj9Z+1qCKGVMwqZhhLb07TD7wrIRFDnm+xHSc55UxR6d1rm3Nak1MZsyDpoUV5qepVxZ9Gugs1hyEs/IavD256K4zr/zeraa5Zh+MWfd12kmh8vGKbs4cw3DOXZc/0rOV9W5kHRuU2ciyi+PqisRNZ90p3mSZ63qYM+bd1mTo10Ylt4GuU9T7g6SI3vh5PStGXebc7Judd3Z86iwqlo7zsks/+IlZ517r40rItAva++b0YClXpegijYUUDxa1t2eJkXZaUeouKhjS8deEdBwqA6TjAAZhqHSc4XX9rh0YGGhmZnb+/PmKOhVV5uPQSzeepLH23oHNGrq9tNKGrnLdsp9fvxT2MJVx9Hmnaf0qxS8fVKY9Cg+PevYiTWVV3b9xUE3bUtfFyNzYy23A/qaLnh7+qkrRyRmqzCc3roY/SpSJrB2cq/v41XGzKrYXWULklWv3E2RSR496gQ09rEuYJZT34vblK3ficlhLZ496Df08bItMyJE9vXIqkq8f0thd+nJVnXQ24uu3su4QdLURFW+DRh62Jeyo9AOUeQqyuBv/XXqkcGnQsklNq1L28HxVz0ZDDlb97uSlX1uWNNFdFbOhb9Cn+6tNOnt+WlCJ16Eq781p5TfhSq1xZ2/NaVKO4A3n8uXLTZo0WbNmzaBBgwQJwNilp6fb2toSUffu3Xv27Cl0OACGFBERMXfuXCI6ffr0u++++5p7mz9//pgxY4hIswA5QCWRkZExYsQIIlq2bNmQIUMMsEedCfsr3wbI5KQeGFKD42qOPJmre1swTvLI30PsWPOG486kv1yofLyhTzVOUvfbk6kvF/I8z+fGnFvYr7aEc+605EEpv7BUPIyOvybcBghMGG4DBGAQBr8NEBaAKIMqYd+cObdcWjepV90y5/6B3yaseSYNnPp5i1cZngajIKo3ctlvZ9798vdBXzY8ufbjmlr9I/PyL4NG7sgInrhtRkgJg/ayw1/5dF36VGXj22POrsVDvAVbe9zW1vb99993c3MTKgAAAAAoF6TjZcq4sXHyxPlynoiIkbg0Hb5q3YQAQyyWDW8rkff/Vmx81KnHkvWHo/sO89Fk1WlnV68Ocx60fOuUZiVOdRHV7T97VYcaTVo3q2Uv6G2AfH19jx49KmQEAAAAUB660/HWrVtLJJUzA2WrfLz5UdupYREPYtJZp1pBjf1dKmBONbxlWPvW0w5c/1LkXk07rbb98I9/I5Kd3V1KybU5j3c/9ngj8QEAAIBJ0Z2O//HHH28gjreWtGrdplXrCh0FvFmsvXu1l16UuLq7CBALAAAAmDbc6BsAAAAAQDBIxwFMytOnT7///vtr164JHQgAAADoBek4gEmJjY2dN29eZGSk0IEAAACAXnSn47/++mslnz4OAAAAAFBBdKfjmzZt2rp16xsIBQAAAACgssFkFQAAAAAAweA2QAAmxc/PLzQ01NPTU+hAAAAAQC9IxwFMioWFRUBAgNBRAAAAgL50p+P/b+/OA5q49j2An5ksIIKALGERZFexLqC41LqgRUBRVFzwoaL1ts93a9HSXp/1trWtrVVreW5Vrz61alsvFrfKotR9wQ2JKBS3AkVRVpVNEkgy94/gcEA0AoFI+H7+mpPfnMkZzY/8cpKZs3//foZhWmEoAAAAAADtjeZyHN96AwAAAAC0EFzKCaBXFApFUVGRXC7X9UAAAADglaAcB9ArKSkpVlZW0dHRuh4IAAAAvBLN5XhBQUFhYWErDAUAAAAAoL3R/NvxgIAAQ0PDpKSkVhgNAAAAAEC7gh+rAAAAAADoDMpxAL1iYWERGhrq7Oys64G0B8riu9Jk6d1iZcs9har4T2my9HahouFw+b20q8nJyVdTs56oGuz+JCv1anLy1et/lTQY16hlTrEiN/3q1bR75fWfLCtuzfLdV8oJeXrtl29XH7xVpdVnBR1qU7nSxAG0ZrLU5gqSRU+gHAfQK66urnv27Bk6dKiuB9IePIqZP9hn8Af7n7TcU5QejBjsM+j9mOIGK4gqadTEQT4+Pv19gldLG6hCFCmrg336+/gM8P/q3Ku+Wyvyzm9asDzhqbrVIqdYdS1q0qBBE6OkdcakvLXxvfDvroscjQgxdDC6tX7O3/7vBmoMPdGmcuVVn7FurrRistC5gmTRE5rL8eDg4KCgoEYf+OnZzwZYmXvOO1Soqrr89VAbc4850Q9UitTVb9uZOYfuzG7KYAEAoAHVN387kPpcjaGQ7j94s7pRB1LlbZ319vv/upjfgrOYDT9xzq7/XXaxW8TnUyQsIazFuE8jva6v/Hjrn609ENBz+pYrSBY9obkcX7p06ZIlSxp7XFVFVtqd4pLstNuPVJXZ6RmFJX/duFmkqsr5Iz2/NDftZkGTRgsAAHWxZp49u6huHn6uxqi6GnPwtriLg4WgEUdTKZUqTqvjeyUVp75bHs+O//A9z5rBCtzeiZxsdHLltwktOJ8K7Yx+5gqSRS9ovrNK07BWM7ad6zJP5jmqm1DovumsVXiZx8jeQnHvtadPTn3kNGJACz0vAECrUxSnJR4+fv1hdSdnn8Cgoc7GdSc6yjPPJhy7crdI0dGuxxD/0f1sDer117gDT/Xows5NR/9S2Y54990RNurHxH0njJWv3H74QOoX/frV/k2vuhpz6K7x2/NGXt+4u7LuUZ7eu5SYeOFWvtzQpvuQgID+durnU9yIXrEr8S8VUd05vGJpjltAxBw3LZ2iokAaH3v2ZqFK0icg2Pe5s3oYveanbNupG8aY1z5o4hc+2WnXtjU/fRo436kxVRK8zvQ3VwZr6xxfmiwN5gqSRR9wAKBHMjMz58yZc/78eV0PpK0qL6+5Zmrfvn2a9i3Y7G9ARP3/673BViKGYRiGIYQROwStu1b5bBf5nzELh0hEDCHqOMMau09cnfRI+Yo7PP7/MQZE/PbGPCXHcdzjc18O7cwKbQOikss4juPkZxa6CVnr8JjfF7gJRb0/Ta6uHZz8XKSHyGLKrkPzXQSszTuxNUNS5p9cNsapA/98hOnoPinq4mOO47iKX2fZm3UUMYQRG5ubS8ZuzNHKKZZf2xTa3YRl1HHGwDFwTpCTUOi28IxcvYMic41vB4HtnMMVdf99Zcf+3lUgHvBNuuLV/u9Aoxs3bqhf3ikpKc0/2q5du161kGhTuVLzcONyRdkqyfKiXEGytLbS0lL1i//AgQNaOSDKcQC9cunSJULIzp07dT2QtqrR5ThhBNbD//HLlQcV8ie3Di1604xlTMdvV5cE5ecW9+nACCW+i6OleZXVZVmnN87uZcKykuBtmYpX2oEqMcourxxlLRDaBa5JKa8ZwLMS49CTMwvd69YYsjML3UVW0/fmn/yAKscVt37wt2CFtiOX7E15WKmofJgSvdjXRiCwD92Tq+Q4jlPmrh8pJgbjdpRq7RRPRfYQMwauIVEnssrkpZnHvw9xNWAIqa0wlA82+xsxxuN/LK7/D1wWPc2MNRgWlYkSQ0t0W463lVzhOK4JudIayfLiXEGytDIdlONLlixZunSpVp4MAFoayvFmanQ5zpqN2/aQn9yqPPKeg0Dg8N+JMo7jinZPMmMFDrMPFvFxTnFn7chOjNAj8pz8FXZ4VmL8kCVdN8ZWKLQfu1ZaXjsAvsSolJ+L9KBrDNmpD1xFkhn7nsjocrzy+N+dBALHuYcf1x5Dmf/zZEtW1O+L69XcC8rxJp8ix3GP9kzpzArd5h8v4+MVZyO7C6lyvPLwHBtW1OufV6j5ypojpX3VX8SaT/+1vH4Emka35XhzXkgad9BirnBcU3KlNZLlxbmCZGllWi/HNV/KmZCQkJiY2OgfwQAAtAcCz7eGWfF/SUWOjjYsV15WyhEiv3LmUhljExgaYFH7l1bgNj10SAdl1rnTmUqNO9Q8xOXGvDPuo4R846Bvts3v27GhUYh9Qsa5cBm/HbyhIIQQeVJMbI5l4JTRpvROivST53JVQkvu9u71vB/+ncV2ZhXpSUnFWj9FQuTSc1dKGJuRQUOM+bjRgJCxLrW/21UVZ2Y/UrG2Dl2fu5ZJ4OhoJ+TK/8rMwy0j9EFzXkiadqjRWrnywtv4t2iyvCRXkCxtXUtdygkA0C6wJmam1LVTDMsSjuM4FSFcYWGxin2jS5e6f2c72duZsdyjggKlQtMOpDshhJDqjFNnLGyshHkJ339/PmTVUGPyPHH/SeNd1679bf+NpV5einMxsfetx0weVXdPRd6DAiUnT9n+Ucpz/UWPCooIkWj3FAlR5ucVqVgPW1v68jKhg4MdS+7XtFSPn5RyjMikUwO1k8jEpANDSkse6+AGFqB1zXghacgV/oHWyhWOSBhtn6PmZHlZriBZ2jgsAwSgV/r27ZuTkzN58mRdD6T9YJgX/B1lOhgaEiKXy+q+PSpllTKOiAwMNO9QQyDxW3UkJfr97lza+ohvkioafDZx/5DxblzGb/tvKGRnf43NlYyZ7FvvTZsRCoWMwG5WdPaD5+Qcieyu9VMkhDUwFDOcTFZJzyZyCoWytgPDsiwhKlVD840qlVLFEYEAE0f6oekvJI071GitXHnx3UtaMllelitIljYO5TiAXhGLxQ4ODkZGRroeCBBxt24uQkXW1eRC+t1TkXYltZQzcHZ3FmrcoeYRQa8JYd42Iz6PesdVmbr2gxWXnpIGiL1DxrtzGbEHko/HxD+0C5o6ov6LQNStm4tAVZj2R4mVbS2JOPfyqUtpuWUcIYQ0POXXxFMkROTp6S5QZktTiqgdKm+k3a39Qp2xsDRniaLkcQNrl1c+flJJGHOLznir0m8aX0gad6jx+uaKNpLlZbmCZGnjNP+3nThxIj4+vhWGAgCgT4Q9Qib0FVeciPr88INn756y9M1fbM9QmY2cFGjJatyh7vHMRn/1XZhDlTRq/qpkWQPPJ/YKGe/Bpe//LCouz2Hc1KGG9XdgHYInDemoSN28ZEv6swOo8uI/CZsSNvXjX+8TQggrEAoJqT9D19RTJETgHjJlsFHlyTWfH8ypWXmlQroh6mB+7eFZMw83G1Z1LzPz+aUSM7PuqxhLV3cJKgz9pvGFpHGHul7DXNFGsrwkV5AsbZ3mbzXMzMxaYRwAAPpG2OvDtUuOjv1y29T+14Mn+rp1KLqesO9IRoVd8A+rwu1ZQlhNO9TFWo1fvmJy4sy9q+d/F3z6M6/6C6CIvUOCu0V9e+yE0G3BlDcbWB5F4DpvzbI4v3/ER7zlHRsypq+FLPP8od+ScsW9P1z9obeQEEI62dqYstVnvp005cKomcu/HNKsUySECLr9z+olh/w/2x46+Hrw+OFO3K2E6ITMKgNqZtHA+81+JpvjrkkLVW/VOWlVsVSaqTAa9abPC5d6AT2h8YWkcYe6Wj9Xlk4QN/ccNSfLC3MFydL2aeX+LADwmqisrMzIyCgpKdH1QNqqRt/o0CBgS1HtQ4qM5QNFjNn0X/lVOsrSov85bYi7tbFY3NHSqV/Q+2uP58jpo7x0h7pLm3Acp8zeHmzNMiZvLk+VUzdvq4lWX1nyhog8u0six3FcnRsdchzHcZV3Di0L9/W0NzUUiTp07tovKGLzhYLaO6/Jbmyd6W1jJGRY27lxWjrF0tSfF0/q79S5g9jI0mP43HUxS4eKqWWAlPk7gs1Ys4m76t1M+cneUAuBSeCWB0oOtEO3NzpsK7nCP19jcqWyVZLlRbmCZGltWAYIAF4G9x1vpsaU46Atj/fPtBOaT9pdVOfBvdOthNbT/l30ol7QaDorx0FbGswVJEur08F9x2/fvn3nzp3mT8MDAAA0xGzsgr/1epr4455s/qo11YOYnfEl3WYvmGChy5EBvF4ayBUkiz7QXI6HhoaGh4e3wlAAAKB9EntFfD7d/NzGHy7WXDdXlbJpw/GOEz/9cCB+CgtAeS5XkCx6AVfgAgCArrEW479eOaFsx7LtmUpCVDm7l/0r33/Zt1Ns8CYFUEfdXEGy6AncLx5Ar0gkkvnz5/fo0UPXAwFoHNZ+2sZY0+NF1TJCBFUuM7bFDh/r/OLVVgDaLTpXOlYhWfQCynEAvdK1a9f169frehQATcB27jNminrTzXeKm24HA/Aao3LFEMmiFzSX4+Hh4UIhqnYAAAAAAO3TXGcvWLCgFcYBAAAAANAO4Yf/AAAAAAA6o3l2nOO42NhYvimRSAYMGMA309PTMzMz+aavr6+xsbF6WyaT/f7773zIwcGhb9++fFMqld6/f59v+vv7i8U1K8yWlpaePn2aD7m5udHXpV28eLGwsFC9zTBMUFAQHyosLLx48SLf7Nmzp4uLC988ffo0f9t2Q0NDPz8/PnT//n2pVMo3vb297e1rF91NTEyUy+XqbVNT02HDhvGhP//8848//uCbpFqEkQAABZRJREFUgwYNsrKy4puHDx/mt62trQcOHMg3MzIy7t69yzeHDx/eqVMn9XZVVdXRo0f5UJcuXby8vPjmtWvX7t27xzdHjx5tYFBza6OysrJTp07xIVdXV09PT7556dKlgoICvjlu3Dh+u6io6MKFC3zT09PT1dWVb545c6akpES9bWBgMHr0aD6Um5ubkpLCN728vLp06cI3jx07VllZqd42MTEZMWIEH8rKykpLS+ObAwcOtLa25ptxcXEqlUq9bWlpOXjwYD508+ZN+i74w4YNMzU1VW9XV1cfOXKED9nb23t7e/PN1NTUnJwcvunn52doaKjeLi8vP3nyJB9ycXHp2bMn37x8+XJ+fj7fDAoKYpiaFYuLi4uTkpL4UI8ePdzcan/Bd/bs2SdPnqi3RSJRQEAAH3r48GFycjLf7NOnj6OjI988fvz406dP1dvGxsa+vr58KDs7m1/FgxAyYMAAiUTCN+Pj45VK5Z07d3788ce1a9fSHQEAAOD1pXGhoOrqanr/wMBAOrpw4UI6mpaWxofoapsQEh4eTnecPn06HS0sLORDdIVHCFm0aBHdcdSoUXyIYRg6lJCQQHdcvXo1HX3jjTf4kI2NDR3auXMn3XH37t10lK4Ue/fuTYdWrVpFdzx69CgdpUN+fn506OOPP6aj165d40N5eXl0KCwsjO44c+ZMOvrgwQM+dP36dToUGRlJd/T396ejSmXtSrr0pyZCyIoVK+iO9IcoCwsLOvTzzz/THXfs2EFH7ezs+JCnpycdioqKojvGxcXRUYGg9gJxX19fOrR48WK6Y3JyMh8qLi6mQ9OmTaM7zpkzh47m5OTwIfoDFSEkIiKC7jh27Fg6KpfXLmdMF/GEkK+//pru2L9/fz5kampKh6Kjo+mOW7dupaN0ae7h4UGH1q1bR3c8dOgQHeU/mBGsytkMWJUT9BhW5QTQCq2vyql5dlwgENCTtfTsLyFk3rx5gYGBfNPJyYnftrS0pDvS882EkE8++WT27Nl8k5/jJIS4ubnRHZ2dnemOK1eu5Asvfp5SzcfHh+7YrVs3Orply5aysjL1Nl24EEL8/Pzojr169aKje/fu5WfHTUxM6NDUqVP79OnDN/v160dH6WNaWlrSoXfffZeenqdno83NzemOdFFLCFm0aNGMGTP4poVF7Rpczs7OdEf6/4IQsnz58sjISL7JsrW/U/L29qY7enh40B03bdrEv+z4bzDURo4cSXekP/AQQvbs2SOT1SxTwH9nohYSEkLPQNPT2ISQI0eO8LPj9AkSQubOnUtP+tJD7dSpEz0YW1tbuuNHH30UGhrKN+mPWI6OjnTHrl270h2XLVsWERHBN0UiEb/dp08fuqO7uzvdccOGDfy3CnQvQsjw4cPpjvQ/BSHkp59+4r9V6NixIx2aMGEC/aqmvzYhhMTFxSmVNeu01XsNAwAAwGuL4epO4gIAtGcVFRXqT4/79u2bNGmSrocDoE1paWnqz+opKSn1Ps83we7du2fNmkUIQSEB7U1ZWZn6N8YHDhyYMGFC8w+ISzkBAAAAAHQG5TgAAAAAgM6gHAcAAAAA0BmU4wAAAAAAOoNyHAAAAABAZ1COAwAAAADojOb7jgMAtENhYWG40SHoGXo5ZC0KCwtricMCvLb4dWy0BeU4AEADZDLZL7/8outRALQByBSAZkI5DgBQSygUjh49WtejAGhZ6hVMmsnOzg7JAu2cRCLRynGwKicAAAAAgM7gUk4AAAAAAJ1BOQ4AAAAAoDMoxwEAAAAAdAblOAAAAACAzqAcBwAAAADQGZTjAAAAAAA6g3IcAAAAAEBnUI4DAAAAAOgMynEAAAAAAJ1BOQ4AAAAAoDMoxwEAAAAAdAblOAAAAACAzqAcBwAAAADQGZTjAAAAAAA68x/pRGdVozsCBQAAAABJRU5ErkJggg==;" vertex="1" parent="1">
          <mxGeometry x="260" y="589.99" width="676" height="282.47" as="geometry" />
        </mxCell>
        <mxCell id="kGa_pBdqIZK06uq2p0jP-5" value="" style="shape=flexArrow;endArrow=classic;html=1;rounded=0;exitX=0.5;exitY=1;exitDx=0;exitDy=0;entryX=0.5;entryY=0;entryDx=0;entryDy=0;" edge="1" parent="1" source="kGa_pBdqIZK06uq2p0jP-2" target="kGa_pBdqIZK06uq2p0jP-3">
          <mxGeometry width="50" height="50" relative="1" as="geometry">
            <mxPoint x="790" y="550" as="sourcePoint" />
            <mxPoint x="840" y="500" as="targetPoint" />
          </mxGeometry>
        </mxCell>
        <mxCell id="kGa_pBdqIZK06uq2p0jP-6" value="" style="shape=flexArrow;endArrow=classic;html=1;rounded=0;exitX=0.5;exitY=1;exitDx=0;exitDy=0;entryX=0.5;entryY=0;entryDx=0;entryDy=0;" edge="1" parent="1" source="kGa_pBdqIZK06uq2p0jP-1" target="kGa_pBdqIZK06uq2p0jP-3">
          <mxGeometry width="50" height="50" relative="1" as="geometry">
            <mxPoint x="300" y="500" as="sourcePoint" />
            <mxPoint x="350" y="450" as="targetPoint" />
          </mxGeometry>
        </mxCell>
        <mxCell id="kGa_pBdqIZK06uq2p0jP-7" value="&lt;b&gt;&lt;font style=&quot;font-size: 30px;&quot;&gt;Combine&lt;/font&gt;&lt;/b&gt;" style="text;html=1;strokeColor=none;fillColor=none;align=center;verticalAlign=middle;whiteSpace=wrap;rounded=0;" vertex="1" parent="1">
          <mxGeometry x="478" y="500" width="220" height="60" as="geometry" />
        </mxCell>
        <mxCell id="kGa_pBdqIZK06uq2p0jP-8" value="&lt;font style=&quot;font-size: 21px;&quot; color=&quot;#cc0000&quot;&gt;Objectifier&amp;nbsp;&lt;/font&gt;" style="text;html=1;strokeColor=none;fillColor=none;align=center;verticalAlign=middle;whiteSpace=wrap;rounded=0;" vertex="1" parent="1">
          <mxGeometry x="800" y="281.04" width="60" height="30" as="geometry" />
        </mxCell>
        <mxCell id="kGa_pBdqIZK06uq2p0jP-9" value="&lt;span style=&quot;color: rgb(204, 0, 0); font-family: Helvetica; font-size: 21px; font-style: normal; font-variant-ligatures: normal; font-variant-caps: normal; font-weight: 400; letter-spacing: normal; orphans: 2; text-align: center; text-indent: 0px; text-transform: none; widows: 2; word-spacing: 0px; -webkit-text-stroke-width: 0px; background-color: rgb(251, 251, 251); text-decoration-thickness: initial; text-decoration-style: initial; text-decoration-color: initial; float: none; display: inline !important;&quot;&gt;Template Method&lt;/span&gt;" style="text;whiteSpace=wrap;html=1;" vertex="1" parent="1">
          <mxGeometry x="340" y="140" width="130" height="50" as="geometry" />
        </mxCell>
        <mxCell id="kGa_pBdqIZK06uq2p0jP-10" value="&lt;span style=&quot;color: rgb(204, 0, 0); font-family: Helvetica; font-size: 21px; font-style: normal; font-variant-ligatures: normal; font-variant-caps: normal; font-weight: 400; letter-spacing: normal; orphans: 2; text-align: center; text-indent: 0px; text-transform: none; widows: 2; word-spacing: 0px; -webkit-text-stroke-width: 0px; background-color: rgb(251, 251, 251); text-decoration-thickness: initial; text-decoration-style: initial; text-decoration-color: initial; float: none; display: inline !important;&quot;&gt;Template Class&lt;/span&gt;" style="text;whiteSpace=wrap;html=1;" vertex="1" parent="1">
          <mxGeometry x="500" y="706.23" width="130" height="50" as="geometry" />
        </mxCell>
      </root>
    </mxGraphModel>
  </diagram>
</mxfile>
